<svg id="Capa_1" enable-background="new 0 0 511.98 511.98" height="512" viewBox="0 0 511.98 511.98" width="512" xmlns="http://www.w3.org/2000/svg"><g><g><path d="m235.304 159.783c13.49 7.065 27.881 7.065 41.371 0v-96.494h-41.371z" fill="#a06e50"/><path d="m449.811 309.658c0 107.597-86.225 193.822-193.821 193.822-5.214 0-10.381.795-15.492.393-100.354-7.895-179.33-91.832-179.33-194.215 0-102.55 79.233-186.594 179.822-194.253 4.951-.377 9.953.431 15 .431 107.597 0 193.821 86.225 193.821 193.822z" fill="#bbf49b"/><path d="m255.99 114.836c-4.789 0-9.538.173-14.241.513-.253.018-.506.037-.759.056 100.588 7.659 179.821 91.703 179.821 194.253s-79.233 186.594-179.821 194.253c4.951.377 9.953.569 15 .569 107.597 0 194.821-87.225 194.821-194.822s-87.224-194.822-194.821-194.822z" fill="#9be69d"/><path d="m379.463 18.296c-4.534-9.429-14.816-12.448-24.291-8.012-5.994 2.806-11.26 5.272-11.26 5.272-3.911 1.639-7.901 2.197-11.956 3.677-70.227 25.642-159.98 28.121-198.421 27.863-10.252-.069-19.106 7.682-19.831 17.909-.771 10.877 7.596 20.199 18.448 20.64 4.544.185 9.276.355 13.464.46 2.757.07 5.279.112 7.357.112 37.562-.001 118.061-3.559 190.46-30.407 5.292-1.963 10.541-5.05 15.727-7.269.77-.329 6.211-2.879 12.225-5.708 9.596-4.512 12.673-14.982 8.078-24.537z" fill="#b67f5f"/><path d="m343.433 55.806c5.292-1.962 10.543-4.045 15.729-6.264.77-.329 6.211-2.879 12.225-5.708 9.594-4.513 13.671-15.982 9.076-25.538-4.534-9.428-15.816-13.447-25.291-9.012-5.994 2.806-11.26 5.272-11.26 5.272-3.911 1.639-7.904 3.192-11.958 4.672l.002.003s34.033 5.833 11.93 35.64c-.216.293-.307.628-.453.935z" fill="#a06e50"/></g><g><path d="m284.175 108.655v-28.107c25.97-5.525 52.622-13.278 77.939-24.112.331-.141 1.104-.473 12.465-5.816 6.464-3.04 11.341-8.422 13.734-15.153 2.392-6.731 2.004-13.984-1.091-20.421-6.287-13.073-22.092-18.706-35.23-12.554l-10.344 4.843c-.218.102-.428.207-.63.313l-.004-.009c-11.54 4.835-24.456 9.208-38.389 12.996-3.997 1.086-6.356 5.208-5.27 9.205 1.087 3.997 5.207 6.357 9.205 5.27 14.565-3.96 28.107-8.547 40.251-13.636.108-.045.214-.092.318-.142.423-.198 5.489-2.571 11.222-5.255 5.724-2.681 12.612-.227 15.352 5.469 1.349 2.805 1.517 5.965.475 8.898-1.043 2.933-3.168 5.278-5.984 6.602-9.929 4.67-11.693 5.474-11.984 5.6-76.07 32.553-167.471 36.07-203.236 36.071-1.862 0-15.875-.377-20.517-.565-3.21-.131-6.159-1.522-8.301-3.918-2.143-2.396-3.198-5.485-2.97-8.699.436-6.15 5.792-10.94 12.212-10.94h.087c28.508.195 84.671-1.111 140.61-11.985 4.066-.791 6.722-4.728 5.931-8.793-.79-4.066-4.727-6.719-8.793-5.931-54.661 10.625-109.699 11.905-137.647 11.709-.063 0-.125 0-.188 0-14.265 0-26.184 10.894-27.175 24.879-.517 7.295 1.881 14.312 6.752 19.759 4.871 5.446 11.573 8.608 18.873 8.905 4.655.189 18.87.578 21.126.578 18.946-.001 45.189-.84 74.829-4.15v19.087c-98.445 13.761-174.462 98.502-174.462 200.678 0 4.142 3.358 7.5 7.5 7.5s7.5-3.358 7.5-7.5c0-103.469 84.178-187.647 187.647-187.647s187.647 84.178 187.647 187.647c0 11.273-1.006 22.564-2.991 33.561-.736 4.076 1.972 7.977 6.049 8.713.45.081.898.121 1.341.121 3.559-.001 6.717-2.544 7.372-6.169 2.143-11.873 3.229-24.061 3.229-36.225.002-102.175-76.014-186.917-174.46-200.677zm-41.371-1.529v-19.413c8.602-1.171 17.422-2.561 26.371-4.199v23.612c-4.361-.282-8.755-.441-13.186-.441s-8.824.159-13.185.441z"/><path d="m441.66 370.047c-3.885-1.44-8.199.545-9.637 4.429-13.174 35.584-36.577 66.04-67.679 88.077-31.787 22.522-69.255 34.426-108.354 34.426-44.629 0-87.874-15.935-121.767-44.869-33.523-28.618-55.992-68.175-63.267-111.384-.688-4.085-4.555-6.838-8.641-6.151-4.085.688-6.838 4.557-6.151 8.641 7.86 46.677 32.123 89.401 68.32 120.302 36.606 31.25 83.309 48.46 131.506 48.46 42.223 0 82.69-12.859 117.026-37.187 33.578-23.79 58.846-56.678 73.074-95.108 1.438-3.883-.546-8.198-4.43-9.636z"/><path d="m160.298 256.61h-42.616c-4.142 0-7.5 3.358-7.5 7.5s3.358 7.5 7.5 7.5h42.616c4.142 0 7.5-3.358 7.5-7.5s-3.358-7.5-7.5-7.5z"/><path d="m229.809 293.297h-42.616c-4.142 0-7.5 3.358-7.5 7.5s3.358 7.5 7.5 7.5h42.616c4.142 0 7.5-3.358 7.5-7.5s-3.358-7.5-7.5-7.5z"/><path d="m339.305 222.694h-42.617c-4.142 0-7.5 3.358-7.5 7.5s3.358 7.5 7.5 7.5h42.617c4.142 0 7.5-3.358 7.5-7.5s-3.358-7.5-7.5-7.5z"/><path d="m137.076 337.484c0 4.142 3.358 7.5 7.5 7.5h42.617c4.142 0 7.5-3.358 7.5-7.5s-3.358-7.5-7.5-7.5h-42.617c-4.142 0-7.5 3.358-7.5 7.5z"/><path d="m208.122 410.858c0 4.142 3.358 7.5 7.5 7.5h42.617c4.142 0 7.5-3.358 7.5-7.5s-3.358-7.5-7.5-7.5h-42.617c-4.142 0-7.5 3.358-7.5 7.5z"/><path d="m296.314 374.171c0 4.142 3.358 7.5 7.5 7.5h42.616c4.142 0 7.5-3.358 7.5-7.5s-3.358-7.5-7.5-7.5h-42.616c-4.142 0-7.5 3.358-7.5 7.5z"/></g></g></svg>