<svg id="Capa_1" enable-background="new 0 0 512 512" height="512" viewBox="0 0 512 512" width="512" xmlns="http://www.w3.org/2000/svg"><g><g><path d="m323.888 261.214-50.08 73.554c-7.728 11.35-24.46 11.35-32.188 0l-50.08-73.554-92.699 3.281 92.402 140.644c2.086 3.175 3.198 6.892 3.198 10.691v72.39c0 8.991 7.289 16.28 16.28 16.28h66.946l27.041-2c8.991 0 14.28-5.289 14.28-14.28v-72.39c0-3.799 1.112-7.516 3.198-10.691l92.402-140.644z" fill="#bbf49b"/><path d="m323.888 261.214-.706 1.037 63.405 2.245-92.402 140.644c-2.086 3.175-3.198 6.892-3.198 10.691v72.39c0 8.991-7.289 16.28-16.28 16.28h30c8.991 0 16.28-7.289 16.28-16.28v-72.39c0-3.799 1.112-7.516 3.198-10.691l92.402-140.644z" fill="#9be69d"/><path d="m452.141 184.109c6.97-12.436 10.948-26.775 10.948-42.044 0-47.57-36.563-85.133-84.133-85.133-5.139 0-10.172-.55-15.063.314-8.426 1.487-16.428 4.2-23.819 7.945-11.748-33.593-43.716-57.691-81.318-57.691-38.662 0-71.375 25.473-82.27 60.552-8.524-3.152-17.741-4.877-27.361-4.877-43.569 0-78.889 35.32-78.889 78.889 0 10.374 2.006 20.278 5.645 29.351-27.35 14.432-45.995 43.147-45.995 76.221 0 47.57 38.563 86.133 86.133 86.133 33.073 0 61.787-18.644 76.22-45.992 15.798 19.18 39.729 31.41 66.517 31.41 24.954 0 47.426-10.616 63.157-27.574 12.04 20.236 32.134 35.12 55.862 40.228 5.869 1.263 11.96.928 18.207.928 47.57 0 84.133-37.563 84.133-85.133-.001-25.15-10.783-47.78-27.974-63.527z" fill="#6fd7a3"/><path d="m454.141 184.109c6.969-12.436 10.948-26.775 10.948-42.044 0-47.57-38.563-86.133-86.133-86.133-5.139 0-10.171.454-15.062 1.318 40.445 7.076 71.195 42.343 71.195 84.815 0 15.27-3.979 29.608-10.948 42.044 17.191 15.747 27.972 38.377 27.972 63.528 0 42.469-30.744 77.733-71.185 84.813 4.889.862 9.917 1.319 15.052 1.319 47.57 0 86.133-38.563 86.133-86.133.001-25.15-10.781-47.781-27.972-63.527z" fill="#3ec3a4"/></g><g><path d="m463.36 182.627c6.052-12.595 9.229-26.502 9.229-40.563 0-17.61-4.918-34.772-14.222-49.63-2.197-3.51-6.825-4.574-10.337-2.376-3.511 2.198-4.574 6.826-2.376 10.337 7.808 12.469 11.935 26.878 11.935 41.669 0 13.444-3.455 26.715-9.991 38.378-1.702 3.037-1.09 6.846 1.477 9.197 16.23 14.867 25.539 36.006 25.539 57.997 0 43.358-35.274 78.633-78.633 78.633-27.585 0-53.496-14.749-67.623-38.491-1.208-2.031-3.304-3.374-5.655-3.624-2.354-.247-4.682.625-6.289 2.358-14.842 15.999-35.857 25.175-57.658 25.175-23.583 0-45.717-10.453-60.728-28.678-1.595-1.938-4.061-2.948-6.55-2.693-2.497.255-4.701 1.742-5.872 3.961-13.669 25.902-40.333 41.993-69.587 41.993-43.358 0-78.633-35.274-78.633-78.633 0-29.254 16.092-55.919 41.996-69.588 3.396-1.792 4.89-5.861 3.46-9.425-3.388-8.447-5.106-17.383-5.106-26.559 0-39.364 32.025-71.389 71.389-71.389 8.514 0 16.844 1.484 24.759 4.412 1.931.714 4.069.603 5.916-.307 1.846-.91 3.238-2.538 3.848-4.503 10.269-33.064 40.453-55.278 75.108-55.278 33.388 0 63.222 21.165 74.24 52.666.714 2.041 2.273 3.674 4.279 4.481 2.005.807 4.262.709 6.19-.268 11.062-5.606 23.003-8.448 35.491-8.448 16.275 0 31.889 4.926 45.152 14.247 3.389 2.381 8.067 1.564 10.449-1.825 2.381-3.389 1.565-8.067-1.825-10.449-15.802-11.104-34.397-16.973-53.776-16.973-12.11 0-23.792 2.248-34.834 6.692-15.013-33.281-48.356-55.123-85.366-55.123-20.384 0-39.762 6.438-56.041 18.616-13.703 10.253-24.468 24.296-30.849 40.087-7.379-2.011-15-3.028-22.741-3.028-47.635 0-86.389 38.754-86.389 86.389 0 8.888 1.334 17.594 3.974 25.964-27.498 17.027-44.324 46.962-44.324 79.608 0 51.629 42.003 93.633 93.633 93.633 7.694 0 15.236-.94 22.495-2.728l16.743 25.483c1.44 2.193 3.834 3.383 6.275 3.383 1.413 0 2.842-.399 4.111-1.233 3.462-2.274 4.424-6.924 2.15-10.386l-14.584-22.198c16.157-6.982 30.19-18.462 40.299-33.375 8.294 8.071 17.929 14.438 28.392 18.917l13.52 19.857c5.027 7.384 13.361 11.792 22.293 11.792 8.932 0 17.267-4.409 22.294-11.792l12.765-18.749c10.166-3.972 19.638-9.69 27.905-16.967 10.487 14.138 24.74 24.95 40.855 31.362l-43.616 66.388c-2.897 4.412-4.429 9.532-4.429 14.809v20.228c0 4.142 3.358 7.5 7.5 7.5s7.5-3.358 7.5-7.5v-20.228c0-2.342.68-4.615 1.966-6.573l46.036-70.071c6.351 1.367 12.881 2.082 19.492 2.082 51.629 0 93.633-42.003 93.633-93.633 0-24.25-9.504-47.628-26.254-65.01zm-195.751 147.92c-2.265 3.326-5.872 5.234-9.895 5.234s-7.63-1.908-9.895-5.234l-3.38-4.964c4.699.722 9.48 1.104 14.317 1.104 4.039 0 8.053-.278 12.023-.796z"/><path d="m320.987 461.244c-4.142 0-7.5 3.358-7.5 7.5v19.477c0 4.841-3.939 8.779-8.78 8.779h-93.987c-4.841 0-8.78-3.939-8.78-8.779v-72.39c0-5.277-1.532-10.398-4.43-14.809l-12.321-18.754c-2.275-3.463-6.926-4.425-10.386-2.15-3.462 2.274-4.424 6.924-2.15 10.386l12.321 18.754c1.286 1.957 1.966 4.23 1.966 6.573v72.39c0 13.112 10.667 23.779 23.78 23.779h93.987c13.112 0 23.78-10.668 23.78-23.779v-19.477c0-4.142-3.358-7.5-7.5-7.5z"/><path d="m130.313 222.283c0 4.142 3.358 7.5 7.5 7.5s7.5-3.358 7.5-7.5c0-4.142-3.358-7.5-7.5-7.5s-7.5 3.358-7.5 7.5z"/><path d="m248.5 222.283c0 4.142 3.358 7.5 7.5 7.5s7.5-3.358 7.5-7.5c0-4.142-3.358-7.5-7.5-7.5s-7.5 3.358-7.5 7.5z"/><path d="m366.687 222.283c0 4.142 3.358 7.5 7.5 7.5s7.5-3.358 7.5-7.5c0-4.142-3.358-7.5-7.5-7.5s-7.5 3.358-7.5 7.5z"/><circle cx="196.907" cy="129.386" r="7.5"/><circle cx="315.093" cy="129.386" r="7.5"/></g></g></svg>