<svg id="Capa_1" enable-background="new 0 0 512 512" height="512" viewBox="0 0 512 512" width="512" xmlns="http://www.w3.org/2000/svg"><g><g><path d="m494.442 282.355c0 98.856-45.76 178.995-114.614 178.995s-124.672-80.139-124.672-178.995 55.818-178.995 124.672-178.995 114.614 80.139 114.614 178.995z" fill="#ff8c5a"/><path d="m291.798 138.988 3.503-82.246c.217-3.303-1.598-5.087-5.157-5.087l-20.116-1.006h-37.57c-3.558 0-6.38 2.79-6.163 6.092l3.503 82.246h62z" fill="#6ed5a1"/><path d="m290.144 50.65h-20.116c3.558 0 6.38 2.79 6.163 6.092l-3.503 82.246h20.116l3.503-82.246c.217-3.303-2.604-6.092-6.163-6.092z" fill="#46cc8d"/><ellipse cx="132.172" cy="282.355" fill="#ff8c5a" rx="124.672" ry="178.995"/><path d="m379.828 103.359c-5.107 0-10.141.451-15.087 1.308 61.739 10.694 109.585 86.164 109.585 177.687s-47.846 166.994-109.585 177.688c4.946.857 9.98 1.308 15.087 1.308 68.854 0 124.672-80.139 124.672-178.995s-55.818-178.996-124.672-178.996z" fill="#ff7350"/><ellipse cx="189.17" cy="282.355" fill="#ffaa5f" rx="123.895" ry="177.879"/><ellipse cx="322.83" cy="282.355" fill="#ffaa5f" rx="123.895" ry="177.879"/><ellipse cx="256" cy="282.355" fill="#ffc369" rx="118.908" ry="170.72"/></g><path d="m474.139 151.5c-24.991-35.881-58.484-55.641-94.311-55.641-10.253 0-20.441 1.671-30.332 4.927-8.622-2.494-17.54-3.811-26.666-3.811-7.022 0-13.978.78-20.829 2.309l1.795-42.153c.207-3.569-1.041-6.987-3.52-9.636-2.586-2.763-6.28-4.347-10.133-4.347h-57.686c-3.852 0-7.545 1.584-10.132 4.346-2.48 2.649-3.728 6.067-3.521 9.637l1.925 45.194c-10.265-3.552-20.829-5.351-31.561-5.351-9.071 0-17.996 1.271-26.713 3.795-9.877-3.246-20.05-4.911-30.285-4.911-32.338 0-63.418 16.532-87.514 46.55-2.593 3.23-2.077 7.951 1.154 10.544 1.384 1.111 3.043 1.651 4.69 1.651 2.196 0 4.372-.96 5.854-2.805 21.193-26.401 48.118-40.94 75.817-40.94 2.151 0 4.299.097 6.442.269-.521.305-1.044.601-1.563.916-15.652 9.505-29.663 23.046-41.643 40.245-24.269 34.843-37.634 81.035-37.634 130.066s13.365 95.223 37.634 130.065c11.979 17.2 25.99 30.74 41.643 40.245.519.315 1.042.611 1.563.916-2.143.172-4.291.269-6.442.269-64.608.002-117.171-76.931-117.171-171.494 0-38.092 8.405-74.184 24.308-104.373 1.93-3.665.524-8.2-3.141-10.131-3.665-1.93-8.2-.524-10.131 3.141-17.033 32.336-26.036 70.845-26.036 111.363 0 49.33 13.446 95.802 37.861 130.855 24.991 35.88 58.484 55.64 94.311 55.64 10.237 0 20.41-1.665 30.285-4.911 8.717 2.524 17.642 3.795 26.713 3.795 14.875 0 29.431-3.447 43.312-10.247 7.626 2.02 15.486 3.088 23.518 3.088 8.006 0 15.887-1.044 23.573-3.06 13.865 6.783 28.402 10.219 43.257 10.219 9.055 0 17.981-1.299 26.671-3.809 9.888 3.255 20.075 4.925 30.327 4.925 35.827 0 69.32-19.76 94.311-55.64 24.415-35.053 37.861-81.525 37.861-130.855s-13.446-95.801-37.861-130.855zm-185.399-93.351-1.952 45.845c-2.42.967-4.821 2.039-7.204 3.204-7.69-2.018-15.574-3.063-23.584-3.063-6.774 0-13.487.758-20.083 2.24l-2.054-48.226zm-108.648 343.464c-21.242-29.024-33.792-68.236-35.339-110.413-.152-4.14-3.626-7.362-7.77-7.221-4.139.152-7.372 3.631-7.22 7.77 2.672 72.894 36.165 133.618 82.161 157.7-7.455 2.18-15.062 3.285-22.754 3.285-64.18 0-116.395-76.432-116.395-170.379 0-81.741 39.53-150.211 92.074-166.627.028-.01.057-.017.086-.027 7.82-2.434 15.926-3.726 24.235-3.726 7.683 0 15.281 1.102 22.727 3.277-14.673 7.657-28.307 19.136-40.156 34.06-22.365 28.171-36.915 66.726-40.972 108.563-.4 4.123 2.618 7.789 6.741 8.189 4.134.403 7.788-2.618 8.189-6.741 7.75-79.92 55.169-140.188 110.301-140.188 61.431 0 111.408 73.221 111.408 163.221 0 78.705-38.221 144.576-88.897 159.87-.187.047-.373.099-.556.16-7.1 2.087-14.441 3.19-21.955 3.19-28.202-.001-55.16-15.613-75.908-43.963zm199.736 52.238c-2.143 0-4.283-.096-6.418-.267 14.644-8.576 28.174-20.908 39.927-36.649 23.771-31.84 38.168-74.782 40.538-120.919.212-4.137-2.969-7.662-7.105-7.875-4.131-.222-7.662 2.969-7.875 7.105-4.538 88.311-55.519 157.488-116.064 157.488-7.645 0-15.206-1.09-22.618-3.244 17.159-8.962 32.833-23.193 46.023-42.131 23.326-33.49 36.173-77.885 36.173-125.004 0-47.12-12.847-91.514-36.173-125.005-13.189-18.935-28.861-33.165-46.017-42.127 7.413-2.153 14.974-3.248 22.612-3.248 28.337 0 55.691 15.217 77.024 42.847 21.733 28.149 35.46 66.689 38.65 108.521.3 3.936 3.587 6.931 7.471 6.93.191 0 .384-.007.578-.021 4.13-.316 7.223-3.919 6.908-8.049-5.275-69.162-36.954-125.837-80.054-151.075 2.137-.171 4.278-.267 6.422-.267 64.609 0 117.172 76.933 117.172 171.496-.002 94.561-52.565 171.494-117.174 171.494z"/></g></svg>