<svg id="Capa_1" enable-background="new 0 0 511.951 511.951" height="512" viewBox="0 0 511.951 511.951" width="512" xmlns="http://www.w3.org/2000/svg"><g><g><path d="m414.434 35.836 1.216.627c6.943 3.579 7.8 19.504 2.238 41.563-3.663 14.523-27.094 73.577-27.094 73.577l27.014 15.026s26.631-62.108 31.326-80.722c12.625-50.06-3.212-68.064-18.722-76.057l-1.216-.627c-7.695-3.966-17.148-.943-21.115 6.753-3.73 7.237-.886 16.129 6.353 19.86z" fill="#b67f5f"/><path d="m54.347 459.592.326.644c1.739 3.43 3.689 6.683 5.827 9.75 22.565 32.376 66.031 42.09 102.341 23.938 77.536-38.763 194.618-114.069 258.268-244.567 21.742-40.179 34.176-75.214 41.286-102.193 6.808-25.833-2.668-52.195-24.476-65.287-4.599-2.761-9.657-4.932-15.1-6.383-24.724-6.593-50.86 3.605-64.591 25.196-30.992 48.734-87.533 133.778-129.287 174.461-30.231 29.456-84.491 54.631-131.194 72.442-44.847 17.104-65.101 69.187-43.4 111.999z" fill="#9be69d"/><path d="m437.909 81.892c7.899 13.119 10.697 29.293 6.485 45.272-7.11 26.979-19.544 62.014-41.286 102.193-63.65 130.498-182.732 207.804-260.268 246.567-27.384 13.69-58.836 10.388-82.326-5.949 22.566 32.374 66.018 44.1 102.326 25.949 77.536-38.763 196.618-116.069 260.268-246.567 21.742-40.179 34.176-75.214 41.286-102.193 6.809-25.832-4.677-52.179-26.485-65.272z" fill="#6fd7a3"/></g><g><path d="m202.209 466.003c-13.882 8.185-28.261 16.006-42.737 23.243-10.468 5.233-21.614 7.711-32.613 7.71-26.772-.002-52.641-14.692-65.512-40.085l-.325-.64c-9.359-18.466-10.449-40.13-2.99-59.439 7.487-19.379 22.931-34.746 42.374-42.161 62.941-24.003 107.943-48.927 133.755-74.077 2.967-2.891 3.028-7.64.138-10.606-2.89-2.967-7.639-3.026-10.605-.138-23.995 23.38-68.475 47.864-128.632 70.806-23.409 8.928-42.005 27.434-51.021 50.771-8.989 23.269-7.675 49.375 3.605 71.63l.325.64c15.508 30.596 46.668 48.296 78.926 48.294 13.245-.001 26.68-2.985 39.285-9.288 14.783-7.391 29.469-15.378 43.648-23.739 3.568-2.103 4.755-6.701 2.651-10.27-2.106-3.568-6.704-4.755-10.272-2.651z"/><path d="m456.44 87.57c10.726-42.714 3.122-71.096-22.609-84.36l-1.214-.625c-5.502-2.835-11.78-3.357-17.676-1.474-5.896 1.886-10.705 5.954-13.541 11.456-2.722 5.282-3.225 11.309-1.414 16.968 1.81 5.659 5.715 10.274 10.995 12.996l1.142.589c.976.936 3.382 7.205.62 23.112-24.073-1.896-47.512 9.476-60.859 30.464-23.157 36.415-67.74 104.227-106.133 149.24-2.688 3.151-2.312 7.886.839 10.573 1.413 1.205 3.143 1.794 4.864 1.794 2.12 0 4.226-.893 5.71-2.633 37.032-43.419 78.833-106.039 107.378-150.926 12.032-18.919 34.67-27.752 56.329-21.974 27.167 7.243 43.432 35.286 36.257 62.512-2.411 9.149-5.268 18.545-8.492 27.927-1.347 3.918.738 8.185 4.655 9.53 3.923 1.348 8.185-.739 9.53-4.655 3.343-9.728 6.307-19.478 8.811-28.98 5.937-22.521-.553-45.466-15.192-61.534zm-41.705-68.13c1-1.94 2.696-3.376 4.775-4.041 2.082-.663 4.297-.479 6.238.521l1.213.624c6.646 3.427 26.206 13.513 16.6 60.091-4.898-3.173-10.284-5.736-16.087-7.553 4.646-26.215-1.813-35.86-8.401-39.256l-1.218-.628c-1.72-.887-2.992-2.39-3.581-4.233-.59-1.841-.426-3.804.461-5.525z"/><path d="m446.888 199.349c-3.81-1.623-8.217.15-9.84 3.961-6.018 14.129-12.932 28.431-20.55 42.509-.051.093-.099.186-.146.281-20.837 42.721-49.458 82.988-85.068 119.685-29.171 30.06-63.202 57.931-101.148 82.84-3.463 2.272-4.427 6.923-2.154 10.385 1.44 2.194 3.835 3.386 6.277 3.386 1.412 0 2.84-.398 4.109-1.232 38.863-25.51 73.747-54.086 103.681-84.933 36.677-37.795 66.19-79.318 87.717-123.413 7.81-14.441 14.903-29.12 21.083-43.629 1.623-3.812-.15-8.217-3.961-9.84z"/></g></g></svg>