<svg id="Capa_1" enable-background="new 0 0 511.987 511.987" height="512" viewBox="0 0 511.987 511.987" width="512" xmlns="http://www.w3.org/2000/svg"><g><g><path d="m277.027 55.526c0-11.617-9.417-21.034-21.033-21.034-11.617 0-21.034 9.417-21.034 21.034v93.196h42.067z" fill="#b67f5f"/><path d="m369.868 8.568s10.297 3.184 10.044 9.283c-.686 16.483-4.825 47.9-25.139 69.716-28.689 30.811-77.771 30.806-77.771 30.806s-3.572-49.959 25.117-80.769c15.785-16.952 38.047-24.576 54.881-28.005z" fill="#bbf49b"/><path d="m369.868 7.563c-3.654.414-12.868 2.038-12.868 2.038 2.424 1.891 3.964 4.881 3.824 8.25-.686 16.483-4.825 47.9-25.139 69.716-17.036 18.296-41.617 25.726-58.775 28.743.041 1.331.093 2.063.093 2.063s50.086.005 78.775-30.806c20.314-21.816 24.453-53.233 25.139-69.716.253-6.099-4.984-10.975-11.049-10.288z" fill="#9be69d"/><path d="m332.15 105.753c-5.095 0-10.123-.712-15.069-.133-11.234 1.315-22.047 4.11-32.266 8.32-2.284.941-18.021 10.372-18.021 10.372s-5.781-2.233-10.899-2.243c-7.506-.015-15.01-1.713-21.96-5.095-16.546-8.05-34.844-12.225-54.097-12.225-74.107 0-134.184 61.675-134.184 168.914 0 126.063 88.782 188.842 150.986 217.357 14.908 6.834 30.687 11.082 46.674 12.719 24.924 2.553 50.357-2.241 73.794-12.46 62.104-27.079 148.221-87.288 148.221-217.617 0-107.238-59.072-167.909-133.179-167.909z" fill="#ed5469"/><path d="m332.15 104.749c-5.095 0-10.121.301-15.068.88 67.012 7.828 119.112 68.169 119.112 168.033 0 130.329-87.122 191.543-149.226 218.622-14.015 6.111-28.746 9.911-43.653 11.443 24.924 2.553 50.356-1.224 73.793-11.443 62.104-27.079 149.226-88.293 149.226-218.622-.001-107.238-60.077-168.913-134.184-168.913z" fill="#e63850"/></g><g><path d="m432.764 144.156c-20.56-24.405-47.793-39.957-78.238-45.058 2.388-2.044 4.648-4.177 6.738-6.421 2.691-2.89 5.229-6.053 7.544-9.4 2.356-3.407 1.504-8.079-1.902-10.435-3.408-2.357-8.08-1.504-10.435 1.902-1.904 2.753-3.985 5.348-6.185 7.71-5.312 5.705-11.897 10.679-19.582 14.812-16.146.165-31.613 3.078-46.13 8.694.865-15.694 5.049-43.931 23.033-63.246 18.61-19.986 47.524-25.933 63.103-27.699.977-.107 1.632.351 1.938.636s.813.908.772 1.887c-.293 7.039-1.299 17.842-4.429 29.338-1.088 3.997 1.27 8.119 5.267 9.207 3.999 1.085 8.119-1.27 9.207-5.267 3.496-12.843 4.618-24.846 4.943-32.655.212-5.099-1.807-10.015-5.538-13.489-3.732-3.474-8.781-5.134-13.849-4.562-17.637 1.999-50.494 8.864-72.391 32.381-5.093 5.47-9.234 11.46-12.618 17.652-2.525-13.169-14.124-23.152-28.018-23.152-15.733 0-28.534 12.8-28.534 28.534 0 4.142 3.358 7.5 7.5 7.5s7.5-3.358 7.5-7.5c0-7.462 6.071-13.534 13.534-13.534 7.462 0 13.534 6.071 13.534 13.534v50.351c-.118 2.467-.165 4.666-.171 6.534-8.764 2.892-18.141 2.875-26.897-.055v-24.137c0-4.142-3.358-7.5-7.5-7.5s-7.5 3.358-7.5 7.5v17.76c-14.963-5.796-30.934-8.731-47.621-8.731-39.399 0-75.132 16.659-100.616 46.909-26.865 31.889-41.065 76.669-41.065 129.5 0 62.673 21.274 116.623 63.232 160.35 2.868 2.989 7.616 3.086 10.604.219 2.989-2.868 3.086-7.615.219-10.604-39.186-40.839-59.055-91.294-59.055-149.964 0-49.248 12.98-90.687 37.537-119.836 22.585-26.809 54.244-41.574 89.144-41.574 18.076 0 35.172 3.859 50.814 11.469 3.61 1.757 7.343 3.097 11.138 4.066-21.965 23.431-46.205 61.685-32.668 108.149.955 3.276 3.948 5.404 7.197 5.404.694 0 1.401-.097 2.102-.301 3.977-1.159 6.261-5.322 5.102-9.299-5.946-20.407-3.841-41.089 6.255-61.472 8.638-17.439 21.688-31.648 31.759-40.958 6.772-.659 13.467-2.51 19.794-5.588 15.642-7.61 32.738-11.469 50.814-11.469 34.9 0 66.559 14.765 89.144 41.574 24.557 29.149 37.537 70.587 37.537 119.836 0 56.081-16.672 104.256-49.552 143.187-24.005 28.422-56.024 51.488-95.167 68.555-36.385 15.865-78.06 15.425-114.343-1.207-23.795-10.908-45.325-24.045-63.99-39.048-3.229-2.595-7.95-2.082-10.544 1.147-2.595 3.229-2.082 7.95 1.147 10.544 19.629 15.777 42.218 29.569 67.137 40.992 20.584 9.436 42.733 14.161 64.867 14.161 21.048 0 42.082-4.275 61.722-12.839 41.271-17.996 75.128-42.431 100.632-72.626 35.23-41.712 53.093-93.143 53.093-152.865 0-52.834-14.201-97.614-41.065-129.503z"/></g></g></svg>