<svg id="Capa_1" enable-background="new 0 0 512.153 512.153" height="512" viewBox="0 0 512.153 512.153" width="512" xmlns="http://www.w3.org/2000/svg"><g><g><path d="m491.513 230.137c13.417 14.695 13.417 37.183 0 51.878-40.351 44.195-128.927 129.361-235.437 129.361-5.035 0-10.036-.19-15-.558-10.377-.768-20.591-2.309-30.608-4.501-2.513-.55-5.01-6.861-7.498-7.491-2.513-.637-5.017 4.406-7.503 3.692-79.818-22.94-145.383-84.966-177.828-120.502-13.417-14.695-13.417-37.183 0-51.878 26.108-28.595 73.66-74.342 132.828-103.075 1.639-.796 4.453 1.783 6.109 1.014 3.319-1.541 5.505-6.387 8.893-7.812 24.691-10.383 51.149-17.516 78.723-19.138 3.939-.232 7.901-.351 11.884-.351 106.511.001 195.087 85.167 235.437 129.361z" fill="#aa91dc"/><path d="m494.513 230.137c-18.792-20.582-48.694-50.05-86.04-75.664-2.469-1.693-7.502 4.603-7.502 4.603s-4.969-12.837-7.497-14.409c-39.883-24.797-86.966-43.891-137.398-43.891-5.035 0-10.036.192-15 .559 100.053 7.402 184.994 86.696 223.437 128.801 13.417 14.696 13.417 37.183 0 51.879-38.443 42.106-123.383 121.4-223.437 128.802 4.964.367 9.965.559 15 .559 22.586 0 44.501-3.83 65.398-10.286 3.237-1 8.935-7.68 8.935-7.68s3.876 3.361 5.454 2.772c71.083-26.516 128.842-81.519 158.649-114.166 13.419-14.696 13.419-37.183.001-51.879z" fill="#9678cd"/></g><g><path d="m500.052 225.08c-20.669-22.638-54.076-55.323-95.86-82.484-50.343-32.726-100.176-49.319-148.115-49.319-14.78 0-29.951 1.607-45.092 4.778-4.054.849-6.653 4.824-5.804 8.878.85 4.055 4.828 6.652 8.878 5.804 14.132-2.959 28.269-4.46 42.018-4.46 44.19 0 90.402 15.235 137.395 45.265v90.829c0 4.143 3.357 7.5 7.5 7.5s7.5-3.357 7.5-7.5v-80.759c34.661 24.41 62.531 51.898 80.504 71.582 10.869 11.905 10.869 29.86-.001 41.766-10.174 11.144-20.957 21.988-32.05 32.232-3.043 2.811-3.231 7.555-.421 10.599 1.479 1.601 3.492 2.411 5.512 2.411 1.819 0 3.645-.658 5.087-1.99 11.404-10.532 22.49-21.682 32.949-33.139 16.135-17.671 16.135-44.322 0-61.993z"/><path d="m107.024 350.877c-36.516-25.187-65.751-54.099-83.846-73.918-10.87-11.905-10.87-29.86 0-41.766 24.319-26.635 70.194-71.178 127.293-99.759v108.936c0 4.143 3.358 7.5 7.5 7.5s7.5-3.357 7.5-7.5v-115.383c0-.18-.014-.356-.027-.533 5.933-2.575 11.962-4.975 18.094-7.133 3.907-1.375 5.96-5.657 4.585-9.564-1.376-3.908-5.66-5.96-9.564-4.584-75.392 26.533-136.652 85.262-166.458 117.907-16.134 17.671-16.134 44.321 0 61.992 18.621 20.396 48.727 50.163 86.407 76.152 1.3.896 2.783 1.327 4.251 1.327 2.383 0 4.726-1.133 6.181-3.242 2.352-3.409 1.494-8.08-1.916-10.432z"/><path d="m432.142 330.643c-26.527 21.458-53.453 38.507-80.028 50.671-5.226 2.392-10.44 4.574-15.643 6.589v-116.533c0-4.142-3.357-7.5-7.5-7.5s-7.5 3.358-7.5 7.5v121.848c-22.215 7.082-44.11 10.658-65.395 10.658-14.965 0-30.187-1.759-45.605-5.252v-55.254c0-4.142-3.358-7.5-7.5-7.5s-7.5 3.358-7.5 7.5v51.328c-20.486-6.083-41.277-15.175-62.23-27.235-3.588-2.067-8.175-.832-10.241 2.759-2.066 3.59-.831 8.175 2.759 10.241 44.284 25.489 88.129 38.413 130.318 38.413 33.187 0 67.599-8.049 102.28-23.924 27.717-12.687 55.716-30.399 83.219-52.648 3.221-2.605 3.72-7.327 1.114-10.548-2.606-3.219-7.328-3.719-10.548-1.113z"/></g></g></svg>