<svg id="Capa_1" enable-background="new 0 0 512 512" height="512" viewBox="0 0 512 512" width="512" xmlns="http://www.w3.org/2000/svg"><g><g><path d="m256.006 8.5c-5.051 0-10.055-.767-15-.311-72.916 6.721-133.125 61.968-145.06 135.48l-28.037 172.69c-16.013 98.635 60.133 188.141 160.06 188.141h28.037l28.037-1c99.927 0 175.073-88.506 159.06-187.141l-28.037-172.689c-12.745-78.498-79.535-135.17-159.06-135.17z" fill="#b67f5f"/><path d="m444.102 316.359-28.037-172.689c-12.744-78.498-80.534-136.17-160.059-136.17-5.051 0-10.054.235-15 .691 72.915 6.722 133.125 61.966 145.06 135.478l28.037 172.689c16.013 98.635-60.133 188.141-160.06 188.141h30c99.926.001 176.072-89.505 160.059-188.14z" fill="#a06e50"/></g><g><path d="m103.349 144.871c4.339-26.727 15.646-51.918 32.7-72.848 16.701-20.496 38.497-36.468 63.03-46.188 3.851-1.525 5.735-5.885 4.21-9.735-1.526-3.851-5.885-5.738-9.735-4.21-26.911 10.662-50.816 28.18-69.133 50.659-18.713 22.964-31.119 50.6-35.879 79.918l-28.037 172.69c-9.226 56.833 10.727 113.943 53.374 152.768 1.438 1.309 3.245 1.954 5.047 1.954 2.037 0 4.068-.825 5.548-2.451 2.788-3.063 2.566-7.807-.497-10.595-38.884-35.398-57.076-87.464-48.665-139.273z"/><path d="m229.078 17.346c8.842-1.557 17.901-2.346 26.927-2.346 36.683 0 72.272 13.091 100.213 36.86 27.94 23.769 46.565 56.802 52.443 93.011l22.775 140.281c.598 3.682 3.781 6.299 7.395 6.299.398 0 .804-.032 1.211-.098 4.089-.664 6.864-4.517 6.201-8.605l-22.775-140.281c-6.449-39.721-26.88-75.956-57.53-102.031-30.65-26.076-69.691-40.436-109.933-40.436-9.895 0-19.83.865-29.527 2.572-4.08.719-6.805 4.607-6.087 8.686.719 4.08 4.609 6.805 8.687 6.088z"/><path d="m451.505 315.156c-.663-4.088-4.505-6.863-8.605-6.201-4.088.664-6.864 4.517-6.201 8.605 7.28 44.838-5.427 90.398-34.861 124.997-29.435 34.599-72.37 54.443-117.795 54.443h-56.074c-27.907 0-55.203-7.467-78.938-21.594-3.559-2.119-8.163-.951-10.28 2.608-2.119 3.56-.951 8.162 2.608 10.28 26.054 15.509 56.003 23.706 86.609 23.706h56.074c49.831 0 96.93-21.769 129.22-59.723 32.29-37.955 46.229-87.933 38.243-137.121z"/><path d="m228.128 287.609c0 4.142 3.358 7.5 7.5 7.5s7.5-3.358 7.5-7.5c0-4.142-3.358-7.5-7.5-7.5-4.143.001-7.5 3.358-7.5 7.5z"/><path d="m353.554 365.191c0 4.142 3.358 7.5 7.5 7.5s7.5-3.358 7.5-7.5c0-4.142-3.358-7.5-7.5-7.5s-7.5 3.358-7.5 7.5z"/><path d="m318.628 213.544c0 4.142 3.358 7.5 7.5 7.5s7.5-3.358 7.5-7.5c0-4.142-3.358-7.5-7.5-7.5s-7.5 3.358-7.5 7.5z"/><path d="m158.457 390.296c0 4.142 3.358 7.5 7.5 7.5s7.5-3.358 7.5-7.5c0-4.142-3.358-7.5-7.5-7.5s-7.5 3.358-7.5 7.5z"/><path d="m212.628 168.355c4.142 0 7.5-3.358 7.5-7.5 0-4.142-3.358-7.5-7.5-7.5s-7.5 3.358-7.5 7.5c0 4.143 3.357 7.5 7.5 7.5z"/></g></g></svg>