<svg id="Capa_1" enable-background="new 0 0 512.006 512.006" height="512" viewBox="0 0 512.006 512.006" width="512" xmlns="http://www.w3.org/2000/svg"><g><g><path d="m279.322 74.646 2.662-61.513c.165-2.51-1.979-4.631-4.684-4.631l-17.423-1h-25.422c-2.705 0-4.849 2.12-4.684 4.631l2.662 62.513z" fill="#bbf49b"/><path d="m278.301 7.503h-20c2.705 0 4.849 2.121 4.684 4.631l-2.662 62.513h20l2.662-62.513c.165-2.51-1.98-4.631-4.684-4.631z" fill="#9be69d"/><path d="m465.078 274.918-23.948-37.532c-1.561-2.447-1.982-5.451-1.154-8.232l11.984-40.262c1.256-4.219-.395-8.763-4.066-11.192l-39.841-26.027c-2.528-1.673-4.161-4.403-4.439-7.422l-3.733-40.51c-.431-4.676-4.058-8.423-8.718-9.005l-23.811-4.101-22.29-2.786c-2.958-.37-5.596-2.039-7.196-4.554l-20.366-32.001c-2.47-3.881-7.269-5.576-11.628-4.108l-46.677 15.72c-2.071.697-4.313.697-6.383 0l-46.677-15.72c-4.36-1.468-9.158.227-11.628 4.108l-20.367 32.001c-1.6 2.515-4.239 4.184-7.196 4.554l-47.101 5.887c-4.66.582-8.287 4.329-8.718 9.005l-3.733 40.51c-.278 3.019-1.911 5.749-4.439 7.422l-40.841 27.027c-3.671 2.429-5.322 6.973-4.066 11.192l11.985 40.262c.828 2.782.407 5.786-1.154 8.232l-23.948 37.532c-2.306 3.613-2.052 8.294.63 11.637l24.547 30.596c1.835 2.288 2.574 5.266 2.02 8.146l-8.701 45.245c-.803 4.173 1.12 8.397 4.793 10.533l34.806 20.238c2.496 1.452 4.243 3.911 4.791 6.746l8.009 41.415c.808 4.177 4.17 7.386 8.381 7.997l43.544 6.326c2.485.361 4.743 1.644 6.326 3.593l27.13 33.415c2.724 3.355 7.294 4.58 11.331 3.039l39.9-15.236c2.297-.877 4.837-.877 7.135 0l39.9 15.236c4.037 1.541 8.607.316 11.331-3.039l27.13-33.415c1.583-1.949 3.841-3.232 6.326-3.593l17.589-2.555 24.954-5.77c4.21-.612 7.573-3.82 8.381-7.997l7.009-41.415c.548-2.835 2.295-5.295 4.791-6.746l34.806-19.238c3.673-2.136 5.596-6.36 4.793-10.533l-8.701-44.245c-.554-2.88.185-5.859 2.02-8.146l24.547-30.596c2.683-3.344 2.936-8.025.631-11.638z" fill="#ffd54f"/><g><path d="m466.447 286.555c2.682-3.343 2.936-8.024.63-11.637l-23.948-37.531c-1.561-2.447-1.982-5.451-1.154-8.232l11.985-40.262c1.256-4.219-.395-8.763-4.066-11.192l-40.841-27.027c-2.528-1.673-4.161-4.403-4.439-7.422l-3.733-40.51c-.431-4.676-4.058-8.423-8.718-9.005l-24.811-3.101c1.914 1.693 3.19 4.084 3.438 6.775l3.848 41.76c.287 3.112 1.97 5.926 4.576 7.651l42.101 27.86c3.784 2.504 5.486 7.188 4.191 11.538l-12.354 41.503c-.853 2.867-.419 5.964 1.19 8.486l24.687 38.689c2.377 3.725 2.115 8.549-.649 11.996l-25.304 31.539c-1.892 2.358-2.653 5.428-2.082 8.398l8.969 46.641c.827 4.302-1.154 8.656-4.941 10.858l-35.879 20.863c-2.573 1.496-4.374 4.032-4.939 6.954l-8.256 42.692c-.511 2.64-2.014 4.902-4.1 6.404l25.954-3.77c4.21-.612 7.573-3.82 8.381-7.998l8.009-41.415c.548-2.835 2.295-5.295 4.791-6.746l34.806-20.238c3.673-2.136 5.596-6.36 4.793-10.533l-8.701-45.245c-.554-2.88.185-5.858 2.02-8.146z" fill="#ffca28"/></g><g><path d="m229.769 480.139c-2.613 0-5.152-1.367-6.532-3.804l-14.413-25.438c-.108-.191-.266-.331-.422-.374l-21.637-5.925c-5.946-1.627-10.428-6.69-11.417-12.898l-5.974-37.506c-.037-.234-.135-.447-.276-.602l-20.479-22.309c-3.169-3.453-4.677-8.13-4.135-12.832l4.603-39.933c.026-.225-.004-.451-.086-.652l-13.975-34.357c-1.589-3.907-1.589-8.389 0-12.295l13.975-34.357c.082-.201.112-.427.086-.65l-4.603-39.935c-.542-4.702.965-9.379 4.135-12.832l20.48-22.311c.14-.152.238-.366.275-.6l5.973-37.506c.99-6.209 5.472-11.273 11.419-12.9l21.637-5.924c.155-.043.313-.183.421-.374l14.413-25.438c2.042-3.605 6.618-4.87 10.223-2.828 3.604 2.042 4.87 6.619 2.828 10.223l-14.413 25.437c-2.093 3.695-5.471 6.341-9.511 7.447l-21.638 5.924c-.222.061-.493.335-.565.793l-5.973 37.505c-.503 3.153-1.899 6.052-4.038 8.383l-20.482 22.313c-.216.235-.325.607-.283.97l4.603 39.935c.313 2.719-.064 5.492-1.093 8.021l-13.975 34.356c-.126.31-.126.682.001.992l13.974 34.355c1.028 2.528 1.406 5.302 1.093 8.022l-4.603 39.933c-.042.363.067.735.283.971l20.48 22.311c2.14 2.333 3.536 5.231 4.039 8.385l5.974 37.506c.073.457.344.73.564.791l21.638 5.925c4.039 1.107 7.417 3.75 9.511 7.446l14.413 25.438c2.042 3.603.776 8.181-2.828 10.223-1.167.66-2.437.975-3.69.975z" fill="#ffca28"/></g><g><path d="m282.987 480.139c-1.253 0-2.522-.314-3.69-.975-3.604-2.042-4.87-6.619-2.828-10.223l14.413-25.438c2.094-3.696 5.472-6.34 9.511-7.446l21.637-5.925c.222-.061.493-.334.565-.791l5.974-37.506c.503-3.153 1.898-6.052 4.038-8.383l20.481-22.313c.216-.235.325-.607.283-.971l-4.603-39.933c-.313-2.72.065-5.493 1.093-8.022 1.561-3.837 5.936-5.679 9.773-4.121 3.836 1.561 5.682 5.936 4.121 9.773-.082.201-.112.427-.086.652l4.603 39.933c.542 4.702-.965 9.379-4.135 12.832l-20.48 22.311c-.14.152-.238.365-.275.6l-5.974 37.506c-.989 6.208-5.471 11.271-11.418 12.899l-21.636 5.924c-.156.043-.314.183-.422.374l-14.413 25.438c-1.38 2.438-3.919 3.805-6.532 3.805z" fill="#ffca28"/></g><g><path d="m369.191 292.093c-.941 0-1.898-.179-2.824-.555-3.836-1.562-5.681-5.938-4.12-9.773l1.589-3.906c.125-.31.125-.682-.001-.992l-13.974-34.355c-1.028-2.528-1.406-5.302-1.093-8.021l4.603-39.933c.042-.363-.067-.735-.283-.971l-20.48-22.311c-2.14-2.333-3.537-5.231-4.039-8.385l-5.973-37.506c-.073-.457-.344-.731-.565-.791l-21.638-5.925c-4.04-1.106-7.418-3.752-9.512-7.448l-14.412-25.436c-2.042-3.604-.776-8.181 2.828-10.223 3.603-2.04 8.181-.776 10.223 2.828l14.413 25.437c.109.192.267.332.422.375l21.637 5.924c5.946 1.627 10.428 6.691 11.418 12.898l5.973 37.507c.037.233.135.447.277.602l20.479 22.309c3.17 3.453 4.677 8.13 4.135 12.833l-4.603 39.933c-.026.225.004.45.086.651l13.975 34.356c1.589 3.907 1.589 8.389 0 12.295l-1.59 3.907c-1.186 2.911-3.991 4.676-6.951 4.676z" fill="#ffca28"/></g></g><g><path d="m472.297 291.245c4.697-5.853 5.14-14.037 1.103-20.364l-23.948-37.532c-.39-.612-.496-1.361-.288-2.058l11.984-40.262c2.213-7.434-.646-15.306-7.115-19.587l-40.841-27.027c-.635-.42-1.04-1.097-1.11-1.855l-3.733-40.51c-.748-8.12-7.163-14.748-15.255-15.761l-47.102-5.887c-.741-.093-1.396-.507-1.798-1.138l-20.366-32.002c-4.333-6.81-12.702-9.767-20.349-7.188l-46.677 15.72c-.516.172-1.082.172-1.597 0l-16.681-5.618-1.498-35.176h37.955l-.272 6.408c-.176 4.138 3.036 7.636 7.174 7.812 4.142.193 7.636-3.036 7.812-7.175l.406-9.531c.177-3.159-.971-6.303-3.16-8.641-2.305-2.461-5.591-3.873-9.015-3.873h-43.845c-3.425 0-6.71 1.412-9.015 3.873-2.189 2.338-3.337 5.482-3.159 8.642l1.385 32.532-14.763-4.972c-7.648-2.576-16.016.379-20.35 7.188l-20.366 32.002c-.401.631-1.057 1.045-1.799 1.138l-47.102 5.887c-8.091 1.013-14.507 7.641-15.254 15.76l-3.733 40.511c-.07.758-.475 1.435-1.11 1.855l-40.841 27.027c-6.469 4.281-9.328 12.152-7.115 19.587l11.985 40.263c.207.695.102 1.444-.289 2.057l-23.947 37.532c-4.038 6.327-3.594 14.511 1.102 20.364l24.547 30.596c.46.573.644 1.315.505 2.037l-8.7 45.244c-1.403 7.293 1.968 14.701 8.388 18.434l34.804 20.238c.625.363 1.062.978 1.199 1.686l8.01 41.415c1.412 7.303 7.306 12.927 14.666 13.995l43.543 6.326c.623.091 1.185.41 1.582.898l27.131 33.415c4.778 5.885 12.744 8.022 19.829 5.318l39.899-15.236c.575-.221 1.209-.221 1.785 0l39.901 15.236c2.044.78 4.162 1.157 6.256 1.157 5.16 0 10.173-2.29 13.572-6.476l27.131-33.415c.397-.488.958-.808 1.581-.898l43.543-6.326c7.36-1.068 13.254-6.692 14.667-13.995l8.009-41.415c.137-.708.574-1.323 1.198-1.686l34.805-20.237c6.42-3.733 9.792-11.142 8.389-18.434l-8.701-45.245c-.139-.722.045-1.464.505-2.037zm-39.782 35.465 8.701 45.246c.2 1.041-.281 2.1-1.199 2.633l-34.806 20.238c-4.369 2.541-7.424 6.844-8.384 11.806l-8.009 41.415c-.202 1.043-1.044 1.846-2.096 1.999l-43.544 6.326c-4.361.634-8.293 2.867-11.069 6.287l-27.13 33.415c-.683.841-1.822 1.145-2.833.76l-39.901-15.236c-2.013-.769-4.127-1.152-6.242-1.152s-4.23.384-6.243 1.152l-39.899 15.236c-1.012.386-2.15.08-2.833-.76l-27.13-33.415c-2.777-3.42-6.708-5.653-11.07-6.287l-43.544-6.326c-1.051-.153-1.893-.956-2.095-1.999l-8.009-41.415c-.96-4.962-4.016-9.265-8.385-11.806l-34.806-20.239c-.917-.532-1.398-1.591-1.198-2.633l8.701-45.245c.971-5.049-.318-10.245-3.535-14.256l-24.547-30.596c-.67-.836-.734-2.005-.157-2.909l23.947-37.532c2.734-4.284 3.47-9.535 2.021-14.405l-11.986-40.262c-.316-1.063.092-2.186 1.017-2.798l40.84-27.027c4.448-2.943 7.279-7.677 7.769-12.987l3.733-40.512c.107-1.16 1.024-2.106 2.179-2.251l47.1-5.887c5.194-.648 9.785-3.554 12.595-7.97l20.365-32.002c.62-.973 1.814-1.392 2.907-1.026l46.677 15.72c3.602 1.213 7.569 1.213 11.171 0l46.678-15.72c1.094-.368 2.288.054 2.906 1.026l20.365 32.002c2.811 4.416 7.401 7.321 12.594 7.97l47.1 5.887c1.156.145 2.073 1.091 2.18 2.252l3.733 40.511c.49 5.311 3.321 10.044 7.768 12.987l40.841 27.027c.924.611 1.333 1.735 1.017 2.798l-11.984 40.261c-1.45 4.871-.714 10.122 2.02 14.406l23.948 37.532h.001c.577.904.513 2.073-.158 2.909l-24.547 30.596c-3.217 4.011-4.505 9.207-3.535 14.256z"/><path d="m179.773 171.273c2.14-2.331 3.537-5.23 4.04-8.386l5.973-37.505c.073-.458.344-.732.565-.793l21.638-5.924c4.039-1.106 7.417-3.75 9.511-7.446l14.413-25.438c2.042-3.604.776-8.181-2.828-10.223-3.605-2.045-8.181-.775-10.223 2.828l-14.413 25.438c-.108.191-.266.331-.422.374l-21.637 5.924c-5.947 1.627-10.429 6.69-11.419 12.899l-5.973 37.506c-.037.233-.135.446-.275.6l-20.48 22.311c-3.17 3.453-4.677 8.13-4.135 12.832l4.603 39.934c.026.225-.004.451-.086.652l-13.975 34.357c-1.587 3.907-1.587 8.388.001 12.294l13.975 34.356c.082.201.112.428.086.652l-4.603 39.933c-.542 4.702.965 9.379 4.135 12.832l20.479 22.309c.141.154.239.367.276.602l5.974 37.506c.989 6.207 5.47 11.27 11.418 12.899l21.637 5.924c.156.043.314.183.422.374l14.413 25.438c1.38 2.436 3.919 3.804 6.532 3.804 1.252 0 2.523-.315 3.69-.976 3.604-2.042 4.87-6.619 2.828-10.223l-14.413-25.437c-2.094-3.696-5.472-6.34-9.512-7.446l-21.635-5.924c-.222-.061-.494-.335-.567-.792l-5.974-37.506c-.503-3.153-1.898-6.052-4.039-8.385l-20.48-22.311c-.216-.235-.325-.607-.283-.97l4.603-39.934c.313-2.72-.064-5.493-1.093-8.021l-13.974-34.355c-.126-.311-.126-.683-.001-.992l13.975-34.357c1.028-2.528 1.406-5.302 1.092-8.02l-4.603-39.935c-.042-.362.067-.734.283-.97z"/><path d="m363.295 318.517c-.026-.226.004-.451.086-.652 1.561-3.837-.285-8.213-4.121-9.773-3.837-1.558-8.212.284-9.773 4.121-1.028 2.528-1.406 5.302-1.093 8.021l4.603 39.935c.042.361-.067.733-.283.969l-20.481 22.313c-2.139 2.331-3.535 5.23-4.038 8.383l-5.974 37.506c-.073.457-.345.732-.565.792l-21.638 5.924c-4.039 1.106-7.417 3.75-9.511 7.446l-14.413 25.438c-2.042 3.603-.776 8.181 2.828 10.223 1.168.661 2.438.976 3.69.976 2.613 0 5.152-1.367 6.532-3.804l14.413-25.438c.108-.191.266-.331.422-.374l21.639-5.924c5.946-1.63 10.427-6.692 11.415-12.899l5.974-37.506c.037-.234.135-.447.275-.6l20.48-22.31c3.17-3.453 4.677-8.13 4.135-12.831z"/><path d="m363.381 236.858c-.083-.203-.112-.43-.086-.654l4.603-39.933c.542-4.703-.965-9.38-4.135-12.833l-20.481-22.312c-.14-.152-.237-.365-.274-.599l-5.973-37.507c-.99-6.208-5.472-11.271-11.418-12.898l-21.637-5.924c-.156-.043-.314-.183-.422-.374l-14.413-25.438c-2.042-3.604-6.619-4.868-10.223-2.828-3.604 2.042-4.87 6.619-2.828 10.223l14.413 25.438c2.094 3.696 5.472 6.34 9.512 7.446l21.638 5.925c.221.06.492.334.565.791l5.973 37.506c.503 3.155 1.9 6.055 4.039 8.385l20.48 22.31c.216.235.325.608.283.971l-4.603 39.934c-.314 2.718.065 5.491 1.093 8.021l13.974 34.354c.127.312.127.684.001.993l-1.589 3.906c-1.561 3.836.284 8.212 4.12 9.773.926.376 1.883.555 2.824.555 2.96 0 5.765-1.765 6.949-4.676l1.59-3.907c1.588-3.905 1.588-8.386 0-12.295z"/></g></g></svg>