<svg id="Capa_1" enable-background="new 0 0 512 512" height="512" viewBox="0 0 512 512" width="512" xmlns="http://www.w3.org/2000/svg"><g><g><path d="m209.7 87.921c10.649.735 20.34 20.257 25.292 50.947 3.26 20.207 5.803 106.989 5.803 106.989l42.029 4.243s-1.186-92.347-5.364-118.245c-11.237-69.65-40.943-85.217-64.73-86.858l-1.87-.047c-11.621-.289-21.364 8.716-21.989 20.324-.631 11.723 8.265 21.782 19.977 22.589z" fill="#b67f5f"/><path d="m381.278 8.5c6.148-.223 10.044 4.108 9.251 10.208-2.335 17.979-7.226 50.654-31.86 73.166-34.146 31.203-88.998 28.766-88.998 28.766s.51-55.029 34.656-86.232c17.598-16.081 40.694-22.695 58.948-25.33 3.35-.483 6.538-.826 9.498-1.072 3.11-.257 5.97.587 8.505.494z" fill="#bbf49b"/><path d="m381.278 7.506c-2.534.092-5.396.244-8.504.502.121 19.129-.051 47.675-26.81 69.187-54.263 43.623-76.293 43.446-76.293 43.446s54.852 3.431 88.998-27.772c24.634-22.512 30.519-56.181 32.854-74.16.793-6.101-4.097-11.426-10.245-11.203z" fill="#9be69d"/><path d="m447.308 371.232c-18.261-20.351-32.465-44.001-40.82-70.036l-30.667-95.563c-16.848-52.502-64.682-87.118-119.82-87.118-5.031 0-10.008-.698-14.914-.119-48.868 5.763-90.589 39.525-105.9 87.237l-30.667 95.563c-8.355 26.035-22.559 49.685-40.82 70.036-13.055 14.549-20.851 33.911-20.397 55.101.911 42.532 35.552 77.202 78.083 78.146 21.637.48 41.373-7.643 56.03-21.184 6.943-6.415 17.634-6.174 24.603.214 14.22 13.035 33.172 20.99 53.984 20.99 20.811 0 39.763-7.955 53.984-20.99 6.968-6.388 17.659-6.629 24.603-.214 10.765 9.946 24.269 16.968 39.255 19.806 5.418 1.026 11.029.511 16.775.383 42.531-.944 76.178-34.62 77.089-77.152.45-21.188-7.347-40.551-20.401-55.1z" fill="#ed5469"/><path d="m448.302 371.232c-18.261-20.35-32.465-44.001-40.82-70.036l-30.667-95.562c-16.848-52.502-65.676-88.112-120.814-88.112-5.031 0-10.007.304-14.913.882 48.867 5.764 90.59 39.518 105.901 87.23l30.667 95.562c8.355 26.035 22.559 49.685 40.82 70.036 13.055 14.549 20.851 33.912 20.397 55.101-.816 38.081-28.679 69.84-65.028 76.751 5.419 1.027 11.025 1.523 16.771 1.395 42.531-.944 77.172-35.614 78.083-78.146.454-21.189-7.342-40.552-20.397-55.101z" fill="#e63850"/></g><g><path d="m132.894 212.775c3.94 1.263 8.167-.906 9.433-4.85 15.913-49.588 61.595-82.904 113.673-82.904 52.079 0 97.761 33.316 113.673 82.904l30.667 95.563c5.083 15.838 12.38 31.206 21.689 45.676 1.434 2.229 3.849 3.443 6.314 3.443 1.39 0 2.796-.386 4.051-1.193 3.483-2.241 4.491-6.882 2.25-10.365-8.602-13.371-15.337-27.551-20.021-42.144l-30.667-95.564c-11.556-36.011-37.071-64.378-69.457-79.99 16.369-4.084 34.522-11.506 49.23-24.946 8.057-7.362 14.901-16.421 20.342-26.924 1.905-3.678.469-8.204-3.209-10.109-3.68-1.905-8.204-.47-10.109 3.209-4.626 8.93-10.394 16.585-17.143 22.752-21.488 19.637-52.406 24.491-69.667 25.605-2.03-.427-4.071-.822-6.13-1.157 1.711-15.794 8.075-50.362 31.574-71.836 16.66-15.224 39.083-21.151 54.96-23.443 5.458-.787 11.086-1.278 17.204-1.5.986-.027 1.636.488 1.926.804.281.309.734.972.609 1.938-.55 4.232-1.466 10.684-3.078 17.824-.911 4.041 1.625 8.056 5.665 8.968 4.045.91 8.055-1.625 8.968-5.665 1.749-7.75 2.732-14.667 3.32-19.195.66-5.088-.942-10.181-4.398-13.973-3.467-3.804-8.396-5.873-13.557-5.69-6.658.242-12.808.779-18.802 1.645-17.961 2.592-43.46 9.419-62.936 27.217-15.632 14.284-24.677 32.889-29.917 49.694-12.805-25.576-31.603-39.364-56.107-41.054-.108-.008-.218-.013-.328-.016l-1.871-.047c-15.814-.356-28.814 11.651-29.664 27.419-.846 15.721 11.244 29.392 26.952 30.475l.851.059c2.476.171 7.606 5.624 12.275 19.108-43.546 11.496-79.134 44.33-93.415 88.83-1.266 3.943.906 8.166 4.85 9.432zm77.32-132.337-.852-.059c-7.578-.522-13.411-7.118-13.003-14.703.41-7.607 6.689-13.415 14.312-13.229l1.7.042c24.127 1.733 40.88 18.795 51.189 52.115-.281 2.017-.503 3.886-.684 5.61-2.281-.115-4.571-.193-6.876-.193-6.686 0-13.271.511-19.73 1.458-6.4-19.607-15.342-30.301-26.056-31.041z"/><path d="m453.884 366.223c-2.767-3.084-7.509-3.341-10.591-.573-3.083 2.767-3.34 7.508-.573 10.591 12.314 13.724 18.877 31.456 18.482 49.932-.399 18.63-7.943 36.22-21.241 49.528-13.299 13.309-30.882 20.867-49.51 21.28-18.891.392-36.923-6.396-50.774-19.194-9.81-9.063-24.754-8.98-34.761.194-13.379 12.265-30.75 19.019-48.915 19.019s-35.536-6.754-48.916-19.019c-10.007-9.174-24.95-9.257-34.76-.194-13.851 12.796-31.879 19.611-50.774 19.194-18.628-.413-36.211-7.971-49.509-21.28-13.299-13.31-20.843-30.898-21.242-49.528-.396-18.476 6.168-36.208 18.482-49.932 19.659-21.908 33.918-46.386 42.38-72.752l20.682-64.446c1.266-3.944-.906-8.168-4.85-9.434-3.941-1.262-8.167.905-9.434 4.85l-20.682 64.446c-7.813 24.343-21.021 46.991-39.261 67.318-14.867 16.568-22.792 37.973-22.313 60.27.482 22.513 9.583 43.753 25.627 59.81s37.277 25.175 59.788 25.674c22.786.517 44.563-7.724 61.286-23.173 4.026-3.722 10.238-3.622 14.444.233 16.153 14.808 37.125 22.962 59.052 22.962s42.898-8.154 59.051-22.962c4.208-3.854 10.417-3.956 14.445-.233 16.724 15.45 38.486 23.679 61.286 23.173 22.512-.499 43.745-9.617 59.788-25.674 16.044-16.057 25.145-37.297 25.627-59.809.478-22.298-7.447-43.703-22.314-60.271z"/></g></g></svg>