<svg id="Capa_1" enable-background="new 0 0 512.017 512.017" height="512" viewBox="0 0 512.017 512.017" width="512" xmlns="http://www.w3.org/2000/svg"><g><g><path d="m32.025 479.992c-2.942-2.942-6.474-5.188-8.867-8.438-23.27-31.61-20.603-76.33 8.001-104.934l129.784-129.784 13.107-11.376 12.864-14.594 47.623-47.623 114.238 114.237-47.623 47.623-156.62 154.889c-31.546 31.546-80.961 31.546-112.507 0z" fill="#9be69d"/><path d="m331.47 260.176-11.422-11.421c-4.71 3.415-10.466 5.271-16.443 5.123l-7.041-.174c-14.672-.364-26.924 11.108-27.526 25.773l-.534 13.025c-.227 5.536-2.528 10.783-6.445 14.701-4.799 5.555-6.852 12.332-6.507 18.914.308 5.882-1.671 11.651-5.836 15.815l-121.623 121.621c-28.605 28.605-73.324 31.27-104.933 8 2.393 3.25 5.058 6.363 8 9.304 31.546 31.546 82.692 31.546 114.238 0l129.784-129.784 73.593-73.593z" fill="#6fd7a3"/><path d="m160.944 236.835c.502.917.971 1.855 1.365 2.833l.001.001c6.894 17.096 28.558 22.339 42.506 10.288 4.597-3.972 10.404-6.269 16.473-6.518l11.253-.462c14.664-.601 26.136-12.853 25.773-27.526l-.174-7.042c-.148-5.977 1.707-11.733 5.123-16.443l-28.726-28.726z" fill="#6fd7a3"/><path d="m303.465 154.243-7.882 5.502c-7.397 5.163-11.711 13.692-11.487 22.709l.174 7.041c.364 14.672-11.108 26.924-25.773 27.526l-11.252.461c-6.07.249-11.876 2.546-16.473 6.518-13.949 12.051-35.612 6.808-42.506-10.287l-.001-.001c-2.272-5.634-6.385-10.332-11.669-13.329l-9.797-5.556c-12.766-7.241-17.366-23.383-10.333-36.265l3.374-6.18c4.323-7.918 4.386-17.475.169-25.45l-4.494-8.496c-6.345-11.998-2.752-26.843 8.377-34.611l7.882-5.502c7.397-5.163 11.711-13.692 11.487-22.709l-.174-7.041c-.363-14.672 11.108-26.924 25.773-27.526l11.253-.461c6.07-.249 11.876-2.546 16.473-6.518 13.949-12.051 35.612-6.808 42.506 10.288v.001c2.272 5.634 6.385 10.332 11.669 13.329l9.797 5.556c12.767 7.241 17.366 23.383 10.333 36.265l-3.374 6.18c-4.323 7.918-4.386 17.475-.169 25.45l4.493 8.496c6.347 11.996 2.753 26.842-8.376 34.61z" fill="#3ec3a4"/><path d="m357.773 208.551-5.502 7.882c-5.163 7.397-13.692 11.711-22.709 11.487l-7.041-.174c-14.672-.364-26.924 11.108-27.526 25.773l-.461 11.252c-.249 6.07-2.546 11.876-6.518 16.473-12.051 13.948-6.808 35.612 10.288 42.506l.001.001c5.634 2.272 10.332 6.385 13.329 11.669l2.569 4.53 3.852 4.401c7.241 12.766 21.652 17.366 34.535 10.333l6.18-3.374c7.918-4.323 19.206-4.386 27.18-.169l7.631 3.628c11.998 6.345 25.978 3.617 33.746-7.512l5.502-7.882c5.163-7.397 13.692-11.711 22.709-11.487l7.042.174c14.672.363 26.924-11.108 27.526-25.773l.461-11.252c.249-6.07 2.546-11.876 6.518-16.473 12.051-13.948 6.808-33.881-10.288-40.776l-.001-.001c-.631-.255-.386-1.398-.992-1.697-4.808-2.376-8.81-6.145-11.471-10.837l-5.556-9.797c-4.06-7.158-10.919-11.749-18.432-13.161-2.24-.42-4.499-.555-6.777-.403-3.763.254-7.532 1.307-11.056 3.231l-6.18 3.374c-7.918 4.323-17.475 4.386-25.45.169l-8.497-4.493c-11.998-6.344-26.843-2.751-34.612 8.378z" fill="#3ec3a4"/><path d="m490.971 303.156.462-11.252c.249-6.07 2.546-11.876 6.518-16.473 12.051-13.948 6.808-35.612-10.288-42.506l-.002-.001c-.631-.255-1.247-.54-1.854-.84 2.827 8.547 1.407 18.439-5.162 26.043-3.972 4.597-6.269 10.404-6.518 16.473l-.462 11.252c-.601 14.665-12.853 26.136-27.526 25.773l-7.041-.174c-9.018-.223-17.546 4.091-22.71 11.487l-5.502 7.882c-7.768 11.129-22.614 14.722-34.611 8.377l-8.496-4.494c-7.974-4.217-17.532-4.154-25.45.169l-6.18 3.374c-7.005 3.824-14.971 4.202-21.948 1.705l2.987 5.266c7.241 12.766 23.383 17.366 36.265 10.333l6.18-3.374c7.918-4.322 17.475-4.386 25.45-.168l8.496 4.494c11.998 6.345 26.843 2.752 34.611-8.377l5.502-7.882c5.163-7.397 13.692-11.711 22.709-11.487l7.041.174c14.676.363 26.928-11.109 27.529-25.774z" fill="#0bb494"/><path d="m62.617 449.4c-11.207-11.207-11.207-29.377 0-40.584l246.748-246.748 40.584 40.584-246.748 246.747c-11.207 11.207-29.377 11.207-40.584.001z" fill="#bbf49b"/><path d="m241.18 230.253c.015 1.78-.117 3.567-.412 5.342v.002c-3.482 20.964 14.688 39.135 35.652 35.652 1.776-.295 3.563-.427 5.344-.412l68.185-68.185-40.584-40.584z" fill="#9be69d"/><path d="m415.809 220.301-11.061.681c-10.38.639-19.748 6.441-24.944 15.449l-4.057 7.034c-8.454 14.658-27.102 19.825-41.895 11.61l-11.351-6.304c-6.123-3.4-13.217-4.627-20.126-3.479-20.964 3.482-39.135-14.688-35.653-35.652v-.002c1.147-6.909-.079-14.003-3.479-20.125l-6.304-11.352c-8.215-14.793-3.047-33.441 11.611-41.894l7.032-4.056c9.009-5.196 14.811-14.564 15.45-24.944l.681-11.06c.961-15.618 13.413-28.069 29.031-29.03l11.061-.681c10.38-.639 19.748-6.441 24.944-15.45l4.057-7.034c8.454-14.657 27.102-19.825 41.895-11.61l11.351 6.304c6.123 3.4 13.217 4.627 20.126 3.479 5.885-.978 11.551-.249 16.578 1.769 6.159 2.472 10.495 7.743 13.974 13.317 3.798 6.085 5.542 13.561 4.235 21.431v.002c-1.148 6.909.079 14.003 3.479 20.125l6.304 11.352c8.215 14.793 2.182 32.575-12.476 41.029l-6.167 3.191c-9.009 5.196-14.811 14.564-15.45 24.944l-.681 11.06c-.149 2.423.29 5.636-.381 7.876-3.655 12.195-14.589 21.208-27.784 22.02z" fill="#9be69d"/><path d="m444.84 191.271.681-11.06c.639-10.38 6.441-19.748 15.45-24.944l7.032-4.056c14.658-8.454 19.826-27.102 11.611-41.894l-6.304-11.352c-3.4-6.123-4.626-13.216-3.479-20.125v-.002c2.505-15.079-6.193-28.712-19.075-33.882 2.018 5.028 2.748 10.693 1.77 16.578v.002c-1.147 6.909.079 14.002 3.479 20.125l6.304 11.352c8.215 14.793 3.047 33.441-11.611 41.894l-7.032 4.056c-9.009 5.196-14.811 14.564-15.45 24.944l-.681 11.06c-.961 15.618-13.413 28.07-29.031 29.031l-11.061.681c-10.38.639-19.748 6.441-24.944 15.449l-4.057 7.034c-8.454 14.657-27.102 19.825-41.895 11.61l-11.351-6.304c-6.123-3.4-13.217-4.627-20.126-3.479-5.885.978-11.55.248-16.578-1.77 5.171 12.882 18.803 21.579 33.882 19.075 6.909-1.148 14.003.079 20.126 3.479l11.351 6.304c14.793 8.215 33.441 3.048 41.895-11.61l4.057-7.034c5.196-9.008 14.564-14.811 24.944-15.449l11.061-.681c15.619-.963 28.071-13.415 29.032-29.032z" fill="#6fd7a3"/></g><path d="m511.025 249.77c-2.643-10.923-10.137-19.598-20.56-23.802-4.045-1.631-7.458-4.618-9.609-8.412l-5.557-9.798c-4.999-8.815-13.352-14.754-22.932-16.706l.638-10.381c.486-7.891 4.864-14.958 11.712-18.907l7.032-4.056c18.091-10.435 24.56-33.776 14.42-52.033-2.012-3.62-6.576-4.927-10.198-2.915-3.621 2.011-4.926 6.577-2.915 10.198 6.188 11.142 2.24 25.388-8.801 31.756l-7.032 4.056c-11.22 6.471-18.393 18.052-19.188 30.979l-.681 11.061c-.728 11.818-10.189 21.278-22.007 22.006l-11.061.681c-12.928.796-24.508 7.97-30.98 19.189l-4.058 7.034c-6.368 11.041-20.613 14.988-31.756 8.8l-11.351-6.304c-5.589-3.104-11.889-4.747-18.241-4.828-.078-.002-.156-.007-.234-.006-2.178-.014-4.361.154-6.522.513-7.574 1.258-15.031-1.135-20.46-6.563-5.43-5.43-7.822-12.889-6.564-20.464.358-2.157.527-4.335.514-6.508.001-.093-.004-.187-.007-.28-.085-6.342-1.729-12.629-4.827-18.207l-6.304-11.352c-6.188-11.143-2.239-25.388 8.802-31.756l7.031-4.056c11.22-6.472 18.394-18.053 19.188-30.981l.681-11.061c.729-11.818 10.189-21.278 22.007-22.005l11.061-.681c12.928-.796 24.509-7.969 30.979-19.188l4.058-7.034c6.368-11.04 20.615-14.986 31.756-8.801l11.351 6.304c7.573 4.205 16.45 5.738 24.996 4.321 7.575-1.254 15.033 1.135 20.462 6.563 5.43 5.429 7.821 12.887 6.563 20.462-.679 4.086 2.083 7.948 6.17 8.627 4.086.678 7.948-2.084 8.627-6.17 2.061-12.41-1.857-24.63-10.754-33.525-8.895-8.897-21.116-12.816-33.525-10.754-5.219.864-10.634-.07-15.256-2.638l-11.35-6.304c-18.258-10.138-41.599-3.671-52.033 14.42l-4.058 7.034c-3.948 6.848-11.017 11.225-18.907 11.711l-10.375.637c-1.952-9.573-7.899-17.933-16.712-22.931l-9.797-5.558c-3.794-2.15-6.782-5.563-8.414-9.609-.007-.018-.014-.035-.021-.053-4.21-10.391-12.873-17.865-23.776-20.504-10.922-2.641-22.064.054-30.567 7.4-3.3 2.851-7.518 4.519-11.877 4.698l-11.252.462c-12.034.493-23.08 7.382-28.829 17.979-1.975 3.641-.625 8.193 3.016 10.169s8.194.626 10.169-3.017c3.244-5.979 9.473-9.865 16.259-10.143l11.252-.462c7.732-.317 15.214-3.278 21.069-8.336 4.793-4.141 11.077-5.661 17.231-4.172 6.157 1.49 11.047 5.714 13.415 11.588.008.019.015.036.022.055 2.899 7.153 8.19 13.188 14.903 16.994l9.797 5.557c5.133 2.912 8.54 7.848 9.522 13.472-12.44 5.823-21.263 18.094-22.151 32.511l-.68 11.061c-.486 7.891-4.864 14.959-11.712 18.908l-7.031 4.056c-18.091 10.434-24.56 33.775-14.421 52.033l6.304 11.352c1.425 2.565 2.327 5.378 2.718 8.264l-8.403 8.403-4.066.167c-7.731.317-15.214 3.278-21.069 8.337-4.793 4.141-11.073 5.661-17.23 4.172-6.157-1.49-11.048-5.715-13.418-11.59-.473-1.174-1.033-2.304-1.631-3.413-.073-.143-.155-.283-.237-.423-3.057-5.483-7.569-10.099-13.057-13.212l-9.796-5.557c-9.147-5.188-12.489-16.917-7.45-26.147l3.375-6.181c5.544-10.154 5.624-22.322.215-32.55l-4.494-8.495c-4.567-8.636-1.97-19.365 6.04-24.956l7.882-5.502c5.399-3.769 9.582-8.978 12.097-15.063 1.581-3.828-.239-8.214-4.067-9.796-3.828-1.578-8.213.239-9.796 4.067-1.418 3.431-3.776 6.368-6.819 8.492l-7.882 5.502c-14.209 9.918-18.815 28.949-10.714 44.269l4.494 8.495c3.049 5.766 3.003 12.625-.122 18.35l-3.374 6.181c-8.939 16.373-3.01 37.18 13.216 46.382l9.796 5.557c1.537.872 2.932 1.959 4.168 3.202l-151.209 151.205c-16.673 16.674-25.856 38.842-25.856 62.423 0 23.58 9.183 45.749 25.856 62.423 16.673 16.673 38.842 25.855 62.422 25.855s45.749-9.183 62.422-25.855l40.89-40.89c2.929-2.93 2.929-7.678 0-10.607-2.928-2.928-7.677-2.928-10.606 0l-40.89 40.89c-13.84 13.841-32.242 21.463-51.815 21.463s-37.975-7.622-51.815-21.463c-13.841-13.841-21.464-32.243-21.464-51.816s7.623-37.976 21.463-51.815l148.549-148.549c4.729 6.825 11.753 11.682 20.098 13.702 2.747.665 5.509.992 8.239.992 3.908 0 7.749-.677 11.394-1.985l-167.429 167.428c-14.113 14.113-14.113 37.077-.001 51.191 7.058 7.057 16.325 10.585 25.595 10.585 9.268-.001 18.539-3.529 25.595-10.585l167.435-167.433c-2.223 6.192-2.615 12.954-.997 19.637 2.02 8.344 6.877 15.369 13.701 20.098l-84.545 84.546c-2.929 2.93-2.929 7.678 0 10.607 1.464 1.464 3.384 2.196 5.303 2.196s3.839-.732 5.303-2.196l87.205-87.205c1.243 1.236 2.33 2.631 3.201 4.167l5.557 9.798c9.203 16.225 30.009 22.154 46.384 13.215l6.179-3.374c5.726-3.124 12.585-3.17 18.351-.121l8.495 4.493c5.09 2.691 10.589 3.98 16.027 3.98 10.931 0 21.617-5.206 28.24-14.694l5.502-7.882c3.733-5.348 9.867-8.424 16.373-8.282l7.043.175c18.651.493 34.44-14.325 35.205-32.964l.462-11.253c.178-4.358 1.847-8.576 4.698-11.877 7.347-8.503 10.044-19.643 7.4-30.564zm-413.128 194.326c-8.265 8.264-21.713 8.265-29.978.001-8.264-8.266-8.264-21.713 0-29.978l191.636-191.635c1.473 7.255 5.053 13.984 10.523 19.454s12.199 9.05 19.453 10.523zm394.378-173.568c-5.06 5.855-8.02 13.339-8.337 21.069l-.462 11.252c-.431 10.508-9.359 18.814-19.845 18.583l-7.043-.175c-11.53-.279-22.423 5.205-29.044 14.692l-5.502 7.882c-5.591 8.011-16.317 10.609-24.956 6.04l-8.495-4.493c-10.228-5.41-22.396-5.329-32.552.216l-6.179 3.374c-9.228 5.036-20.961 1.697-26.147-7.449l-5.557-9.798c-3.11-5.484-7.721-9.992-13.199-13.05-.145-.086-.289-.17-.438-.245-1.108-.598-2.239-1.157-3.412-1.631-5.875-2.369-10.1-7.259-11.589-13.416-1.49-6.157.03-12.438 4.172-17.23 5.058-5.855 8.019-13.338 8.336-21.069.048-1.167-.182-2.278-.617-3.282l9.187-9.187c2.885.391 5.698 1.293 8.263 2.717l11.35 6.304c5.855 3.252 12.232 4.796 18.541 4.796 13.359-.001 26.404-6.927 33.492-19.215l4.058-7.034c3.949-6.847 11.018-11.226 18.907-11.711l11.06-.682c14.417-.886 26.689-9.71 32.512-22.153 5.626.978 10.559 4.391 13.471 9.524l5.557 9.798c3.817 6.73 9.872 12.031 17.049 14.926 5.875 2.369 10.099 7.259 11.589 13.416 1.491 6.157-.029 12.438-4.17 17.231z"/></g></svg>