<svg id="Capa_1" enable-background="new 0 0 512.003 512.003" height="512" viewBox="0 0 512.003 512.003" width="512" xmlns="http://www.w3.org/2000/svg"><g><g><path d="m479.981 235.268c-6.634 14.482-28.009 20.266-36.023 32.473-8.966 13.659-6.24 35.659-16.129 45.81-11.982 12.299-33.621 9.106-45.578 15.119-16.042 8.068-31.111 24.258-43.922 18.389-12.812-5.869-10.392-27.854-14.759-45.272-3.255-12.982-19.805-27.284-18.315-44.39 1.229-14.118 19.671-26.42 24.159-42.13 4.012-14.041-5.567-34.006 1.067-48.487s28.009-20.266 36.023-32.473c8.966-13.659 6.24-35.659 16.129-45.81 11.982-12.299 33.621-9.106 45.578-15.119 16.042-8.068 31.111-24.258 43.922-18.389 12.812 5.869 10.392 27.854 14.759 45.272 3.255 12.982 19.805 27.284 18.315 44.39-.154 1.765-.576 3.501-1.207 5.219-4.414 12.027-19.025 23.164-22.952 36.911-4.012 14.041 5.567 34.005-1.067 48.487z" fill="#3ec3a4"/><path d="m149.401 67.994c-7.624-2.22-15.604 2.16-17.825 9.784l-6.452 22.155-8.972-36.632c-2.047-8.356-10.479-13.471-18.835-11.424l-1.783.437c-8.356 2.047-13.471 10.48-11.424 18.836l8.972 36.632-15.962-16.666c-5.492-5.735-14.594-5.931-20.329-.439-5.735 5.492-5.931 14.594-.439 20.328l56.75 59.257 9.934-9.514 13.206 3.846 22.943-78.776c2.22-7.623-2.16-15.603-9.784-17.824z" fill="#bbf49b"/><path d="m165.258 412.897-95.053-216.315c-9.569-21.775 2.832-46.913 25.934-52.571l43.015-10.536c23.102-5.658 45.716 10.903 47.293 34.635l15.672 235.757c1.432 21.524-28.183 28.777-36.861 9.03z" fill="#ffaa5f"/><path d="m139.155 133.476-14.96 3.664c23.102-5.658 45.716 10.903 47.293 34.635l15.672 235.757c.495 7.45-2.732 13.186-7.52 16.689 11.079 1.688 23.416-6.28 22.48-20.353l-15.672-235.757c-1.578-23.732-24.191-40.294-47.293-34.635z" fill="#ff8c5a"/><path d="m448.805 214.694c-4.522 15.273-24.866 24.019-31.074 37.237-6.947 14.789-1.14 36.183-9.496 47.629-10.124 13.868-31.998 13.764-42.985 21.406-14.742 10.253-27.372 28.409-40.884 24.409-13.513-4.001-14.222-26.107-21.006-42.733-5.056-12.392-23.46-24.213-24.402-41.358-.777-14.15 15.741-28.934 17.965-45.12 1.988-14.467-10.315-32.879-5.793-48.152s24.866-24.019 31.074-37.236c6.947-14.789 1.14-36.183 9.496-47.629 10.124-13.868 31.998-13.764 42.985-21.406 14.742-10.253 27.372-28.409 40.884-24.409 13.513 4.001 14.222 26.107 21.006 42.733 5.056 12.392 23.46 24.213 24.402 41.358.777 14.15-15.741 28.934-17.965 45.12-1.987 14.466 10.315 32.877 5.793 48.151z" fill="#9be69d"/><path d="m443.013 166.542c2.224-16.187 18.743-30.971 17.965-45.12-.942-17.145-19.346-28.966-24.402-41.358-6.783-16.627-7.493-38.733-21.005-42.733-4.884-1.446-9.652.011-14.446 2.934 8.599 7.557 9.979 25.657 15.749 39.8 5.056 12.392 23.46 24.213 24.402 41.358.778 14.15-15.741 28.934-17.965 45.12-1.988 14.467 10.315 32.879 5.793 48.152s-24.866 24.019-31.074 37.236c-6.947 14.789-1.14 36.183-9.496 47.629-10.124 13.868-31.998 13.764-42.985 21.406-9.414 6.548-17.967 16.31-26.438 21.475 1.51 1.327 3.238 2.336 5.257 2.934 13.512 4.001 26.142-14.155 40.884-24.409 10.987-7.642 32.861-7.537 42.985-21.406 8.356-11.446 2.549-32.84 9.496-47.629 6.209-13.217 26.552-21.963 31.074-37.236 4.52-15.275-7.782-33.686-5.794-48.153z" fill="#6fd7a3"/><path d="m341.447 288.424c0 40.256-49.596 75.026-77.391 91.351-11.316 6.646-25.358 6.646-36.673 0-27.795-16.325-77.391-51.095-77.391-91.351 0-55.928 42.859-80.696 95.728-80.696s95.727 24.769 95.727 80.696z" fill="#ed5469"/><path d="m245.719 207.728c-2.13 0-4.242.045-6.337.125 49.914 1.925 79.391 26.896 79.391 80.571 0 40.256-39.596 75.026-67.391 91.351-3.765 2.211-7.832 3.682-12 4.422 8.359 1.484 17.123.013 24.674-4.422 27.795-16.325 77.391-51.095 77.391-91.351 0-55.927-42.859-80.696-95.728-80.696z" fill="#e63850"/><path d="m281.922 127.684c0 30.33-36.203 85.598-36.203 85.598s-36.203-55.268-36.203-85.598 16.209-54.918 36.203-54.918 36.203 24.588 36.203 54.918z" fill="#9be69d"/><path d="m331.012 194.169c-22.231 17.139-85.293 19.113-85.293 19.113s17.955-60.485 40.186-77.623 50.35-17.934 62.806-1.777c12.456 16.158 4.532 43.149-17.699 60.287z" fill="#bbf49b"/><path d="m160.425 194.169c22.231 17.139 85.293 19.113 85.293 19.113s-17.955-60.485-40.186-77.623-50.35-17.934-62.806-1.777c-12.455 16.158-4.531 43.149 17.699 60.287z" fill="#bbf49b"/><path d="m402.816 475.238h-295.23c-24.36 0-44.108-19.748-44.108-44.108v-153.48h383.445v153.48c0 24.361-19.747 44.108-44.107 44.108z" fill="#eaf9fa"/><path d="m417.37 277.65v153.48c0 24.36-19.748 44.108-44.108 44.108h29.554c24.36 0 44.108-19.748 44.108-44.108v-153.48z" fill="#d4f2f6"/></g><g><path d="m446.121 393.768c-4.143 0-7.5 3.357-7.5 7.5v29.879c0 20.185-16.422 36.608-36.607 36.608h-271.058c-4.142 0-7.5 3.357-7.5 7.5 0 4.142 3.357 7.5 7.5 7.5h271.058c28.456 0 51.607-23.151 51.607-51.608v-29.879c0-4.143-3.357-7.5-7.5-7.5z"/><path d="m93.538 270.166h-86.038c-4.143 0-7.5 3.357-7.5 7.5s3.357 7.5 7.5 7.5h47.676v145.98c0 24.626 17.518 45.927 41.654 50.647.486.096.97.141 1.447.141 3.515 0 6.652-2.482 7.353-6.061.795-4.064-1.855-8.005-5.921-8.8-17.112-3.348-29.533-18.457-29.533-35.927v-145.98h368.445v83.263c0 4.143 3.357 7.5 7.5 7.5s7.5-3.357 7.5-7.5v-83.263h47.677c4.143 0 7.5-3.357 7.5-7.5s-3.357-7.5-7.5-7.5h-50.576c3.032-3.549 7.923-6.786 13.064-10.186 8.291-5.483 17.688-11.697 22.211-21.572 4.523-9.874 3.093-21.049 1.831-30.907-.907-7.081-1.763-13.769-.37-18.644 1.712-5.994 6.473-12.061 11.077-17.928 4.552-5.801 9.26-11.8 11.705-18.461.882-2.405 1.433-4.811 1.637-7.151 1.13-12.979-5.574-23.755-11.49-33.262-.742-1.192-1.476-2.371-2.182-3.537-2.145-3.546-6.758-4.679-10.299-2.533-3.544 2.145-4.679 6.756-2.533 10.299.737 1.219 1.503 2.45 2.278 3.696 4.905 7.884 9.979 16.037 9.282 24.033-.09 1.035-.345 2.111-.776 3.288-1.627 4.434-5.414 9.259-9.423 14.367-5.24 6.679-11.18 14.247-13.7 23.068-2.239 7.84-1.145 16.395-.085 24.668 1.105 8.63 2.148 16.78-.589 22.757-2.737 5.976-9.592 10.508-16.849 15.307-6.957 4.601-14.15 9.358-18.625 16.174-1.286 1.958-2.421 4.122-3.433 6.524h-12.835c.404-5.514 1.13-10.84 3.099-15.031 2.155-4.588 7.197-9.063 12.536-13.803 7.434-6.599 15.858-14.078 18.941-24.493 3.084-10.414.089-21.275-2.554-30.858-1.897-6.881-3.69-13.381-3.001-18.401.85-6.176 4.705-12.855 8.434-19.313 4.978-8.62 10.125-17.534 9.591-27.241-.715-13.011-8.875-22.731-16.075-31.308-3.785-4.509-7.36-8.768-8.871-12.471-.451-1.106-.876-2.255-1.283-3.433 1.43-.931 2.841-1.869 4.227-2.793 8.931-5.95 17.363-11.575 22.545-9.199 4.259 1.951 5.928 8.825 7.371 20.04.487 3.783 3.713 6.543 7.429 6.543.319 0 .643-.021.968-.063 4.107-.528 7.01-4.288 6.48-8.396-1.41-10.956-3.342-25.961-16-31.761-12.785-5.857-25.15 2.385-37.11 10.354-.096.064-.193.128-.289.192-3.529-12.662-7.85-24.932-20.158-28.576-13.489-3.994-24.561 5.914-35.272 15.493-3.929 3.512-7.99 7.145-12.023 9.949-3.283 2.283-8.601 3.909-14.23 5.631-10.709 3.274-22.847 6.985-30.53 17.51-5.732 7.852-6.27 18.132-6.79 28.073-.142 2.704-.299 5.448-.551 8.118-9.758.706-19.728 3.965-28.943 9.387-1.192-33.368-19.93-59.035-43.64-59.035-23.711 0-42.449 25.667-43.641 59.035-9.991-5.879-20.87-9.214-31.402-9.512-4.388-.12-8.561.286-12.46 1.181l8.057-27.663c3.335-11.456-2.716-23.402-13.776-27.196-5.722-1.961-11.827-1.513-17.188 1.268-4.025 2.088-7.297 5.399-9.362 9.385l-2.51-10.245c-3.026-12.359-15.548-19.953-27.907-16.924l-.89.219c-12.85 3.148-20.743 16.164-17.597 29.015l2.31 9.43c-8.193-5.699-19.306-5.384-26.974 1.297-4.563 3.976-7.226 9.486-7.498 15.519-.268 5.947 1.939 11.823 6.055 16.121l27.04 28.233c-5.766 4.276-10.517 9.893-13.78 16.509-5.999 12.159-6.311 26.252-.855 38.665zm243.418-182.583c4.735-6.487 13.919-9.295 22.801-12.01 6.786-2.075 13.195-4.035 18.409-7.661 4.784-3.328 9.193-7.269 13.457-11.082 7.998-7.151 15.547-13.913 21.016-12.292 5.461 1.616 8.12 11.397 10.936 21.753 1.501 5.52 3.053 11.226 5.254 16.622 2.399 5.881 6.709 11.015 11.271 16.449 5.972 7.113 12.146 14.468 12.587 22.486.288 5.25-3.546 11.889-7.603 18.918-4.244 7.351-9.055 15.682-10.305 24.77-1.109 8.077 1.184 16.391 3.4 24.431 2.314 8.388 4.498 16.31 2.632 22.613s-8.011 11.758-14.518 17.533c-6.237 5.537-12.687 11.263-16.153 18.643-3.154 6.713-4.085 14.278-4.56 21.409h-59.02c-4.601-25.744-19.23-45.339-42.333-57.176 11.978-3.009 23.156-7.156 30.562-12.865 11.997-9.248 20.688-21.443 24.475-34.338 4.037-13.751 2.114-26.702-5.415-36.467-5.211-6.759-12.575-11.306-21.369-13.333.257-2.82.406-5.631.551-8.393.423-8.104.823-15.762 3.925-20.01zm-154.554 144.945c1.208-.456 2.239-1.201 3.038-2.135 7.747-5.12 17.509-9.316 29.758-12.048 15.779 1.982 28.324 2.414 29.485 2.45.077.003.154.004.233.004h.001.001.001.001c.077 0 .156-.001.233-.004 1.161-.036 13.706-.468 29.484-2.449 38.257 8.531 52.196 31.386 56.632 51.821h-172.7c2.82-13.005 9.499-26.986 23.833-37.639zm137.981-102.729c.375-.011.746-.016 1.115-.016 8.891 0 16.132 3.065 20.472 8.695 4.52 5.862 5.55 14.061 2.901 23.083-2.9 9.878-9.733 19.355-19.24 26.685-13.858 10.684-49.083 15.379-70.218 16.959 6.074-17.64 17.264-45.218 29.324-58.86.064-.067.125-.137.187-.206 1.575-1.761 3.163-3.295 4.758-4.524 9.507-7.329 20.41-11.525 30.701-11.816zm-75.466-49.516c15.559 0 28.702 21.715 28.702 47.418 0 2.89-.414 6.275-1.232 10.081-11.607 13.947-21.307 36.05-27.47 52.376-6.164-16.326-15.864-38.428-27.471-52.376-.818-3.806-1.232-7.191-1.232-10.081 0-25.704 13.144-47.418 28.703-47.418zm-75.467 49.516c10.291.291 21.194 4.487 30.701 11.816 1.562 1.205 3.119 2.704 4.663 4.422.095.111.193.219.294.324 12.043 13.642 23.233 41.211 29.311 58.847-5.452-.406-11.845-1.022-18.565-1.893-.128-.018-.255-.04-.385-.051-19.226-2.515-41.039-7.134-51.267-15.018-9.507-7.329-16.34-16.807-19.239-26.685-2.648-9.022-1.618-17.22 2.901-23.083 4.521-5.862 12.211-8.947 21.586-8.679zm-108.484-23.965c-1.313-1.371-1.988-3.171-1.902-5.069.085-1.896.926-3.63 2.366-4.886 2.719-2.369 7.095-2.041 9.753.734l15.679 16.372c2.349 2.451 6.049 3.02 9.025 1.388 2.976-1.634 4.483-5.063 3.677-8.359l-8.753-35.739c-1.181-4.817 1.779-9.697 6.599-10.878l.889-.219c4.324-1.061 8.707 1.598 9.767 5.924l8.972 36.632c.808 3.297 3.729 5.641 7.123 5.714 3.365.042 6.414-2.142 7.363-5.401l6.452-22.153c.53-1.823 1.752-3.309 3.439-4.184 1.683-.874 3.606-1.013 5.415-.395 3.412 1.171 5.314 5.125 4.24 8.813l-11.885 40.807c-.096.328-.159.658-.209.987-.029.03-.056.062-.086.091-.76-.054-1.541.004-2.32.195l-43.016 10.535c-.796.195-1.584.413-2.364.648zm20.315 99.151 39.872-10.463c4.007-1.052 6.402-5.152 5.352-9.158-1.053-4.007-5.152-6.404-9.158-5.352l-42.048 11.034c-2.604-7.692-2.083-16.101 1.547-23.459 4.032-8.175 11.423-14.107 20.276-16.275l32.321-7.916c-1.532 6.903-1.184 14.514 1.128 22.391 3.785 12.895 12.477 25.09 24.474 34.338 7.406 5.709 18.585 9.857 30.562 12.865-3.409 1.747-6.632 3.663-9.666 5.742l-35.486 8.753c-4.021.992-6.477 5.057-5.486 9.078.844 3.419 3.906 5.706 7.276 5.706.595 0 1.199-.071 1.802-.22l11.43-2.819c-6.013 8.962-10.126 19.324-12.201 30.936h-33.351z"/></g></g></svg>