<svg id="Capa_1" enable-background="new 0 0 512.028 512.028" height="512" viewBox="0 0 512.028 512.028" width="512" xmlns="http://www.w3.org/2000/svg"><g><g><path d="m10.46 413.594c-6.272 10.864-2.18 24.736 8.949 30.524 70.807 36.829 151.274 57.648 236.604 57.648s165.797-20.819 236.604-57.648c11.129-5.789 10.221-19.66 3.949-30.524l-224.885-387.913c-15.127-26.2-32.908-7.535-34.701-4.429z" fill="#bbf49b"/><path d="m501.567 413.594-32.679-56.58-3.337-1.125-192.502-334.637c-7.325-12.687-22.157-14.38-32.035-5.098 1.531 1.438 2.9 3.132 4.035 5.098l226.519 392.342c6.272 10.864 2.18 24.736-8.949 30.524-66.643 34.664-141.845 55.138-221.604 57.427 4.983.143 9.982.221 15 .221 85.33 0 165.797-20.819 236.604-57.648 11.128-5.789 15.221-19.66 8.948-30.524z" fill="#9be69d"/><path d="m42.476 358.142c65.025 29.777 137.341 46.381 213.538 46.381s144.513-16.604 209.538-46.381l-194.503-336.89c-8.46-14.653-25.61-14.653-34.07 0z" fill="#ed5469"/><path d="m275.047 21.248c-.248-.429-.508-.843-.777-1.246-.088-.132-.181-.258-.271-.387-.187-.268-.375-.534-.571-.79-.111-.146-.226-.286-.339-.427-.185-.23-.372-.458-.564-.678-.123-.141-.248-.28-.374-.418-.193-.211-.389-.416-.589-.617-.13-.131-.259-.262-.392-.389-.21-.201-.425-.395-.642-.586-.127-.113-.253-.228-.382-.337-.254-.214-.515-.418-.777-.619-.097-.074-.191-.154-.289-.226-.357-.264-.72-.515-1.09-.755-.122-.079-.247-.15-.37-.226-.254-.157-.508-.313-.767-.459-.165-.093-.334-.179-.501-.268-.221-.117-.443-.233-.667-.342-.184-.089-.369-.174-.555-.258-.212-.096-.426-.188-.641-.277-.196-.081-.393-.16-.591-.235-.207-.078-.416-.152-.624-.224s-.415-.144-.624-.209c-.198-.062-.398-.116-.598-.172-.222-.062-.443-.128-.666-.183-.154-.038-.31-.068-.464-.103-.535-.12-1.074-.222-1.616-.302-.116-.017-.231-.039-.347-.054-.281-.037-.563-.064-.845-.09-.141-.013-.281-.029-.422-.039-.283-.021-.566-.034-.849-.044-.137-.005-.275-.01-.412-.013-.291-.005-.581-.005-.872.001-.123.003-.246.007-.368.011-.307.012-.613.027-.92.051-.087.007-.174.016-.262.024-1.911.173-3.803.589-5.62 1.253-.032.012-.065.023-.097.035-.346.128-.689.267-1.029.413-.043.018-.085.037-.128.055-.342.15-.681.308-1.017.475-.025.012-.049.025-.074.038-1.803.911-3.5 2.084-5.03 3.522 1.531 1.438 2.9 3.132 4.035 5.098l199.774 346.041c8.125-3.228 16.151-6.654 24.066-10.278l-14.836-25.717-179.004-310.045c-.001-.002-.002-.003-.002-.004z" fill="#e63850"/></g><g><path d="m130.327 286.56c0 4.142 3.358 7.5 7.5 7.5s7.5-3.358 7.5-7.5c0-4.142-3.358-7.5-7.5-7.5-4.142.001-7.5 3.358-7.5 7.5z"/><path d="m248.514 286.56c0 4.142 3.358 7.5 7.5 7.5s7.5-3.358 7.5-7.5c0-4.142-3.358-7.5-7.5-7.5-4.142.001-7.5 3.358-7.5 7.5z"/><path d="m366.701 286.56c0 4.142 3.358 7.5 7.5 7.5s7.5-3.358 7.5-7.5c0-4.142-3.358-7.5-7.5-7.5-4.142.001-7.5 3.358-7.5 7.5z"/><path d="m189.42 193.663c0 4.142 3.358 7.5 7.5 7.5s7.5-3.358 7.5-7.5c0-4.142-3.358-7.5-7.5-7.5s-7.5 3.358-7.5 7.5z"/><path d="m307.607 193.663c0 4.142 3.358 7.5 7.5 7.5s7.5-3.358 7.5-7.5c0-4.142-3.358-7.5-7.5-7.5s-7.5 3.358-7.5 7.5z"/><path d="m356.526 484.283c-32.866 6.624-66.683 9.983-100.512 9.983-41.253 0-82.281-4.977-121.947-14.794-38.521-9.533-75.933-23.666-111.196-42.008-3.567-1.855-6.15-4.997-7.273-8.846-1.114-3.822-.632-7.826 1.358-11.274 2.071-3.587.842-8.174-2.745-10.245-3.586-2.073-8.175-.843-10.245 2.745-4.057 7.026-5.04 15.185-2.768 22.974 2.279 7.815 7.518 14.192 14.751 17.954 36.315 18.889 74.844 33.444 114.516 43.261 40.843 10.108 83.084 15.233 125.55 15.233 34.822 0 69.636-3.458 103.475-10.279 4.061-.818 6.69-4.773 5.871-8.834-.82-4.06-4.782-6.692-8.835-5.87z"/><path d="m508.063 409.844-119.53-207.033c-2.07-3.588-6.66-4.817-10.245-2.745-3.587 2.071-4.816 6.658-2.745 10.245l83.357 144.378c-64.049 28.09-132.26 42.333-202.885 42.333s-138.838-14.242-202.886-42.332l190.346-329.688c2.617-4.534 7.305-7.24 12.54-7.24 5.234 0 9.922 2.707 12.539 7.24l90.645 157.002c2.07 3.587 6.659 4.817 10.245 2.745 3.587-2.071 4.816-6.658 2.745-10.245l-90.645-157.002c-5.328-9.229-14.872-14.74-25.529-14.74-10.658 0-20.202 5.511-25.53 14.74l-210.182 364.044c-2.071 3.587-.842 8.174 2.745 10.245 1.182.682 2.471 1.006 3.743 1.006 2.592 0 5.113-1.345 6.502-3.751l12.288-21.283c66.398 29.372 137.158 44.26 210.433 44.26s144.035-14.888 210.433-44.26l28.626 49.582c1.99 3.448 2.473 7.452 1.358 11.274-1.123 3.849-3.706 6.991-7.273 8.846-32.442 16.874-66.772 30.214-102.034 39.649-4.002 1.071-6.377 5.182-5.307 9.184.897 3.353 3.928 5.564 7.24 5.564.642 0 1.294-.083 1.943-.257 36.316-9.717 71.67-23.455 105.079-40.832 7.233-3.762 12.472-10.139 14.751-17.954 2.273-7.79 1.289-15.949-2.767-22.975z"/></g></g></svg>