<svg id="Capa_1" enable-background="new 0 0 511.997 511.997" height="512" viewBox="0 0 511.997 511.997" width="512" xmlns="http://www.w3.org/2000/svg"><g><g><path d="m323.328 121.193-22.33-1-112.341 1c-21.17 0-40.859 5.862-57.508 18.937-26.743 21.002-49.105 48.543-62.677 80.215-10.725 25.028-16.584 52.636-16.389 81.636.758 112.613 91.735 202.752 204.35 202.517 32.747-.068 62.428-8.856 89.467-22.64 65.787-33.536 111.018-101.567 111.018-181.28 0-64.958-30.378-122.813-77.698-160.154-16.748-13.216-34.556-19.231-55.892-19.231z" fill="#bbf49b"/><path d="m386.332 151.062c-16.749-13.217-41.668-28.869-63.004-28.869l-30-2c21.335 0 42.144 7.015 58.893 20.231 47.32 37.34 77.698 95.196 77.698 160.154 0 107.612-83.36 195.744-189.027 203.373 5.129.372 10.312.558 15.541.547 112.422-.235 203.486-91.443 203.486-203.92 0-28.419-5.814-55.479-16.318-80.056-13.505-31.599-30.651-48.456-57.269-69.46z" fill="#9be69d"/><path d="m379.221 140.424c-16.749-13.217-37.557-19.231-58.893-19.231l-27-1h-104.67c-21.452 0-42.34 7.132-59.158 20.45-26.438 20.937-47.557 48.291-61.019 79.706h258.022c2.751 0 5.293-1.468 6.669-3.85l15.915-27.565c2.964-5.134 10.374-5.134 13.338 0l15.915 27.565c1.376 2.383 3.918 3.85 6.669 3.85h55.516c-13.51-31.525-34.735-58.959-61.304-79.925z" fill="#ffd54f"/><path d="m382.221 140.424c-16.749-13.217-37.557-20.231-58.893-20.231h-30c21.335 0 42.144 7.014 58.893 20.231 26.569 20.965 47.794 48.399 61.303 79.925h30c-13.509-31.525-34.734-58.959-61.303-79.925z" fill="#ffca28"/><path d="m69.652 82.989c-2.466 3.781.205 9.306 4.587 9.484 2.156.088 4.593.173 7.26.245 22.437.607 61.17.274 85.703-7.627 22.693-7.309 51.475-26.967 69.804-40.628 3.841-2.863 6.223-5.462 8.994-7.63 3.454-2.702 2.399-7.747-1.81-9.379l-89.829-18.518c-5.557-1.121-12.105-.061-16.703 2.875-3.976 2.539-7.081 5.602-10.266 9.03z" fill="#ed5469"/><path d="m245.189 27.455-90.828-19.519c-5.557-1.121-12.105-.061-16.703 2.875-1.533.979-2.959 2.166-4.245 3.55l-6.021 6.48c4.421-2.185 10.078-2.891 14.969-1.904l90.828 19.519c2.767 1.073 4.16 3.62 3.815 6.007 3.837-2.86 7.227-5.463 9.995-7.628 3.455-2.703 2.4-7.748-1.81-9.38z" fill="#e63850"/></g><path d="m386.867 134.536c-17.751-14.008-40.165-21.75-63.153-21.836l10.37-89.877c.123-1.061.805-1.61 1.2-1.843.395-.231 1.205-.562 2.193-.153l77.244 31.963c3.825 1.584 8.214-.235 9.797-4.062 1.584-3.828-.234-8.214-4.063-9.798l-77.243-31.964c-5.105-2.112-10.768-1.719-15.534 1.085-4.765 2.803-7.86 7.56-8.494 13.052l-10.568 91.589h-119.958c-1.554 0-3.105.041-4.652.111l-7.452-23.138c26.585-10.622 57.909-33.504 75.066-46.924 3.724-2.912 5.517-7.557 4.796-12.426-.731-4.943-3.995-9.102-8.517-10.854-.398-.154-.809-.274-1.228-.359l-42.533-8.578c-4.061-.822-8.016 1.809-8.834 5.869-.819 4.061 1.809 8.016 5.869 8.835l38.534 7.772c-15.868 12.241-49.693 36.865-74.805 44.952-25.112 8.088-66.95 7.833-86.98 7.153l60.984-65.64c3.379-3.636 8.105-5.159 12.972-4.177l17.294 3.487c4.058.818 8.015-1.81 8.834-5.87s-1.809-8.016-5.869-8.834l-17.294-3.487c-9.951-2.006-20.017 1.235-26.925 8.671l-63.76 68.628c-.291.313-.555.65-.788 1.009-2.648 4.061-2.87 9.342-.58 13.783 2.256 4.374 6.422 7.1 11.144 7.291 6.281.255 13.979.463 22.424.463 20.818 0 46.149-1.269 65.917-6.17l6.556 20.357c-15.837 3.07-30.77 9.763-43.313 19.615-9.474 7.439-18.374 15.747-26.455 24.691-2.776 3.074-2.536 7.816.538 10.593 3.073 2.775 7.816 2.537 10.593-.538 7.511-8.314 15.783-16.036 24.589-22.95 15.055-11.824 34.188-18.336 53.875-18.336h134.671c19.766 0 39.031 6.612 54.247 18.619 23.181 18.292 41.527 41.033 54.262 66.537h-46.83c-.071 0-.139-.039-.174-.1l-15.914-27.566c-2.749-4.759-7.67-7.6-13.165-7.6-5.495.001-10.416 2.842-13.163 7.601l-15.916 27.566c-.035.061-.102.099-.173.099h-246.283c3.327-6.652 7.04-13.138 11.139-19.422 2.264-3.469 1.286-8.116-2.184-10.379s-8.116-1.285-10.379 2.184c-22.663 34.739-34.493 75.127-34.214 116.8.381 56.46 22.559 109.323 62.45 148.853 39.78 39.421 92.664 61.114 148.959 61.113h.457c38.963-.081 77.023-10.852 110.063-31.148 3.529-2.168 4.633-6.787 2.465-10.316s-6.786-4.632-10.316-2.465c-30.686 18.851-66.041 28.854-102.242 28.93-.145 0-.281 0-.425 0-52.311-.002-101.452-20.152-138.402-56.768-37.054-36.719-57.654-85.834-58.008-138.299-.173-25.61 4.581-50.695 13.907-74.082h253.012c5.414 0 10.459-2.913 13.164-7.6l15.915-27.565c.045-.077.058-.1.174-.101.116 0 .131.026.174.101l15.915 27.566c2.707 4.687 7.751 7.599 13.163 7.599h53.543c9.062 22.788 13.868 47.379 13.868 72.729 0 57.249-24.905 111.525-68.329 148.913-3.139 2.703-3.493 7.438-.79 10.577 1.483 1.723 3.579 2.606 5.686 2.606 1.733 0 3.475-.597 4.891-1.816 46.737-40.24 73.542-98.66 73.542-160.28.001-65.126-29.358-125.646-80.551-166.041z"/></g></svg>