<svg id="Capa_1" enable-background="new 0 0 511.988 511.988" height="512" viewBox="0 0 511.988 511.988" width="512" xmlns="http://www.w3.org/2000/svg"><g><g><path d="m127.906 282.117s-6.108-103.435-46.358-120.396c-4.243-1.788-8.404 2.734-6.415 6.886 7.969 16.631 21.945 57.082 16.205 134.296z" fill="#bbf49b"/><path d="m155.154 406.244s-77.045-73.186-118.256-57.311c-4.196 1.616-4.396 7.478-.298 9.328 15.989 7.216 51.92 28.582 100.322 88.219z" fill="#bbf49b"/><path d="m384.082 282.117s6.108-103.435 46.358-120.396c4.243-1.788 8.404 2.734 6.415 6.886-7.969 16.631-21.535 57.315-15.796 134.528z" fill="#9be69d"/><path d="m356.833 406.244s77.045-73.186 118.255-57.311c4.196 1.616 4.396 7.478.298 9.328-15.989 7.216-51.92 28.582-100.322 88.219z" fill="#9be69d"/><path d="m207.521 104.751c-1.196 5.986 48.327 2.534 48.327 2.534s11.188-68.003-61.883-98.376c-2.832-1.177-5.561-.645-6.574 1.692-.608 1.403-.597 3.092.379 4.651 11.02 17.6 27.335 51.538 19.751 89.499z" fill="#bbf49b"/><path d="m303.811 104.751c1.196 5.986-48.327 2.534-48.327 2.534s-9.552-64.767 56.283-96.429c2.124-1.021 3.316-.998 5.599-1.947 4.532-1.884 8.799 3.194 6.195 7.354-11.018 17.599-27.333 50.527-19.75 88.488z" fill="#bbf49b"/><path d="m193.966 7.898c-2.91-1.21-5.7.455-6.643 2.901 65.967 31.641 56.406 96.486 56.406 96.486s-9.846.672-20.742.909c14.475.416 33.872-.909 33.872-.909s10.178-69.013-62.893-99.387z" fill="#9be69d"/><path d="m318.376 7.898c-2.24.931-4.401 1.9-6.487 2.901.525 1.363.484 2.965-.448 4.453-11.019 17.6-27.333 51.538-19.75 89.498.455 2.277-6.578 3.188-15.465 3.443 13.79.299 29.263-.099 28.595-3.443-7.583-37.961 8.732-71.898 19.75-89.498 2.604-4.159-1.663-9.237-6.195-7.354z" fill="#9be69d"/><path d="m347.558 139.833c-11.289-34.745-41.647-56.249-78.18-56.249l-26.413-2.02c-36.533 0-68.911 23.524-80.2 58.269-5.498 16.92-14.458 32.447-25.908 46.064-28.439 33.823-45.928 79.693-45.928 130.242 0 99.433 67.595 180.871 153.264 187.867 3.956.323 7.951-.523 11.979-.523 91.261 0 163.223-83.319 163.223-187.344 0-50.549-17.49-96.42-45.928-130.242-11.451-13.617-20.411-29.143-25.909-46.064z" fill="#ed5469"/><path d="m375.486 185.897c-11.45-13.617-20.41-29.143-25.908-46.064-11.289-34.745-43.667-58.269-80.2-58.269h-26.413c-.645 0-1.285.024-1.927.039 35.739.812 57.183 24.098 68.273 58.23 5.498 16.921 14.458 32.447 25.908 46.064 28.439 33.823 45.928 79.693 45.928 130.243 0 98.208-55.943 178.847-140.109 187.56 4.985.516 10.031.794 15.134.794 91.261 0 165.243-84.329 165.243-188.354-.001-50.549-17.49-96.42-45.929-130.243z" fill="#e63850"/><path d="m384.437 316.14c0 76.872-52.047 139.888-118.165 145.758-3.333.296-6.701.447-10.1.447-70.839 0-128.265-65.458-128.265-146.205s57.426-146.205 128.265-146.205c3.399 0 6.767.151 10.1.447 66.117 5.87 118.165 68.886 118.165 145.758z" fill="#eaf9fa"/></g><g><path d="m305.624 172.938c-15.753-6.974-32.392-10.509-49.453-10.509-74.861 0-135.765 68.952-135.765 153.705s60.904 153.705 135.765 153.705 135.766-68.952 135.766-153.705c0-49.321-21.122-95.982-56.5-124.82-3.211-2.617-7.935-2.135-10.552 1.075-2.617 3.211-2.136 7.935 1.075 10.552 31.92 26.019 50.977 68.333 50.977 113.193 0 76.482-54.175 138.705-120.766 138.705-66.59 0-120.765-62.223-120.765-138.705s54.175-138.705 120.765-138.705c14.957 0 29.553 3.104 43.382 9.225 3.787 1.678 8.217-.033 9.893-3.822 1.677-3.788-.034-8.217-3.822-9.894z"/><path d="m477.785 341.929c-13.366-5.149-30.54-3.021-51.176 6.302 1.52-10.512 2.306-21.236 2.306-32.097 0-4.269-.131-8.517-.371-12.744.009-.271.016-.542-.004-.816-5.558-74.765 7.062-113.999 15.079-130.731 2.281-4.759 1.396-10.309-2.254-14.139-3.606-3.783-9.039-4.921-13.836-2.899-13.785 5.809-25.151 20.165-33.899 42.745-3.845-5.711-7.976-11.219-12.403-16.485-11.207-13.329-19.456-27.983-24.516-43.556-7.814-24.048-24.774-43.084-46.301-53.813.372-28.024 12.838-52.203 20.518-64.47 2.912-4.651 2.484-10.592-1.065-14.783-3.54-4.18-9.312-5.578-14.365-3.477-33.343 13.86-50.569 35.301-59.334 55.53-8.742-20.155-25.936-41.653-59.319-55.53-5.053-2.1-10.825-.704-14.365 3.476-3.549 4.191-3.978 10.132-1.065 14.784 2.962 4.73 5.684 9.677 8.091 14.702 1.789 3.735 6.268 5.313 10.004 3.524s5.313-6.268 3.524-10.004c-1.527-3.188-3.17-6.349-4.912-9.451 30.423 14.932 43.185 37.415 48.361 56.06h-3.518c-9.066 0-17.879 1.329-26.239 3.809-.373-6.007-1.215-12.086-2.522-18.174-.87-4.049-4.858-6.628-8.908-5.757-4.049.87-6.627 4.858-5.757 8.908 1.51 7.029 2.303 14.021 2.391 20.853-21.525 10.729-38.484 29.765-46.298 53.812-5.06 15.572-13.308 30.226-24.516 43.555-4.514 5.369-8.721 10.989-12.63 16.821-8.764-22.775-20.173-37.244-34.026-43.081-4.799-2.023-10.231-.885-13.836 2.899-3.65 3.83-4.535 9.38-2.254 14.138 7.596 15.852 19.916 51.969 16.465 119.303-.925 8.232-1.406 16.574-1.406 24.989 0 10.932.808 21.725 2.369 32.289-20.824-9.485-38.139-11.679-51.595-6.494-4.754 1.832-7.918 6.302-8.061 11.389-.142 5.066 2.753 9.688 7.374 11.773 15.706 7.088 48.801 27.132 93.987 81.73.062.076.133.14.197.213 15.817 19.997 35.354 36.449 57.759 47.854 3.69 1.878 8.208.411 10.086-3.282 1.879-3.691.41-8.207-3.282-10.086-57.002-29.016-93.835-93.934-93.835-165.387 0-4.244.132-8.466.386-12.664.002-.029.003-.059.005-.088 1.828-30.048 10.107-58.751 24.043-83.903.132-.213.252-.432.362-.657 5.582-9.978 12.051-19.395 19.372-28.103 12.457-14.814 21.642-31.157 27.3-48.573 10.317-31.753 39.681-53.087 73.068-53.087h26.413c33.387 0 62.75 21.334 73.067 53.087 5.659 17.417 14.845 33.759 27.3 48.573 28.483 33.876 44.169 78.416 44.169 125.416 0 99.723-70.763 180.854-157.743 180.854-11.285 0-22.546-1.373-33.473-4.081-4.02-.999-8.087 1.454-9.084 5.475s1.455 8.087 5.476 9.084c12.106 3 24.582 4.522 37.081 4.522 46.329 0 89.827-20.499 122.483-57.722 3.499-3.989 6.818-8.127 9.974-12.386 43.211-51.026 74.83-70.012 89.844-76.788 4.622-2.085 7.517-6.707 7.375-11.773-.143-5.086-3.307-9.557-8.061-11.388zm-392.764-169.428c9.11 7.296 17.083 21.655 23.375 42.164-3.677 6.861-6.962 13.959-9.853 21.25-2.515-30.011-8.347-50.483-13.522-63.414zm-39.181 181.916c10.984-1.318 25.825 2.956 43.529 12.554 2.056 8.651 4.624 17.103 7.678 25.298-21.94-20.416-39.418-31.709-51.207-37.852zm220.015-280.359c5.207-18.77 18.016-41.165 48.355-56.055-8.588 15.244-17.158 36.036-18.603 59.861-8.357-2.478-17.166-3.806-26.229-3.806zm161.112 98.443c-5.132 12.823-10.906 33.074-13.454 62.676-2.88-7.183-6.148-14.174-9.793-20.936 6.271-20.28 14.199-34.493 23.247-41.74zm-11.294 219.099c2.976-8.088 5.461-16.405 7.45-24.904 17.482-9.406 32.151-13.582 43.026-12.278-11.589 6.042-28.827 17.148-50.476 37.182z"/><path d="m158.169 320c0 4.142 3.358 7.5 7.5 7.5s7.5-3.358 7.5-7.5c0-4.142-3.358-7.5-7.5-7.5s-7.5 3.358-7.5 7.5z"/><path d="m263.669 320c0-4.142-3.358-7.5-7.5-7.5s-7.5 3.358-7.5 7.5c0 4.142 3.358 7.5 7.5 7.5s7.5-3.357 7.5-7.5z"/><path d="m354.169 320c0-4.142-3.358-7.5-7.5-7.5s-7.5 3.358-7.5 7.5c0 4.142 3.358 7.5 7.5 7.5s7.5-3.357 7.5-7.5z"/><path d="m256.169 202.001c-4.142 0-7.5 3.358-7.5 7.5s3.358 7.5 7.5 7.5c4.142 0 7.5-3.358 7.5-7.5 0-4.143-3.358-7.5-7.5-7.5z"/><path d="m256.169 423c-4.142 0-7.5 3.358-7.5 7.5s3.358 7.5 7.5 7.5c4.142 0 7.5-3.358 7.5-7.5s-3.358-7.5-7.5-7.5z"/><path d="m217.792 264.75c0-4.142-3.358-7.5-7.5-7.5s-7.5 3.358-7.5 7.5c0 4.142 3.358 7.5 7.5 7.5s7.5-3.357 7.5-7.5z"/><path d="m308.292 264.75c0-4.142-3.358-7.5-7.5-7.5s-7.5 3.358-7.5 7.5c0 4.142 3.358 7.5 7.5 7.5s7.5-3.357 7.5-7.5z"/><path d="m210.292 367.75c-4.142 0-7.5 3.358-7.5 7.5 0 4.142 3.358 7.5 7.5 7.5s7.5-3.358 7.5-7.5c0-4.142-3.358-7.5-7.5-7.5z"/><path d="m300.792 367.75c-4.142 0-7.5 3.358-7.5 7.5 0 4.142 3.358 7.5 7.5 7.5s7.5-3.358 7.5-7.5c0-4.142-3.358-7.5-7.5-7.5z"/></g></g></svg>