<svg id="Capa_1" enable-background="new 0 0 512.005 512.005" height="512" viewBox="0 0 512.005 512.005" width="512" xmlns="http://www.w3.org/2000/svg"><g><g><path d="m71.558 147.053c-5.903-7.129-1.813-18.002 7.325-19.473 7.261-1.169 16.28-2.256 26.458-2.713 21.577-.97 48.366 1.886 74.675 11.782 58.82 22.126 90.968 74.059 90.968 74.059s-32.858 11.277-75.236 6.82c-13.788-1.45-28.371-4.46-42.811-9.892-38.719-14.564-66.745-42.91-81.379-60.583z" fill="#bbf49b"/><path d="m180.017 135.651c-26.311-9.897-53.097-11.751-74.675-10.781 17.125.787 36.039 3.755 54.717 10.781 42.004 15.8 71.424 47.818 84.813 64.834 4.146 5.269 1.234 13.052-5.356 14.282-7.96 1.486-18.992 3.073-31.884 3.652 36.818 1.697 65.349-6.713 65.349-6.713s-34.145-53.929-92.964-76.055z" fill="#9be69d"/><path d="m178.778 22.854c-1.416-4.851.345-9.545 3.696-12.438 2.787-2.406 6.674-2.569 10.749-1.537 22.242 5.633 59.873 18.782 89.646 47.504 45.228 43.632 54.196 104.682 54.196 104.682s-7.192.003-19.785-3.298c-22.434-5.882-58.841-19.085-87.809-47.031-29.773-28.722-44.265-65.857-50.693-87.882z" fill="#bbf49b"/><path d="m262.911 55.384c38.168 36.82 51.223 87.467 54.369 102.382 12.593 3.302 20.783 4.296 20.783 4.296s-9.966-63.046-55.194-106.678c-29.773-28.722-67.404-41.871-89.646-47.504-4.074-1.032-7.958.133-10.745 2.54 22.5 6.701 54.457 19.905 80.433 44.964z" fill="#9be69d"/><path d="m287.458 413.817c0 50.084-30.668 89.687-70.962 89.687-3.003 0-5.964.772-8.871.334-36.109-5.441-64.086-43.67-64.086-90.021 0-45.876 27.406-83.795 62.977-89.844 3.263-.555 6.595.156 9.98.156 40.294.001 70.962 39.604 70.962 89.688z" fill="#6fd7a3"/><path d="m432.997 337.294c20.024 45.907 7.315 95.183-29.618 111.293-10.922 4.764-22.652 7.005-34.275 5.205-27.68-4.286-54.752-25.829-68.854-58.16-20.024-45.907-6.317-96.181 30.616-112.291 4.616-2.014 9.378-3.398 14.214-4.19 5.492-.899 11.055-.035 16.596.542 28.613 2.983 56.642 23.949 71.321 57.601z" fill="#6fd7a3"/><g fill="#3ec3a4"><path d="m216.497 323.132c-3.386 0-6.716.293-9.979.848 35.571 6.049 62.978 43.962 62.978 89.837s-27.407 83.788-62.978 89.837c3.263.555 6.593.848 9.979.848 40.293 0 72.957-40.601 72.957-90.685s-32.664-90.685-72.957-90.685z"/><path d="m433.995 337.294c-17.503-40.128-54.986-63.635-88.812-58.158 27.68 4.286 54.752 25.827 68.854 58.158 20.024 45.907 6.317 96.181-30.616 112.291-4.649 2.028-9.445 3.416-14.317 4.205 11.623 1.8 23.353.559 34.275-4.205 36.933-16.11 50.64-66.384 30.616-112.291z"/></g></g><path d="m440.853 334.298c-10.365-23.765-27.633-42.899-48.621-53.879-18.375-9.613-37.719-12.038-55.418-7.125-7.299-24.264-19.759-77.78 3.577-100.834 23.97-14.041 51.29-26.201 81.86-36.395 3.93-1.31 6.053-5.558 4.743-9.487s-5.563-6.054-9.487-4.742c-26.944 8.985-51.487 19.481-73.577 31.429-4.214-18.584-18.25-66.983-55.87-103.275-31.578-30.463-71.829-44.012-93.012-49.377-6.854-1.734-13.882.269-18.799 5.366-4.916 5.096-6.669 12.191-4.688 18.979h.001c6.121 20.975 21.105 60.712 52.686 91.179 33.024 31.858 74.716 45.218 97.077 50.404-17.038 10.875-32.32 22.765-45.812 35.634-10.622-14.736-42.987-54.776-92.871-73.541-12.772-4.804-26.627-8.146-41.177-9.933-4.106-.508-7.852 2.418-8.358 6.53-.505 4.111 2.419 7.854 6.53 8.358 13.371 1.642 26.063 4.698 37.724 9.084 41.664 15.673 70.79 48.527 82.939 64.271-19.518 3.834-63.075 9.347-104.736-6.325-37.821-14.227-65.257-42.663-78.244-58.347-1.491-1.801-1.011-3.702-.734-4.435.275-.733 1.166-2.478 3.475-2.85 9.591-1.544 19.366-2.471 29.055-2.754 4.141-.121 7.399-3.575 7.278-7.716-.119-4.066-3.452-7.281-7.493-7.281-.074 0-.148.001-.223.004-10.339.302-20.77 1.291-31.001 2.938-6.981 1.123-12.639 5.751-15.132 12.378s-1.289 13.836 3.222 19.283c13.937 16.831 43.448 47.372 84.516 62.82 23.436 8.816 47.053 11.551 67.351 11.551 15.077-.001 28.319-1.511 38.288-3.16-1.481 1.771-2.943 3.551-4.365 5.353-28.009 35.5-37.573 68.737-40.835 87.486-41.686 3.617-74.696 46.155-74.696 97.931 0 4.576.26 9.178.772 13.678.47 4.116 4.194 7.071 8.301 6.602 4.116-.469 7.072-4.185 6.604-8.301-.449-3.939-.677-7.97-.677-11.98 0-45.869 29.364-83.185 65.457-83.185s65.457 37.316 65.457 83.185-29.364 83.185-65.457 83.185c-23.428 0-45.231-16.134-56.9-42.107-1.697-3.778-6.14-5.466-9.914-3.768-3.778 1.698-5.466 6.137-3.768 9.915 14.122 31.433 41.168 50.959 70.582 50.959 44.364 0 80.457-44.045 80.457-98.185 0-2.782-.101-5.535-.287-8.259 17.973 34.966 50.784 56.483 82.679 56.483 9.214 0 18.353-1.796 27.033-5.582 5.481-2.392 10.629-5.513 15.299-9.276 3.226-2.6 3.732-7.321 1.134-10.546-2.599-3.225-7.321-3.734-10.546-1.134-3.629 2.925-7.628 5.35-11.884 7.206-33.08 14.429-74.919-8.034-93.257-50.077-18.339-42.043-6.343-87.987 26.74-102.418 15.741-6.866 34.006-5.625 51.43 3.491 17.969 9.4 32.822 25.945 41.826 46.585 10.483 24.035 11.36 50.942 2.345 71.976-1.632 3.807.132 8.216 3.939 9.848 3.81 1.632 8.218-.132 9.849-3.939 10.771-25.132 9.902-55.706-2.387-83.878zm-254.892-313.543c-.654-2.245.54-3.799 1.084-4.363.545-.564 2.061-1.811 4.32-1.239 19.74 5 57.198 17.576 86.281 45.631 32.036 30.907 45.751 72.615 50.662 91.886-19.44-4.217-61.611-16.425-93.646-47.329-29.084-28.059-42.995-65.04-48.701-84.586zm97.888 339.448c-12.754-23.784-33.727-40.433-57.959-43.893 3.332-17.504 12.457-46.95 37.441-78.615 14.074-17.838 31.288-34.082 51.537-48.67-2.756 10.555-3.646 22.913-2.607 37.051 1.437 19.551 6.208 38.695 10.583 52.865-27.02 14.591-41.393 46.528-38.995 81.262z"/></g></svg>