<svg id="Capa_1" enable-background="new 0 0 512.02 512.02" height="512" viewBox="0 0 512.02 512.02" width="512" xmlns="http://www.w3.org/2000/svg"><g><g><path d="m168.057 242.981v190.034c0 32.444 26.545 58.99 58.99 58.99h42.713 15.213c32.444 0 56.99-26.545 56.99-58.99v-190.034z" fill="#eaf9fa"/><path d="m323.963 242.981h-155.906v115.415h123.512c12.368 0 22.394 10.026 22.394 22.393v52.225c0 32.444-16.545 58.99-48.99 58.99l20-1c32.444 0 58.99-25.545 58.99-57.99v-74.619-115.414z" fill="#d4f2f6"/><path d="m426.194 335.7c51.959 0 85.782-48.852 71.137-98.704-37.239-126.761-129.026-215.981-241.321-215.981-5.035 0-10.036-.819-15.001-.461-105.766 7.624-194.751 95.364-230.32 216.442-14.645 49.852 23.177 99.704 75.137 99.704h316.059z" fill="#b67f5f"/><path d="m501.331 236.996c-37.239-126.761-133.026-216.981-245.321-216.981-5.035 0-10.035.189-15 .547 105.765 7.624 194.752 95.357 230.321 216.434 14.645 49.853-23.177 99.704-75.137 99.704h30c51.96 0 89.782-49.852 75.137-99.704z" fill="#a06e50"/></g><g><path d="m508.528 234.882c-13.53-46.056-35.296-88.761-62.944-123.498-2.578-3.241-7.296-3.778-10.539-1.198-3.24 2.58-3.776 7.298-1.197 10.538 26.452 33.235 47.3 74.171 60.288 118.385 6.263 21.318 2.183 43.794-11.193 61.664-13.521 18.065-34.205 28.426-56.747 28.426h-307.183c-4.143 0-7.5 3.358-7.5 7.5s3.357 7.5 7.5 7.5h41.544v88.815c0 36.663 29.827 66.49 66.49 66.49h44.744c4.142 0 7.5-3.358 7.5-7.5s-3.358-7.5-7.5-7.5h-44.744c-28.392 0-51.49-23.098-51.49-51.49v-88.814h160.906v88.815c0 21.813-13.888 41.349-34.559 48.611-3.908 1.373-5.963 5.654-4.59 9.563 1.084 3.085 3.981 5.016 7.076 5.016.824 0 1.664-.137 2.486-.426 26.668-9.37 44.586-34.593 44.586-62.763v-88.816h74.732c27.313 0 52.374-12.552 68.756-34.438 16.236-21.691 21.184-48.983 13.578-74.88z"/><path d="m340.75 46.113c26.357 11.976 50.894 29.406 72.931 51.806 2.907 2.953 7.653 2.99 10.606.087 2.953-2.905 2.991-7.654.087-10.606-23.333-23.717-49.38-42.203-77.419-54.943-29.121-13.232-59.72-19.942-90.945-19.942-56.264 0-110.148 21.744-155.825 62.882-44.335 39.928-77.771 95.076-96.693 159.485-7.606 25.896-2.658 53.189 13.577 74.88 16.382 21.886 41.443 34.438 68.756 34.438 4.143 0 7.5-3.358 7.5-7.5s-3.357-7.5-7.5-7.5c-22.542 0-43.226-10.361-56.747-28.426-13.376-17.871-17.456-40.346-11.193-61.664 18.138-61.742 50.068-114.498 92.338-152.567 42.879-38.616 93.291-59.028 145.787-59.028 29.07 0 57.581 6.257 84.74 18.598z"/></g></g></svg>