<svg id="Capa_1" enable-background="new 0 0 512 512" height="512" viewBox="0 0 512 512" width="512" xmlns="http://www.w3.org/2000/svg"><g><g><path d="m328.817 51.336c-6.701-3.869-14.593-4.805-21.003-1.525-3.638 1.862-6.8 4.76-8.996 8.563l-17.623 30.524v-56.204c-.001-13.914-11.281-25.194-25.195-25.194-13.914 0-25.194 11.28-25.194 25.194v56.203l-17.623-30.523c-6.064-10.504-19.495-14.103-29.999-8.038-10.504 6.064-14.103 19.495-8.038 29.999l62.661 108.532 18.193-10.504 17.194 10.504 62.661-108.532c6.064-10.504 3.465-22.935-7.038-28.999z" fill="#bbf49b"/><path d="m328.817 50.336c-6.701-3.869-14.585-3.79-20.996-.51.332.17.669.321.996.51 10.504 6.064 14.103 19.495 8.038 29.999l-57.661 99.871 15 8.66 62.661-108.532c6.064-10.503 2.465-23.934-8.038-29.998z" fill="#9be69d"/><path d="m72.489 349.805c0-77.171 95.077-143.825 148.36-175.12 19.55-11.482 43.345-12.617 63.733-3.402 2.234 1.01 4.428 3.144 6.57 4.402 53.283 31.295 147.36 96.949 147.36 174.12-.001 107.213-81.162 153.695-182.512 153.695-3.931 0-7.832.929-11.702.785-95.898-3.558-171.809-51.425-171.809-154.48z" fill="#aa91dc"/><path d="m291.152 174.684c-15.337-9.008-33.284-11.638-50.152-7.909 6.99 1.545 13.796 4.176 20.152 7.909 53.283 31.295 138.36 97.949 138.36 175.12 0 101.87-64.178 149.809-158.511 154.335 4.948.237 9.949.361 15 .361 101.35 0 183.511-47.482 183.511-154.695-.001-77.172-95.077-143.826-148.36-175.121z" fill="#9678cd"/></g><g><path d="m294.95 168.218c-.043-.025-.088-.049-.131-.074l20.434-35.393c2.071-3.587.842-8.174-2.745-10.245-3.589-2.07-8.175-.843-10.245 2.745l-21.132 36.601c-16.268-5.62-33.996-5.619-50.262 0l-49.229-85.267c-1.979-3.43-2.468-7.416-1.374-11.224 1.092-3.805 3.626-6.926 7.136-8.788 6.788-3.604 15.557-.908 19.55 6.008l17.359 30.066c1.698 2.94 5.159 4.373 8.437 3.494 3.278-.878 5.559-3.85 5.559-7.244v-56.203c-.001-9.756 7.936-17.694 17.693-17.694s17.694 7.938 17.694 17.694v56.204c0 3.395 2.28 6.366 5.559 7.244 3.276.876 6.739-.554 8.437-3.494l17.623-30.524c1.98-3.43 5.188-5.845 9.032-6.803 3.84-.953 7.812-.321 11.18 1.785 6.514 4.077 8.564 13.02 4.572 19.936l-11.23 19.448c-2.071 3.587-.842 8.174 2.745 10.245 3.585 2.068 8.173.842 10.245-2.745l11.23-19.448c7.983-13.828 3.675-31.84-9.605-40.15-6.851-4.287-14.935-5.573-22.761-3.626-7.83 1.95-14.364 6.871-18.398 13.858l-3.628 6.284v-28.214c-.001-18.027-14.668-32.694-32.695-32.694s-32.694 14.667-32.694 32.694v28.214l-3.364-5.827c-7.983-13.828-25.734-19.103-39.573-11.758-7.137 3.789-12.294 10.145-14.52 17.897-2.227 7.757-1.232 15.877 2.802 22.864l48.532 84.059c-.043.025-.087.048-.131.074-25.626 15.05-62.648 39.306-93.504 69.391-2.965 2.892-3.025 7.641-.134 10.606 2.891 2.964 7.638 3.027 10.606.134 29.776-29.034 65.719-52.567 90.628-67.197 19.338-11.359 43.366-11.359 62.706 0 25.663 15.073 62.574 39.316 92.674 69.211 34.494 34.258 51.984 67.716 51.984 99.442 0 38.695-11.071 70.696-32.906 95.112-20.127 22.507-48.655 37.998-84.791 46.044-4.043.9-6.591 4.907-5.691 8.95.777 3.494 3.876 5.872 7.314 5.872.54 0 1.088-.059 1.637-.182 39.26-8.74 70.452-25.794 92.713-50.686 24.368-27.25 36.725-62.614 36.725-105.111-.001-80.286-95.273-148.231-152.063-181.585z"/><path d="m282.944 495.799c-8.705.797-17.769 1.201-26.944 1.201-51.307 0-94.607-12.315-125.221-35.61-33.702-25.648-50.791-63.19-50.791-111.585 0-24.792 10.788-50.837 32.064-77.409 2.589-3.233 2.066-7.953-1.167-10.542-3.231-2.588-7.952-2.067-10.542 1.167-23.46 29.3-35.356 58.498-35.356 86.784 0 52.576 19.609 95.289 56.707 123.522 33.248 25.3 79.691 38.673 134.306 38.673 9.629 0 19.154-.425 28.311-1.264 4.125-.378 7.163-4.027 6.785-8.152s-4.016-7.164-8.152-6.785z"/></g></g></svg>