<svg id="Capa_1" enable-background="new 0 0 512 512" height="512" viewBox="0 0 512 512" width="512" xmlns="http://www.w3.org/2000/svg"><g><g><path d="m361.232 59.85-39.796-23.329-8.312-2.146-5.018-5.668-22.434-13.151c-18.323-10.741-41.021-10.741-59.344 0l-75.56 44.294s-90.089 370.236 105.232 370.236 105.232-370.236 105.232-370.236z" fill="#c9f6b0"/><path d="m361.232 59.85-51.087-29.948-2.038-1.195-4.123 4.823c-.258.263-.507.536-.746.822-.406.487-.802.974-1.205 1.461l-.319.373.008.004c-82.747 100.021-106.343 204.47-106.084 291.566.204 68.597 60.062 96.16 122.193 85.621 111.86-72.151 43.401-353.527 43.401-353.527z" fill="#bbf49b"/><path d="m296.362 327.756c.261-87.629-23.616-192.826-107.6-293.404-4.287-5.134-11.637-6.444-17.482-3.194-47.274 26.277-237.553 147.015-99.732 321.821 70.401 89.292 224.486 84.908 224.814-25.223z" fill="#6fd7a3"/><path d="m246 119.516c-38.231 72.999-50.55 145.17-50.362 208.24.12 40.235 20.767 66.345 50.353 78.938 29.592-12.593 50.251-38.698 50.371-78.938.188-63.07-12.131-135.241-50.362-208.24z" fill="#3ec3a4"/><path d="m215.638 327.756c-.258-86.837 23.187-190.926 105.338-290.677.153-.186.307-.372.461-.559.597-.723 2.198-1.446 2.801-2.169 4.287-5.134 10.637-5.444 16.482-2.194 24.375 13.549 86.77 51.946 122.604 109.927 33.663 54.469 43.885 126.221-22.873 210.893-70.4 89.294-224.485 84.91-224.813-25.221z" fill="#6fd7a3"/><path d="m340.72 31.158c-5.846-3.249-13.195-1.94-17.482 3.194-.76.91-1.505 1.822-2.255 2.733 59.222 35.44 218.796 151.861 89.469 315.893-28.954 36.723-72.06 57.586-112.805 61.781 48.192 5.307 106.578-15.831 142.805-61.781 137.821-174.805-52.458-295.543-99.732-321.82z" fill="#3ec3a4"/><path d="m279.663 493.97c69.89-60.112 76.821-85.974 15.483-153.461-50.682-55.764-128.289-156.817-244.45-197.704-6.542-2.303-13.728 1.104-16.08 7.629-20.175 55.958-89.612 299.684 208.094 353.349 13.309 2.399 27.065-1.309 36.953-9.813z" fill="#bbf49b"/><path d="m232.337 493.97c-69.89-60.112-76.821-85.974-15.483-153.461 50.682-55.764 128.289-156.817 244.45-197.704 6.542-2.303 12.728 2.104 15.08 8.629 20.175 55.958 86.612 298.684-211.094 352.349-4.2.757-4.445.906-8.599.488-9.008-.907-17.587-4.481-24.354-10.301z" fill="#9be69d"/><path d="m477.384 150.434c-2.352-6.525-9.538-9.932-16.08-7.629-5.024 1.768-9.97 3.656-14.851 5.641.181.317.353.642.51.977.154.327.296.664.421 1.011 19.994 55.455 88.358 295.308-200.155 351.85 6.986 2.267 14.594 2.845 22.061 1.499 297.707-53.665 228.269-297.391 208.094-353.349z" fill="#6fd7a3"/></g><path d="m499.027 271c-4.146-.15-7.596 3.127-7.723 7.266-1.556 50.973-16.952 94.344-45.76 128.908-37.167 44.592-96.893 74.572-177.518 89.106-11.023 1.985-22.507-1.049-30.725-8.117-32.73-28.151-53.283-49.953-54.616-71.632-1.116-18.149 10.414-38.738 39.795-71.066 6.316-6.949 13.043-14.593 20.167-22.686 6.035-6.857 12.337-14.015 18.915-21.361.043-.047.085-.094.127-.142 49.193-54.92 114.077-120.448 202.126-151.44.325-.114.654-.191.984-.238.013-.002.027-.003.04-.005 2.342-.311 4.679 1.038 5.509 3.342 6.153 17.066 16.955 51.884 20.164 93.322.32 4.129 3.948 7.24 8.055 6.897 4.129-.319 7.217-3.926 6.897-8.055-3.346-43.196-14.598-79.471-21.008-97.25-2.66-7.376-9.256-12.241-16.581-13.127-36.858-57.872-98.359-96.18-123.463-110.133-7.938-4.41-17.652-3.314-24.343 2.392l-30.542-17.908c-20.638-12.097-46.279-12.097-66.916 0l-30.543 17.906c-6.693-5.705-16.409-6.801-24.343-2.392-12.347 6.864-31.44 18.439-52.276 34.606-3.272 2.538-3.866 7.249-1.327 10.521 2.538 3.271 7.248 3.865 10.521 1.328 20.089-15.587 38.479-26.738 50.37-33.348 2.719-1.512 6.117-.904 8.079 1.446.554.663 1.093 1.333 1.642 1.998.006.007.012.015.018.022 25.632 31.021 46.827 64.207 63.061 98.728-14.892 32.997-25.636 67.412-32.142 103.075-43.073-42.071-93.914-81.622-155.726-104.839 10.686-15.854 24.185-31.411 40.249-46.351 3.032-2.821 3.204-7.565.384-10.597-2.819-3.033-7.564-3.203-10.597-.385-18.564 17.266-33.934 35.391-45.741 53.928-7.317.893-13.901 5.759-16.557 13.127-9.016 25.009-23.836 75.471-21.785 132.456 1.182 32.826 7.917 63.066 20.019 89.879 14.566 32.275 37.057 59.878 66.846 82.043 1.344 1 2.914 1.483 4.47 1.482 2.29 0 4.55-1.045 6.022-3.023 2.472-3.322 1.783-8.02-1.54-10.492-119.615-88.999-76.108-242.372-59.924-287.259.953-2.642 3.885-4.026 6.533-3.099 83.016 29.22 146.436 89.866 197.675 146.505-5.081 5.708-9.95 11.24-14.606 16.53-7.082 8.047-13.772 15.648-20.007 22.509-32.406 35.655-45.057 59.433-43.665 82.071 1.505 24.475 19.257 46.06 49.726 73.263-33.94-8.074-63.817-19.236-89.053-33.322-3.615-2.017-8.183-.724-10.202 2.893-2.019 3.615-.724 8.184 2.893 10.202 33.106 18.479 73.604 32.124 120.371 40.553 3.504.632 10.506.962 16.328.962 3.157 0 5.967-.097 7.682-.296.015-.002.029-.006.044-.007 1.73-.136 3.459-.349 5.179-.659 84.188-15.175 146.895-46.891 186.379-94.263 31.006-37.2 47.568-83.648 49.229-138.053.123-4.137-3.13-7.595-7.27-7.721zm-297.071-232.436 28.239-16.553c15.959-9.356 35.787-9.355 51.748-.001l28.238 16.554c-21.343 26.745-39.403 54.785-54.109 84-14.698-29.18-32.849-57.337-54.116-84zm26.722 217.402c12.468-79.036 46.214-151.97 100.369-216.826 1.963-2.349 5.359-2.957 8.079-1.445 23.409 13.011 79.76 48.031 115.05 100.424-43.495 16.331-85.17 42.048-127.176 78.468-25.995 22.539-48.948 46.483-68.932 68.534-8.764-9.665-17.884-19.438-27.39-29.155z"/></g></svg>