<svg id="Capa_1" enable-background="new 0 0 512.003 512.003" height="512" viewBox="0 0 512.003 512.003" width="512" xmlns="http://www.w3.org/2000/svg"><g><g><path d="m407.742 38.863.398.205c7.348 3.788 8.255 20.642 2.368 43.988-3.09 12.251-19.469 54.437-25.991 71.06-1.531 3.902.059 8.335 3.722 10.372l13.943 7.756c4.391 2.442 9.927.497 11.82-4.158 7.547-18.556 24.72-61.431 28.568-76.69 13.362-52.98-2.392-73.177-18.807-81.637l-.808-.416c-8.152-4.201-18.166-.999-22.367 7.153-4.2 8.152-.998 18.166 7.154 22.367z" fill="#bbf49b"/><path d="m48.106 473.585c-3.598-17.249 4.871-34.776 20.638-42.643 121.334-60.534 171.921-117.415 217.027-199.846 16.379-29.932 27.917-61.918 35.702-88.361 2.736-9.294 7.195-17.685 12.952-24.889 15.097-18.892 39.12-28.616 64.404-26.086 38.85 3.888 65.365 35.969 64.879 72.547-.1 7.505-1.379 15.158-3.981 22.735-9.961 29.005-25.583 62.296-45.652 98.297-36.417 65.326-92.319 109.159-140.55 140.876-56.727 37.306-107.075 60.519-179.116 76.359-7.448 1.638-14.862 2.019-21.531-.407-12.209-4.439-21.921-14.914-24.772-28.582z" fill="#ed5469"/><path d="m398.829 91.762c-7.654-.766-15.193-1.323-22.403.2 42.31 8.827 68.511 53.106 54.095 95.082-9.961 29.005-25.583 62.296-45.652 98.297-36.417 65.326-92.319 110.166-140.55 141.884-54.662 35.947-104.344 58.807-172.344 74.596 6.9 2.707 14.647 3.475 22.435 1.763 72.04-15.839 123.396-39.053 180.123-76.359 48.23-31.718 104.133-76.557 140.55-141.884 20.069-36.001 35.691-69.292 45.652-98.297 2.611-7.603 3.89-15.253 3.982-22.735.054-4.371-1.305-8.684-2.033-12.897-5.316-30.789-29.706-56.233-63.855-59.65z" fill="#e63850"/><path d="m396.815 91.762c-5.903-.591-9.722-1.465-15.389-.675-18.608 2.595-35.421 12.285-46.994 26.767 10.318 1.374 20.865 2.652 23.889 6.975 6.094 8.714-12.624 39.182-3.89 45.922 8.427 6.503 35.249-17.572 45.803-13.575 10.554 3.996 14.704 39.799 25.325 40.509 11.007.735 17.164-34.49 27.5-36.981 2.933-.707 7.05.963 11.652 3.606.487-36.579-29.046-68.661-67.896-72.548z" fill="#bbf49b"/><path d="m398.829 90.754c-5.903-.591-11.734-.449-17.402.341 31.52 4.328 55.103 28.007 61.45 56.726 1.374 6.217-3.086 11.924-9.396 12.775-.192.026-.38.061-.564.105-6.454 1.556-11.278 15.872-16.671 26.228 2.681 5.965 5.602 10.505 9.314 10.753 11.007.735 17.164-34.49 27.5-36.981 2.933-.707 7.05.963 11.652 3.607.486-36.577-27.033-69.666-65.883-73.554z" fill="#9be69d"/></g><g><path d="m459.451 120.022c-3.724-5.808-8.103-11.035-13.014-15.61 1.57-4.67 2.693-8.357 3.405-11.182 1.293-5.129 2.36-10.123 3.172-14.846.701-4.082-2.039-7.96-6.122-8.661-4.082-.701-7.961 2.039-8.661 6.122-.746 4.344-1.733 8.958-2.934 13.716-.357 1.416-.866 3.174-1.505 5.224-5.198-3.194-10.762-5.789-16.6-7.733.227-.79.425-1.515.589-2.162 4.107-16.291 8.764-44.771-6.208-52.491l-.396-.203c-4.462-2.3-6.222-7.802-3.922-12.265 2.301-4.462 7.802-6.22 12.266-3.921l.807.416c10.802 5.567 17.034 15.068 19.053 29.047.592 4.1 4.394 6.952 8.495 6.351 4.1-.592 6.942-4.396 6.351-8.495-2.723-18.858-11.816-32.396-27.028-40.236l-.807-.416c-11.814-6.09-26.381-1.43-32.47 10.384-6.088 11.814-1.43 26.38 10.388 32.472l.355.18c1.258.933 4.957 10.186-1.428 35.509-.172.681-.4 1.496-.677 2.432-.991-.136-1.985-.261-2.986-.361-38.507-3.849-74.384 20.255-85.297 57.326-9.622 32.686-21.428 61.915-35.087 86.878-16.942 30.961-33.144 55.355-50.985 76.77-2.651 3.182-2.222 7.911.961 10.563 1.402 1.169 3.104 1.738 4.797 1.738 2.149 0 4.283-.919 5.766-2.699 18.48-22.179 35.2-47.336 52.62-79.17 14.175-25.902 26.393-56.13 36.317-89.843 2.042-6.936 5.17-13.305 9.14-18.978 5.326.747 12.1 1.856 14.247 3.247.432 2.846-2.045 11.176-3.405 15.749-3.673 12.351-7.472 25.122 1.2 31.814 8.148 6.29 19.289.505 31.082-5.616 4.824-2.504 13.735-7.116 16.638-6.856 2.359 1.728 5.968 11.084 7.924 16.156 4.782 12.399 9.298 24.11 19.568 24.796.315.021.626.031.934.031 10.318-.001 15.766-11.725 21.037-23.073 2.005-4.315 5.652-12.168 7.862-14.039.369.07 1.028.25 2.065.685-.448 5.327-1.533 10.642-3.317 15.836-2.098 6.107-4.5 12.538-7.141 19.116-1.543 3.844.322 8.211 4.166 9.754 3.842 1.545 8.212-.321 9.754-4.166 2.735-6.813 5.227-13.485 7.407-19.831 8.015-23.34 4.962-48.655-8.376-69.459zm-8.15 33.388c-8.413 2.027-13.009 11.921-17.874 22.395-1.852 3.987-5.075 10.924-7.368 13.618-2.129-2.928-4.95-10.243-6.572-14.449-4.303-11.158-8.367-21.697-16.598-24.813-8.228-3.12-18.256 2.087-28.87 7.597-4.001 2.077-10.959 5.689-14.493 6.473.066-3.537 2.246-10.867 3.5-15.082 3.292-11.07 6.401-21.526 1.441-28.619-2.933-4.192-8.079-6.36-14.467-7.792 13.1-10.711 30.242-16.307 48.081-14.519 20.081 2.009 37.848 12.908 48.743 29.902 4.968 7.749 8.16 16.27 9.559 25.05-1.699-.204-3.407-.165-5.082.239z"/><path d="m443.44 229.9c-3.744-1.769-8.216-.166-9.984 3.58-7.159 15.162-15.545 31.382-24.925 48.207-28.688 51.46-73.867 97.015-138.12 139.27-58.815 38.679-110.273 60.495-177.612 75.3-8.216 1.807-16.63.28-23.698-4.292-7.082-4.584-11.931-11.655-13.653-19.912-2.902-13.917 3.941-28.063 16.645-34.4 62.916-31.389 108.992-62.832 145.004-98.956 2.925-2.934 2.917-7.682-.017-10.606s-7.683-2.919-10.607.017c-34.83 34.939-79.659 65.482-141.078 96.124-18.796 9.377-28.924 30.302-24.631 50.885 2.547 12.21 9.716 22.666 20.188 29.442 7.589 4.911 16.228 7.445 25.042 7.445 3.333 0 6.691-.362 10.026-1.096 69.262-15.228 122.174-37.657 182.634-77.417 66.319-43.613 113.088-90.879 142.979-144.499 9.543-17.118 18.085-33.641 25.388-49.106 1.767-3.747.165-8.217-3.581-9.986z"/></g></g></svg>