<svg id="Capa_1" enable-background="new 0 0 512 512" height="512" viewBox="0 0 512 512" width="512" xmlns="http://www.w3.org/2000/svg"><g><g><path d="m68.949 269.688 4.146-.379c1.829-.167 3.596-.529 5.282-1.062 10.324-3.268 17.611-13.004 17.414-24.245l-1.704-97.225c-.274-15.635-12.15-28.176-27.045-29.926-2.086-.245-4.209.121-6.39.32l-6.108.157-6.483.593c-17.806 1.628-30.749 17.644-28.602 35.396l10.24 84.658c2.262 18.704 18.436 32.417 37.025 31.85.74-.024 1.481-.069 2.225-.137z" fill="#fd4755"/><path d="m148.533 264.354-4.117.892c-13.077.296-24.166-9.548-25.423-22.567l-9.347-96.79c-1.522-15.758 9.132-29.716 24.019-32.926 1.876-.405 3.82-.638 5.815-.684l12.639-.886c17.876-.405 32.131 14.663 32.014 32.543l-.561 85.274c-.129 19.588-15.456 34.701-35.039 35.144z" fill="#fd4755"/><path d="m119.264 273.92-20.172 1.549c-15.275.87-28.483-10.54-29.841-25.78l-9.871-110.774c-1.421-15.944 10.636-29.901 26.618-30.811l26.508-1.51.995-.092c7.497-.427 13.879 2.565 19.202 7.016 6.025 5.038 10.324 12.124 10.536 20.62l2.77 111.179c.185 7.427-2.509 14.275-7.078 19.453-4.842 5.487-11.81 8.702-19.667 9.15z" fill="#ed5469"/><g fill="#fd4755"><path d=""/><path d=""/><path d=""/></g><path d="m364.003 265.593 4.163.073c1.836.032 3.632-.135 5.366-.483 10.617-2.128 18.919-11.015 19.943-22.212l8.86-96.836c1.425-15.572-9.019-29.328-23.637-32.685-2.047-.47-4.197-.337-6.387-.376l-6.088-.507-6.509-.115c-17.878-.315-32.482 14.202-32.275 32.082l.99 85.27c.219 18.839 14.808 34.227 33.349 35.68.736.06 1.478.096 2.225.109z" fill="#9be69d"/><path d="m443.695 268.929-4.19.44c-13.031-1.125-22.987-12.114-22.823-25.193l1.215-97.233c.198-15.831 12.304-28.549 27.451-30.125 1.909-.199 3.867-.22 5.855-.048l12.552 1.485c17.814 1.538 30.458 17.07 28.401 34.832l-9.814 84.709c-2.254 19.458-19.131 32.819-38.647 31.133z" fill="#9be69d"/><path d="m413.561 275.261-20.22-.65c-15.279-.793-27.17-13.57-26.866-28.866l2.211-111.192c.318-16.004 13.819-28.569 29.805-27.74l26.515 1.376.768.44c7.499.389 13.749 3.633 18.558 8.636 5.443 5.662 8.947 13.173 8.235 21.642l-9.315 110.823c-.622 7.403-4.043 13.918-9.148 18.57-5.408 4.93-12.683 7.369-20.543 6.961z" fill="#bbf49b"/><path d="" fill="#fd4755"/><path d="" fill="#fd4755"/><path d="m212.425 267.276 4.162-.093c1.836-.041 3.624-.28 5.342-.697 10.524-2.551 18.463-11.763 19.039-22.992l4.979-97.113c.801-15.617-10.186-28.944-24.925-31.713-2.064-.388-4.207-.169-6.397-.12l-6.104-.263-6.508.146c-17.876.401-31.888 15.49-30.965 33.347l4.4 85.162c.972 18.815 16.165 33.607 34.749 34.318.738.029 1.481.035 2.228.018z" fill="#ffca28"/><path d="m292.187 267.422-4.169.607c-13.066-.603-23.453-11.185-23.813-24.26l-2.676-97.203c-.436-15.826 11.152-29.019 26.224-31.199 1.9-.275 3.855-.374 5.849-.283l12.602.982c17.862.824 31.117 15.838 29.771 33.667l-6.418 85.034c-1.474 19.533-17.803 33.558-37.37 32.655z" fill="#ffca28"/><path d="m262.33 274.954-20.23.16c-15.298-.181-27.691-12.472-27.999-27.769l-2.239-111.191c-.322-16.004 12.665-29.099 28.671-28.91l26.549.315.79.009c7.508.089 13.879 3.48 18.884 8.286 5.665 5.44 9.467 12.805 9.094 21.295l-4.874 111.107c-.326 7.422-3.483 14.069-8.398 18.921-5.207 5.142-12.379 7.871-20.248 7.777z" fill="#ffd54f"/><path d="" fill="#fd4755"/><path d="" fill="#fd4755"/><path d="m489.5 424.432-6.263 1h-460.737c-8.284 0-15-6.716-15-15v-40.662l1-8.467-1-6.533v-48.16l1-7.057-1-7.943v-40.662c0-8.284 6.716-15 15-15h457l10 1c8.25 0 14 5.75 14 14v159.483c0 8.251-5.75 14.001-14 14.001z" fill="#b67f5f"/><path d="m489.5 235.949h-8-2.264c2.907 0 5.264 2.357 5.264 5.263v41.506c0 4.911-3.982 8.892-8.892 8.892v15h.001c4.91.001 8.891 3.982 8.891 8.892v30.376c0 4.911-3.982 8.892-8.892 8.892v.001 15h.025c4.899.014 8.867 3.988 8.867 8.891v41.506c0 1.349-.508 2.582-1.309 5.264h6.309c8.25 0 15-6.75 15-15v-159.483c0-8.25-6.75-15-15-15z" fill="#a06e50"/></g><g><path d="m46.057 261.915c-4.142 0-7.5 3.358-7.5 7.5 0 4.142 3.358 7.5 7.5 7.5s7.5-3.358 7.5-7.5c0-4.143-3.358-7.5-7.5-7.5z"/><path d="m46.057 323.191c-4.142 0-7.5 3.358-7.5 7.5 0 4.142 3.358 7.5 7.5 7.5s7.5-3.358 7.5-7.5c0-4.142-3.358-7.5-7.5-7.5z"/><path d="m38.557 391.967c0 4.142 3.358 7.5 7.5 7.5s7.5-3.358 7.5-7.5c0-4.142-3.358-7.5-7.5-7.5s-7.5 3.357-7.5 7.5z"/><path d="m465.943 276.915c4.142 0 7.5-3.358 7.5-7.5 0-4.142-3.358-7.5-7.5-7.5s-7.5 3.358-7.5 7.5c0 4.142 3.358 7.5 7.5 7.5z"/><path d="m465.943 323.191c-4.142 0-7.5 3.358-7.5 7.5 0 4.142 3.358 7.5 7.5 7.5s7.5-3.358 7.5-7.5c0-4.142-3.358-7.5-7.5-7.5z"/><path d="m473.443 391.967c0-4.142-3.358-7.5-7.5-7.5s-7.5 3.358-7.5 7.5c0 4.142 3.358 7.5 7.5 7.5s7.5-3.358 7.5-7.5z"/><path d="m491.706 228.558 8.642-74.587c1.23-10.621-1.816-21.032-8.578-29.315s-16.353-13.352-27.007-14.273l-12.573-1.085v.001c-.023-.002-.046-.004-.068-.006-1.453-.123-2.913-.153-4.37-.111-5.781-4.898-13.132-8.022-21.227-8.442l-7.745-.402c-3.78-14.802-16.351-20.366-23.29-21.213-4.107-.508-7.852 2.425-8.354 6.535-.502 4.111 2.424 7.852 6.536 8.354.299.037 5.3.725 8.521 5.465l-2.972-.154c-7.972-.417-15.635 1.763-22.077 6.189-1.442-.191-2.892-.31-4.337-.335l-12.618-.223c-11.497-.214-22.207 4.566-29.692 12.823-6.64-5.81-14.972-9.188-23.943-9.603l-12.566-.579c-.02-.001-.039-.002-.059-.003-1.473-.065-2.949-.038-4.418.063-5.972-4.663-13.442-7.49-21.546-7.586l-3.183-.038c-3.876-14.57-16.314-20.066-23.204-20.908-4.107-.508-7.852 2.425-8.354 6.535-.502 4.111 2.424 7.852 6.536 8.354.306.038 5.557.755 8.762 5.826l-7.9-.094c-7.966-.111-15.545 2.38-21.808 7.064-1.452-.135-2.907-.196-4.35-.159l-12.617.282c-8.307.187-16.128 2.924-22.619 7.808-7.387-6.726-17.142-10.469-27.3-10.245l-12.617.285c-.033.001-.066.002-.1.003-1.45.037-2.896.165-4.33.363-6.275-4.234-13.918-6.539-22.014-6.087l-3.234.184c-5.093-14.455-18.149-18.867-25.149-19.08-4.107-.145-7.599 3.128-7.725 7.268-.126 4.141 3.128 7.599 7.269 7.725.309.01 5.613.246 9.267 5.018l-7.724.44c-7.963.453-15.349 3.45-21.274 8.549-1.456-.033-2.91.006-4.348.138l-12.568 1.148c-10.648.974-20.214 6.09-26.934 14.406-6.721 8.317-9.714 18.743-8.431 29.358l8.985 74.289c-11.709.776-21.001 10.544-21.001 22.446v159.483c0 12.406 10.093 22.5 22.5 22.5h121.928c4.142 0 7.5-3.357 7.5-7.5 0-4.142-3.358-7.5-7.5-7.5h-121.928c-4.136 0-7.5-3.364-7.5-7.5v-40.661h482v7.551c0 4.143 3.358 7.5 7.5 7.5s7.5-3.357 7.5-7.5v-126.373c0-11.662-8.919-21.278-20.294-22.391zm-11.556-94.416c4.176 5.114 6.057 11.544 5.297 18.102l-8.829 76.204h-23.71l7.474-88.917c.043-.524.072-1.046.09-1.535.19-4.576-.511-8.993-1.931-13.094l4.931.426c6.579.569 12.503 3.699 16.678 8.814zm-81.707-19.838 27.305 1.417c11.354.589 20.208 10.304 19.737 21.685-.011.291-.025.584-.05.874l-7.579 90.169h-63.194l1.864-93.746c.113-5.692 2.471-10.963 6.638-14.842s9.595-5.85 15.279-5.557zm-38.519 5.649 4.905.086c-2.06 4.442-3.2 9.305-3.301 14.365l-1.87 94.045h-21.703l5.898-78.145c.54-7.153-.848-14.129-3.954-20.367 4.61-6.369 12.01-10.154 20.025-9.984zm-37.045 11.346c4.376 4.943 6.513 11.292 6.017 17.876l-5.983 79.274h-23.562l3.991-90.97c.023-.527.031-1.051.029-1.542.007-4.58-.87-8.965-2.453-13.006l4.944.228c6.596.305 12.64 3.195 17.017 8.14zm-55.096-16.231c11.369.135 20.605 9.487 20.589 20.876.001.291-.002.582-.015.877l-4.02 91.628h-63.116l-1.861-92.446c-.115-5.691 2.03-11.052 6.038-15.094 4.009-4.042 9.335-6.241 15.046-6.165zm-65.601 6.861 4.904-.11c-1.881 4.521-2.825 9.425-2.723 14.486l1.855 92.143h-23.491l-4.188-81.057c-.341-6.595 1.946-12.891 6.439-17.73 4.493-4.837 10.603-7.583 17.204-7.732zm-49.915-2.436c6.28-.115 12.317 2.192 16.885 6.354-4.044 6.651-6.004 14.35-5.593 22.318l4.148 80.283h-14.617l-2.354-94.497c-.013-.531-.042-1.056-.077-1.54-.308-4.571-1.483-8.885-3.339-12.807zm-65.842-3.9 27.296-1.555c11.347-.668 21.208 8.048 21.975 19.421.021.287.038.575.045.866l2.345 94.124h-63.198l-8.038-90.2c-.505-5.671 1.266-11.166 4.988-15.474s8.902-6.859 14.587-7.182zm-54.311 18.692c4.15-5.136 10.057-8.295 16.633-8.896l4.884-.446c-1.566 4.64-2.171 9.598-1.722 14.639l7.92 88.868h-23.724l-9.196-76.034c-.794-6.557 1.055-12.995 5.205-18.131zm-17.114 220.486v-48.161h379.791c4.142 0 7.5-3.357 7.5-7.5s-3.358-7.5-7.5-7.5h-379.791v-40.661c0-4.136 3.364-7.5 7.5-7.5h467c4.136 0 7.5 3.364 7.5 7.5v40.661h-69.523c-4.142 0-7.5 3.357-7.5 7.5s3.358 7.5 7.5 7.5h69.523v48.161z"/><path d="m504.5 402.932c-4.142 0-7.5 3.358-7.5 7.5 0 4.136-3.364 7.5-7.5 7.5h-312.386c-4.142 0-7.5 3.358-7.5 7.5 0 4.143 3.358 7.5 7.5 7.5h312.386c12.407 0 22.5-10.094 22.5-22.5 0-4.142-3.358-7.5-7.5-7.5z"/></g></g></svg>