<svg id="Capa_1" enable-background="new 0 0 512.001 512.001" height="512" viewBox="0 0 512.001 512.001" width="512" xmlns="http://www.w3.org/2000/svg"><g><g><path d="m424.733 156.372c-6.842 76.38-49.71 160.925-97.498 175.759-6.049 1.878-11.177 3.622-17.321 3.072-54.678-4.898-89.897-110.52-82.189-196.569 6.745-75.293 44.122-110.652 89.991-115.034 6.553-.626 13.279.38 20.113.993 54.679 4.898 94.613 45.73 86.904 131.779z" fill="#6fd7a3"/><path d="m337.83 23.593c-6.8-.609-13.491-.617-20.012-.001.004 0 .008 0 .012.001 54.678 4.898 95.612 46.731 87.904 132.78-7.045 78.646-52.285 166.99-101.762 177.873 1.955.446 3.935.778 5.944.958 54.678 4.898 108.11-92.782 115.819-178.831 7.707-86.05-33.227-127.882-87.905-132.78z" fill="#3ec3a4"/><path d="m272.237 278.447 5.767-90.094c.594-9.276 8.291-16.496 17.586-16.496 9.295 0 16.992 7.22 17.586 16.496l5.777 90.249c1.186 18.533 4.365 36.765 9.282 54.526 6.235 22.524 14.266 44.289 25.572 64.95 5.855 10.699 8.895 23.159 8.123 36.383-1.953 33.451-27.725 59.711-61.139 62.215-4.388.329-8.695 1.238-12.886.762-33.637-3.815-59.772-32.367-59.772-67.025 0-11.725 2.992-22.752 8.253-32.358 20.255-36.98 33.157-77.53 35.851-119.608z" fill="#bbf49b"/><path d="m310.44 180.018c-3.139-4.918-8.631-8.161-14.851-8.161-9.295 0-16.992 7.22-17.586 16.496l-5.767 90.094c-1.604 25.067-6.834 49.592-15.081 73.143 3.242.687 6.524 1.058 9.845 1.058 11.305 0 22.188-4.123 32.382-11.431 4.506-3.229 10.82-1.141 12.535 4.131 5.917 18.189 13.64 35.83 22.888 52.73 5.855 10.699 8.895 23.159 8.122 36.383-1.858 31.828-26.191 58.034-57.329 62.66 4.912.729 9.993.944 15.191.554 33.414-2.504 60.185-29.764 62.139-63.215.772-13.224-2.268-25.684-8.123-36.383-20.222-36.952-33.163-77.439-35.854-119.476l-5.777-90.249c-.071-1.127-1.061-4.064-2.734-8.334z" fill="#9be69d"/><path d="m86.268 156.372c7.709 86.049 61.14 183.729 115.818 178.831s89.898-110.52 82.189-196.569c-6.434-71.817-40.736-106.303-83.695-113.229-5.853-.944-11.866-2.357-17.992-2.26-2.784.044-5.591.194-8.417.447-54.678 4.899-95.612 46.731-87.903 132.78z" fill="#6fd7a3"/><path d="m284.275 138.634c-7.31-81.601-50.601-116.291-101.687-115.482-29.179 19.232-48.545 56.609-48.545 115.04 0 79.171 35.551 170.844 82.899 193.072 46.053-20.606 74.319-114.654 67.333-192.63z" fill="#3ec3a4"/><path d="m239.764 278.447-5.767-90.094c-.594-9.276-8.291-16.496-17.586-16.496-9.295 0-16.992 7.22-17.586 16.496l-5.777 90.249c-2.691 42.037-15.632 82.524-35.854 119.476-5.855 10.699-8.895 23.159-8.123 36.383 1.953 33.451 28.725 60.711 62.139 63.215 3.645.273 7.234.256 10.747-.029 1.168-.095 2.329-1.22 3.479-1.374.911-.122 1.816.738 2.716.58 31.659-5.557 55.716-33.188 55.716-66.439 0-11.725-2.992-22.752-8.254-32.358-20.254-36.981-33.156-77.531-35.85-119.609z" fill="#c9f6b0"/><path d="m283.869 430.413c0-11.911-3.087-23.102-8.506-32.814-20.133-36.091-32.828-75.85-35.468-117.093l-5.868-91.674c-.574-8.965-7.595-16.421-16.563-16.944-9.76-.57-18.023 6.841-18.639 16.465l-5.777 90.249c-.659 10.295-1.937 20.497-3.782 30.577 6.047 7.364 12.419 13.629 19.028 18.522 7.003 5.185 10.161 14.115 7.862 22.52-5.516 20.167-13.137 39.72-23.006 58.197-5.171 9.682-7.973 20.82-7.627 32.644.722 24.692 15.416 46.14 36.433 56.579 34.663-2.821 61.913-31.84 61.913-67.228z" fill="#9be69d"/><path d="m363.047 138.191c0 90.827-46.787 198.123-104.501 198.123-57.715 0-104.502-107.296-104.502-198.123 0-82.811 38.893-123.341 89.501-129.85 4.899-.63 14.907 1.059 20.001 1.059 14.363 0 25.715 2.541 36.693 7.068 5.089 2.098 10.098 3.838 15.289 7.364 28.607 19.427 47.519 56.614 47.519 114.359z" fill="#6fd7a3"/><path d="m258.545 7.4c-5.094 0-10.101.318-15 .948 50.607 6.51 89.502 47.033 89.502 129.843 0 82.811-38.895 179.294-89.502 195.684 4.899 1.587 9.906 2.439 15 2.439 57.714 0 104.501-107.296 104.501-198.123s-46.786-130.791-104.501-130.791z" fill="#3ec3a4"/><path d="m323.308 429.829c.31 3.112.684 6.26.684 9.48 0 25.375-14.476 47.369-35.619 58.175-9.779 4.998-20.338 5.986-22.077 6.304-3.867.707-14.357.492-16.121.261-30.971-4.057-55.303-30.106-56.701-61.785-.538-12.194 2.273-23.687 7.589-33.642 14.417-26.997 24.057-56.283 29.319-86.432l20.216-115.837c1.585-9.081 14.62-9.081 16.205 0l20.217 115.842c4.642 26.598 13.278 52.216 24.64 76.677 0 .001 11.065 25.106 11.648 30.957z" fill="#bbf49b"/><path d="m323.308 429.829c-.584-5.851-11.648-30.957-11.648-30.957-11.362-24.461-19.998-50.079-24.64-76.677l-20.217-115.842c-1.585-9.081-14.62-9.081-16.205 0l-.398 2.277 19.819 113.564c4.642 26.598 13.278 52.216 24.64 76.677 0 0 11.065 25.106 11.648 30.957.31 3.112.684 6.26.684 9.48 0 33.185-24.764 60.568-56.816 64.726 1.766.231 3.548.406 5.354.491 37.501 1.773 68.462-28.106 68.462-65.217.001-3.219-.372-6.367-.683-9.479z" fill="#9be69d"/></g><path d="m422.166 73.957c-1.711-3.772-6.156-5.441-9.929-3.731-3.772 1.712-5.443 6.157-3.731 9.929 9.166 20.201 12.451 45.653 9.764 75.649-6.549 73.097-45.179 147.922-84.904 167.307-2.31-9.483-4.08-19.011-5.316-28.564 7.649-12.052 14.627-26.017 20.671-41.539 14.079-36.155 21.833-76.895 21.833-114.716 0-44.959-10.933-80.094-32.494-104.43-.857-.967-1.734-1.907-2.62-2.834.576.043 1.15.082 1.728.134 21.875 1.96 40.68 10.284 54.382 24.072 1.466 1.475 3.393 2.213 5.32 2.213 1.912 0 3.824-.727 5.287-2.181 2.938-2.92 2.953-7.668.033-10.606-16.225-16.325-38.246-26.158-63.684-28.437-7.16-.642-14.227-.649-21.052-.025-16.677-10.662-36.632-16.198-58.902-16.198-22.607 0-42.825 5.712-59.652 16.692-8.174-1.086-16.697-1.248-25.391-.469-30.79 2.758-55.934 16.235-72.712 38.976-18.417 24.959-25.817 59.258-21.993 101.943 2.208 24.651 8.144 50.848 17.163 75.759 1.105 3.052 3.984 4.948 7.052 4.948.848 0 1.71-.145 2.553-.45 3.895-1.41 5.909-5.71 4.499-9.605-8.586-23.713-14.232-48.607-16.326-71.989-3.487-38.925 2.946-69.777 19.122-91.699 14.157-19.187 35.589-30.578 61.981-32.942 2.375-.213 4.73-.337 7.065-.391-.972 1.009-1.931 2.034-2.868 3.091-21.562 24.336-32.494 59.471-32.494 104.43 0 37.823 7.754 78.565 21.835 114.722 4.898 12.578 10.411 24.129 16.395 34.473-1.205 11.921-3.255 23.808-6.133 35.627-20.13-9.782-40.533-33.908-56.956-67.731-1.809-3.726-6.295-5.277-10.022-3.471-3.726 1.81-5.28 6.297-3.471 10.024 18.757 38.628 42.124 65.211 66.439 75.853-5.823 19.196-13.828 38.177-24.014 56.788-6.734 12.305-9.856 26.282-9.031 40.421 2.176 37.265 31.868 67.469 69.065 70.256 1.88.142 3.765.212 5.651.212 3.551 0 7.101-.262 10.624-.759 8.761 4.268 18.477 6.838 28.719 7.237.982.038 1.959.058 2.935.058 10.814 0 21.26-2.347 30.787-6.809 2.141.179 4.283.27 6.412.27 1.869 0 3.729-.069 5.571-.207 37.198-2.788 66.89-32.992 69.065-70.257.826-14.139-2.297-28.116-9.031-40.421-10.173-18.589-18.195-37.573-24.022-56.785 22.084-9.72 43.723-32.945 61.588-66.325 18.327-34.245 30.811-75.915 34.253-114.325 2.921-32.611-.795-60.599-11.044-83.188zm-260.616 64.335c0-41.184 9.663-72.973 28.721-94.483 16.699-18.847 40.31-28.809 68.281-28.809s51.582 9.962 68.28 28.809c19.059 21.511 28.722 53.3 28.722 94.483 0 69.212-27.303 144.097-62.533 175.414l-17.803-102.01c-.246-1.408-.66-2.737-1.202-3.984l57.95-54.237c3.024-2.83 3.181-7.576.351-10.601-2.83-3.024-7.576-3.18-10.601-.351l-55.664 52.097v-127.62c0-4.143-3.358-7.5-7.5-7.5s-7.5 3.357-7.5 7.5v56.702l-35.764-24.86c-3.402-2.364-8.075-1.523-10.439 1.878-2.364 3.4-1.524 8.074 1.878 10.438l44.326 30.811v57.417c-4.73 2.288-8.191 6.725-9.166 12.31l-17.803 102.01c-35.231-31.317-62.534-106.199-62.534-175.414zm-4.983 295.831c-.662-11.326 1.833-22.511 7.214-32.345 16.93-30.937 28.173-62.893 33.576-95.252 7.45 9.815 15.392 17.897 23.627 23.955-5.544 26.659-14.495 51.684-26.684 74.504-6.059 11.344-8.992 24.188-8.482 37.145.721 18.347 8.377 35.019 20.379 47.479-27.077-4.629-48.001-27.58-49.63-55.486zm198.88 0c-1.492 25.559-19.177 46.95-42.944 53.926 12.175-13.4 18.84-30.55 18.84-48.841 0-3.534-.256-7.088-.762-10.561-.598-4.099-4.4-6.935-8.503-6.341-4.099.597-6.938 4.403-6.341 8.503.402 2.76.606 5.586.606 8.399 0 15.863-6.299 30.657-17.735 41.658-4.136 3.978-8.749 7.253-13.7 9.798-.257.115-.507.243-.749.385-8.541 4.232-18.066 6.286-27.924 5.906-8.709-.339-16.939-2.655-24.27-6.489-.14-.082-.285-.157-.431-.23-17.614-9.403-29.902-27.666-30.729-48.694-.405-10.297 1.921-20.494 6.726-29.49 14.405-26.971 24.529-56.805 30.09-88.673l19.041-109.105c.076-.434.277-1.588 1.89-1.588 1.612 0 1.813 1.153 1.889 1.588l19.042 109.108c4.496 25.761 12.983 52.188 25.227 78.548 1.744 3.756 6.205 5.387 9.961 3.643 3.757-1.744 5.388-6.204 3.643-9.961-10.158-21.87-17.596-43.737-22.174-65.146 6.714-4.942 13.235-11.226 19.453-18.702 5.719 30.591 16.65 60.793 32.641 90.014 5.38 9.834 7.875 21.019 7.213 32.345z"/></g></svg>