<svg id="Capa_1" enable-background="new 0 0 512.003 512.003" height="512" viewBox="0 0 512.003 512.003" width="512" xmlns="http://www.w3.org/2000/svg"><g><g><path d="m65.449 469.616-23.068-23.068c-43.6-43.6-46.325-112.598-8.175-159.373 2.543-3.118 6.107-5.299 9.014-8.206l6.487-8.128 77.886-77.886 8.099-6.458c2.88-2.88 5.032-6.421 8.12-8.944 46.777-38.224 115.832-35.522 159.459 8.105l23.068 23.068c46.508 46.507 47.345 121.073 0 168.418l-92.473 92.473c-47.345 45.667-121.91 46.507-168.417-.001z" fill="#ffd54f"/><path d="m325.501 207.886-22.229-22.229c-.352-.352-.71-.692-1.065-1.039 45.457 46.586 45.117 121.197-1.039 167.353l-92.473 92.473c-46.155 46.156-120.766 46.497-167.352 1.039.346.355.687.713 1.039 1.065l23.068 23.068c43.601 43.601 112.598 46.326 159.373 8.175 3.118-2.543 5.299-6.107 8.206-9.014l9.795-8.117 74.562-74.562 8.116-9.794c2.88-2.88 6.421-5.032 8.944-8.119 38.223-46.777 36.92-114.434-8.945-160.299z" fill="#ffca28"/><path d="m458.614 36.254c9.447-.505 17.244 7.252 16.786 16.701-1.252 25.871-8.135 75.779-40.946 108.758-24.469 24.593-58.425 34.815-84.837 38.997-22.312 3.533-41.537-15.595-38.118-37.924 4.048-26.433 14.097-60.441 38.566-85.034 32.812-32.979 82.684-40.115 108.549-41.498z" fill="#6fd7a3"/><path d="m387.842 159.58c-57.611 5.499-81.175 29.944-78.585 57.077.314 3.291.975 6.479 2.062 9.508 7.716 21.505 35.279 36.504 85.902 31.672 37.598-3.589 77.513-28.513 100.708-45.396 9.818-7.146 8.383-22.175-2.609-27.335-4.879-2.29-10.392-4.748-16.377-7.205-25.871-10.621-60.567-21.236-91.101-18.321z" fill="#bbf49b"/><path d="m495.319 185.106c-4.879-2.29-10.392-4.748-16.377-7.205-.796 3.571-2.834 6.929-6.186 9.368-23.195 16.884-63.111 41.808-100.708 45.397-26.385 2.518-46.492-.359-60.803-6.728.026.075.046.153.073.227 7.716 21.505 35.279 36.504 85.902 31.672 37.598-3.589 77.513-28.513 100.708-45.397 9.818-7.146 8.384-22.174-2.609-27.334z" fill="#9be69d"/><path d="m352.418 124.156c-5.499 57.611-29.944 81.175-57.077 78.585s-46.679-30.353-41.18-87.964c3.588-37.598 28.513-77.513 45.396-100.708 7.146-9.818 22.175-8.383 27.335 2.609 12.191 25.971 29.114 69.88 25.526 107.478z" fill="#bbf49b"/></g><g><path d="m511.894 197.472c-.795-8.335-5.8-15.438-13.387-18.999-5.537-2.599-11.16-5.073-16.716-7.354-12.697-5.213-24.266-9.115-34.745-11.999 7.366-8.924 13.708-19.211 18.913-30.711 1.707-3.773.033-8.217-3.741-9.925-3.775-1.707-8.217-.034-9.925 3.741-5.808 12.834-13.159 23.896-21.834 32.96-18.776-3.709-33.134-3.885-43.33-2.914-12.375 1.181-23.512 3.228-33.38 6.113 2.904-9.908 4.961-21.063 6.134-33.359 1.006-10.539.778-24.925-2.87-43.421 14.079-13.465 44.996-34.655 102-37.704 2.419-.126 4.702.738 6.417 2.445s2.595 3.981 2.477 6.405c-.456 9.435-1.799 24.002-5.603 39.826-.968 4.027 1.512 8.077 5.54 9.045.589.142 1.179.209 1.759.209 3.387 0 6.46-2.311 7.286-5.749 4.076-16.957 5.513-32.53 6.001-42.607.32-6.62-2.187-13.094-6.88-17.763-4.692-4.669-11.175-7.149-17.798-6.791-25.46 1.362-71.189 7.984-105.137 36.127-4.12-14.948-10.308-32.04-19.395-51.4-3.561-7.587-10.664-12.592-18.999-13.388-8.335-.791-16.256 2.775-21.189 9.552-35.037 48.134-44.788 83.346-46.799 104.409-1.114 11.672-1.253 22.397-.457 32.168-17.477-3.822-35.678-3.934-53.26-.249-4.054.85-6.652 4.825-5.802 8.878.85 4.054 4.823 6.653 8.879 5.802 17.38-3.641 35.444-3.08 52.524 1.584 1.688 7.669 4.112 14.564 7.295 20.628 8.418 16.042 22.182 25.748 38.755 27.33 1.558.148 3.106.223 4.645.223.795 0 1.586-.027 2.376-.067-.117 2.307-.084 4.642.142 7.007.384 4.022 1.215 7.833 2.469 11.327 3.412 9.511 13.988 27.705 45.722 34.716 10.431 37.508.35 77.572-26.806 106.214l-82.312-.414-.415-82.609 74.06.364h.038c4.125 0 7.479-3.333 7.499-7.463.02-4.142-3.321-7.516-7.463-7.537l-74.208-.365-.373-74.217c-.021-4.129-3.374-7.462-7.499-7.462-.013 0-.026 0-.039 0-4.142.021-7.483 3.395-7.462 7.538l.372 74.069-82.589-.406-.409-81.744c3.352-3.301 5.577-5.466 6.265-6.085 5.768-4.704 12.02-8.835 18.582-12.279 3.668-1.925 5.081-6.458 3.156-10.126-1.925-3.667-6.459-5.081-10.126-3.156-7.485 3.928-14.612 8.642-21.183 14.011-3.431 2.804-107.898 107.288-110.672 110.69-19.712 24.167-29.744 54.7-28.252 85.977 1.503 31.495 14.62 61.129 36.933 83.442l23.068 23.067c23.808 23.808 55.439 36.774 88.654 36.774 5.405 0 10.852-.343 16.314-1.039 4.109-.523 7.016-4.279 6.492-8.388-.523-4.108-4.273-7.016-8.388-6.492-34.386 4.385-68.09-7.086-92.466-31.462l-23.068-23.067c-19.669-19.669-31.231-45.79-32.556-73.551-1.314-27.54 7.501-54.42 24.826-75.701.618-.688 2.813-2.944 6.161-6.345l81.741.402.414 82.596-68.543-.345c-.013 0-.025 0-.039 0-4.124 0-7.478 3.333-7.499 7.462-.021 4.142 3.32 7.517 7.462 7.538l68.693.345.344 68.692c.021 4.129 3.375 7.462 7.499 7.462h.039c4.142-.021 7.483-3.396 7.462-7.538l-.343-68.542 82.591.415.413 82.208c-9.938 9.094-21.179 16.332-33.491 21.486-3.821 1.6-5.622 5.994-4.023 9.814 1.204 2.875 3.989 4.606 6.921 4.606.965 0 1.947-.188 2.893-.583 14.992-6.276 28.592-15.244 40.422-26.655.033-.031.065-.063.097-.095l92.473-92.473c31.04-31.04 43.694-74.858 34.375-116.68 3.97.324 8.182.499 12.663.499 5.942 0 12.349-.304 19.251-.963 21.063-2.01 56.274-11.761 104.41-46.799 6.779-4.929 10.349-12.85 9.554-21.185zm-450.991 73.407c19.169-19.284 47.285-47.404 66.544-66.552l.335 66.881zm82.368 98.001-.414-82.598 82.59.406.415 82.607zm165.053 15.83-67.047 67.047-.339-67.386zm-12.27-189.278c-26.087-2.49-38.957-32.316-34.427-79.785 3.495-36.619 29.064-76.496 43.994-97.007 2.565-3.524 6.195-3.585 7.636-3.447s4.994.884 6.846 4.83c10.78 22.965 28.344 66.96 24.849 103.577-1.571 16.463-4.794 30.528-9.584 41.866-5.236 2.603-9.944 5.541-14.072 8.835-7.428 5.928-12.843 12.977-16.106 20.726-2.957.561-6.016.702-9.136.405zm197.461 11.102c-20.512 14.93-60.39 40.499-97.007 43.994-41.495 3.957-70.702-6.036-78.13-26.74-.833-2.321-1.39-4.907-1.656-7.687-.41-4.292-.009-8.367 1.131-12.21.072-.2.137-.402.192-.607 3.297-10.318 12.088-18.889 25.622-25.19.366-.133.718-.3 1.06-.488 11.485-5.153 26.236-8.725 43.827-10.403h.001c29.636-2.828 63.964 8.114 87.539 17.792 5.328 2.188 10.724 4.562 16.038 7.057 3.946 1.852 4.691 5.404 4.829 6.846.138 1.441.078 5.07-3.446 7.636z"/><path d="m189.664 322.491c-2.929-2.929-7.678-2.929-10.606 0-2.929 2.929-2.929 7.678 0 10.607s7.678 2.929 10.607 0c2.928-2.93 2.928-7.678-.001-10.607z"/><path d="m189.664 238.141c2.929-2.929 2.929-7.678 0-10.607s-7.678-2.929-10.606 0c-2.929 2.929-2.929 7.678 0 10.607 2.928 2.929 7.677 2.929 10.606 0z"/><path d="m287.545 238.141c2.929-2.929 2.929-7.678 0-10.607s-7.678-2.929-10.606 0c-2.929 2.929-2.929 7.678 0 10.607 2.928 2.929 7.677 2.929 10.606 0z"/><path d="m82.658 418.138c-2.929 2.929-2.929 7.678 0 10.607s7.678 2.929 10.607 0c2.929-2.929 2.929-7.678 0-10.607s-7.678-2.929-10.607 0z"/><path d="m93.264 333.097c2.929-2.929 2.929-7.677 0-10.607-2.929-2.929-7.678-2.929-10.606 0-2.929 2.929-2.929 7.678 0 10.607s7.678 2.929 10.606 0z"/><path d="m276.938 322.491c-2.929 2.929-2.929 7.678 0 10.607s7.678 2.929 10.606 0c2.929-2.929 2.929-7.677 0-10.607-2.928-2.929-7.677-2.929-10.606 0z"/><path d="m189.664 428.745c2.929-2.929 2.929-7.678 0-10.607s-7.678-2.929-10.606 0c-2.929 2.929-2.929 7.678 0 10.607 2.928 2.929 7.677 2.929 10.606 0z"/></g></g></svg>