<svg id="Capa_1" enable-background="new 0 0 512.001 512.001" height="512" viewBox="0 0 512.001 512.001" width="512" xmlns="http://www.w3.org/2000/svg"><g><g><path d="m460.203 300.309c0 112.772-91.441 202.69-204.213 202.69-4.71 0-9.384 1.342-14.014 1.028-106.235-7.201-190.177-95.657-190.177-203.718 0-34.146 8.381-66.334 23.199-94.62 0 0 93.741-102.862 165.977-108.113 4.958-.36 11.988-.453 17.018 0 111.115 10.012 202.21 89.961 202.21 202.733z" fill="#aa91dc"/><path d="m375.626 165.582c-10.261-12.774-36.715-40.132-55.404-59.145 81.3 26.922 139.96 103.542 139.96 193.872 0 112.772-91.42 204.192-204.192 204.192-5.051 0-10.057-.191-15.016-.551 105.76-7.688 189.176-95.919 189.176-203.64 0-1.2-.01-2.398-.031-3.594-.55-31.796-10.379-62.741-27.616-89.465z" fill="#9678cd"/><ellipse cx="149.38" cy="152.944" fill="#e19974" rx="84.184" ry="63.718" transform="matrix(.919 -.394 .394 .919 -48.175 71.225)"/><path d="m282.825 119.776c-13.865 32.344 9.538 73.414 52.271 91.732 10.656 4.568 21.508 7.289 32.01 8.3 0 0 53.055-2.106 64.067-29.134 13.277-32.59-4.316-76.781-47.049-95.099-17.343-7.434-50.052-9.411-50.052-9.411-23.468 2.581-43.009 14.394-51.247 33.612z" fill="#b67f5f"/><path d="m385.304 94.379c-17.356-7.44-35.232-9.983-51.271-8.211 10.266 1.067 20.85 3.753 31.25 8.211 42.733 18.318 66.136 59.388 52.271 91.732-8.233 19.207-27.758 31.018-51.208 33.607 31.917 3.317 60.739-9.135 71.229-33.607 13.865-32.344-9.538-73.414-52.271-91.732z" fill="#a06e50"/><path d="m276.679 115.095-10.512-43.254h-.001c-9.116-36.818-22.585-64.802-46.959-64.302-8.748-.604-16.328 5.998-16.932 14.746v.001c-.603 8.748 5.999 16.328 14.747 16.932h.001c11.183.763 14.34 17.037 16.717 31.26l8.07 49.622z" fill="#b67f5f"/><path d="m333.071 153.478c0 42.323-35.036 81.242-76.079 81.242-3.391 0-11.011.097-11.011.097-38.466-5.539-68.198-42.34-68.198-81.339s29.732-66.589 68.198-70.681c3.278-.349 6.619.766 10.01.766 43.193 0 77.08 27.592 77.08 69.915z" fill="#b67f5f"/><path d="m255.99 82.27c-3.394 0-6.73.199-10.01.548 38.462 4.095 68.198 31.663 68.198 70.66 0 39-29.732 75.8-68.198 81.338 3.278.472 6.619.718 10.01.718 43.193 0 78.208-39.734 78.208-82.056.001-42.323-35.014-71.208-78.208-71.208z" fill="#a06e50"/></g><g><path d="m399.135 435.219c-18.205 19.308-39.693 34.501-63.867 45.159-25.021 11.03-51.69 16.623-79.267 16.623-83.42 0-158.023-52.853-185.639-131.518-1.371-3.908-5.652-5.965-9.561-4.592-3.908 1.372-5.964 5.653-4.592 9.561 29.723 84.665 110.013 141.549 199.793 141.549 29.674 0 58.379-6.022 85.317-17.898 26.018-11.47 49.143-27.819 68.73-48.594 2.842-3.014 2.702-7.76-.312-10.602-3.015-2.841-7.761-2.702-10.602.312z"/><path d="m440.55 196.575c1.479-2.394 2.806-4.889 3.929-7.508 5.95-13.881 6.148-29.474.574-45.091-5.276-14.783-15.348-28.548-29.125-39.809-3.204-2.621-7.931-2.146-10.553 1.061s-2.146 7.932 1.061 10.554c23.536 19.238 33.284 46.314 24.256 67.376-5.758 13.433-18.303 23.153-35.324 27.372-17.779 4.407-38.132 2.306-57.306-5.914-3.265-1.399-6.457-2.995-9.569-4.73 8.508-14.157 13.215-30.334 13.215-46.406 0-22.241-9.061-41.763-24.142-55.805 18.71-7.104 42.532-5.943 64.793 3.6 3.811 1.633 8.218-.133 9.849-3.938 1.632-3.807-.132-8.216-3.939-9.849-29.108-12.478-60.944-12.397-84.395-.057-8.568-5.109-18.294-8.82-28.861-10.855-8.364-36.738-22.431-76.542-55.118-76.542-.17 0-.341.001-.512.003-6.104-.332-11.993 1.69-16.614 5.715-4.709 4.101-7.539 9.791-7.968 16.021-.43 6.229 1.592 12.253 5.694 16.962 4.101 4.708 9.791 7.538 16.026 7.968 5.749.393 8.494 16.948 10.134 26.839.305 1.836.603 3.63.912 5.357-7.414 2.244-14.321 5.347-20.581 9.217-23.577-13.05-55.872-13.395-85.655-.629-22.16 9.5-40.244 25.05-50.921 43.787-11.064 19.415-12.941 39.94-5.289 57.794 1.44 3.358 3.181 6.537 5.203 9.522-17.031 31.043-26.016 66.099-26.016 101.721 0 12.963 1.181 25.947 3.511 38.592.666 3.614 3.819 6.143 7.367 6.143.451 0 .909-.041 1.368-.125 4.074-.751 6.768-4.661 6.017-8.735-2.165-11.751-3.263-23.82-3.263-35.874 0-31.344 7.503-62.203 21.729-89.875 7.983 6.761 17.984 11.778 29.588 14.653 7.253 1.797 14.84 2.687 22.583 2.687 14.604-.001 29.759-3.166 44.241-9.374 4.861-2.084 9.564-4.491 14.06-7.175 1.193 1.45 2.414 2.878 3.696 4.258 16.517 17.766 38.107 27.55 60.795 27.55 22.687 0 44.278-9.784 60.795-27.55 1.009-1.085 1.989-2.195 2.943-3.324 4.018 2.316 8.164 4.42 12.414 6.242 14.483 6.208 29.636 9.373 44.241 9.373 7.741 0 15.331-.89 22.583-2.687 12.413-3.076 23.003-8.591 31.236-16.084 14.719 28.05 22.48 59.398 22.48 91.306 0 39.469-11.642 77.536-33.668 110.086-2.321 3.431-1.422 8.093 2.009 10.415 1.288.872 2.75 1.289 4.196 1.289 2.405 0 4.769-1.155 6.219-3.298 23.711-35.042 36.244-76.016 36.244-118.493 0-36.422-9.375-72.179-27.142-103.736zm-199.097-125.489c-2.67-16.1-6.327-38.151-23.907-39.35-4.608-.318-8.098-4.326-7.78-8.935.318-4.608 4.321-8.107 8.934-7.78.223.015.447.02.67.016 17.029-.35 29.773 18.726 39.812 59.801-1.057-.032-2.112-.069-3.181-.069-4.709 0-9.303.321-13.767.93-.26-1.477-.518-3.028-.781-4.613zm-69.914 133.528c-38.864 16.659-80.418 7.033-92.63-21.458-5.758-13.433-4.148-29.221 4.534-44.458 9.069-15.915 24.623-29.207 43.798-37.426 23.064-9.887 47.563-10.797 66.494-2.925-14.656 13.991-23.443 33.239-23.443 55.13 0 15.687 4.479 31.477 12.604 45.39-3.648 2.127-7.435 4.066-11.357 5.747zm84.462 23.42c-37.667 0-70.709-34.839-70.709-74.556 0-18.216 7.045-34.073 20.374-45.856 13.023-11.512 30.898-17.852 50.335-17.852s37.311 6.34 50.334 17.852c13.329 11.783 20.374 27.64 20.374 45.856 0 39.716-33.041 74.556-70.708 74.556z"/></g></g></svg>