<svg id="Capa_1" enable-background="new 0 0 512 512" height="512" viewBox="0 0 512 512" width="512" xmlns="http://www.w3.org/2000/svg"><g><g><path d="m236.996 190.843s-1.564 6.909-5.868 17.639c-3.599 8.97-6.943 22.72-15.059 35.226-4.942 7.615-13.018 13.442-20.045 21.292-8.409 9.394-18.423 18.663-30.306 27.11-44.451 31.597-97.97 90.266-69.382 158.534 14.004 33.443 58.094 50.365 94.467 42.377 2.204-.484 3.295-2.895 5.433-3.563 1.962-.613 4.977.53 6.871-.242 22.794-9.291 40.169-30.165 40.806-65.136 1.358-74.533-6.917-233.237-6.917-233.237z" fill="#eaf9fa"/><path d="m236.997 190.843s-8.607 37.997-40.975 74.154c-6.704 18.512-14.955 36.171-25.074 50.627-19.192 27.417-28.711 53.011-32.214 75.958-6.555 42.945 15.83 82.759 51.431 101.562 28.84-6.089 52.994-27.718 53.748-69.064 1.358-74.533-6.916-233.237-6.916-233.237z" fill="#d4f2f6"/><path d="m275.141 190.843s12.654 62.306 70.279 103.267c44.451 31.597 96.97 88.266 68.382 156.534-12.927 30.869-49.486 47.662-83.949 43.783-32.189-3.623-60.806-25.281-61.628-70.346-1.358-74.534 6.916-233.238 6.916-233.238z" fill="#eaf9fa"/><path d="m319.308 315.625c-21.006-30.008-31.976-73.807-39.722-110.42-1.811-8.559-4.336-16.725-5.611-24.23-1.831-10.773-2.147-20.184-3.056-27.442-1.226-9.798-1.709-15.671-1.709-15.671h-13.141-13.141s-9.62 117.081-52.097 177.764c-19.192 27.417-28.711 53.011-32.214 75.958-8.668 56.787 33.261 108.11 89.448 112.599 2.638.211 5.307.318 8.004.318 60.142 0 104.527-53.463 95.452-112.917-3.502-22.949-13.021-48.542-32.213-75.959z" fill="#eaf9fa"/><path d="m353.521 391.583c-3.502-22.948-13.022-48.541-32.213-75.959-42.478-60.683-52.098-177.763-52.098-177.763h-13.141-6.742s9.62 117.081 52.098 177.763c19.192 27.417 28.711 53.011 32.213 75.959 8.568 56.132-32.303 106.914-87.51 112.415 3.267.326 6.581.501 9.942.501 60.141.001 106.526-53.462 97.451-112.916z" fill="#d4f2f6"/><path d="m314.709 42.99c-6.073-3.506-13.361-3.995-18.797-.301-2.135 1.451-3.984 3.395-5.362 5.78l-14.192 24.581v-45.261c0-11.206-9.084-20.289-20.29-20.289-11.206 0-20.289 9.084-20.289 20.289v45.261l-13.96-24.18c-4.956-8.585-16.191-11.819-24.681-6.703-8.234 4.962-11.01 15.626-6.182 23.987l50.461 87.402h28.304l50.467-87.402c4.884-8.458 2.98-18.28-5.479-23.164z" fill="#bbf49b"/><path d="m314.709 41.996c-6.073-3.506-13.35-2.983-18.785.71 7.593 5.159 10.038 15.371 5.375 23.449l-50.461 87.402h19.883l50.461-87.402c4.884-8.459 1.986-19.275-6.473-24.159z" fill="#9be69d"/><path d="m346.42 292.111c-57.624-40.961-71.279-101.267-71.279-101.267s-.88 16.882-2.019 42.217c10.901 18.846 27.817 40.855 53.415 59.05 44.451 31.597 97.97 90.265 69.382 158.534-10.471 25.004-37.759 40.751-66.065 43.778 34.464 3.88 73.022-12.908 85.949-43.778 28.587-68.269-24.932-126.938-69.383-158.534z" fill="#d4f2f6"/></g><path d="m406.849 340.986c-2.373-3.396-7.049-4.227-10.443-1.853-3.396 2.372-4.226 7.048-1.854 10.443 23 32.927 27.822 65.956 14.332 98.171-6.506 15.537-21.293 28.266-40.569 34.921-14.195 4.901-29.204 6.069-42.872 3.536 3.978-3.435 7.73-7.175 11.204-11.221 20.069-23.364 28.921-54.175 24.288-84.532-4.053-26.556-15.318-53.178-33.483-79.127-10.042-14.346-18.207-32.117-24.809-50.717 10.181 12.919 23.104 26.009 39.432 37.616 11.792 8.382 22.621 17.537 32.185 27.213 1.467 1.484 3.4 2.228 5.335 2.228 1.904 0 3.81-.722 5.272-2.166 2.946-2.912 2.973-7.661.061-10.606-10.172-10.29-21.666-20.012-34.163-28.895-38.62-27.452-56.671-63.931-64.094-83.661-4.039-19.283-6.576-36.275-8.026-47.505l49.032-84.925c6.815-11.804 2.864-27.128-8.807-34.161-5.721-3.448-12.503-4.41-19.099-2.708-6.676 1.722-12.472 6.102-15.913 12.024v-17.272c.001-15.323-12.466-27.789-27.789-27.789s-27.79 12.466-27.79 27.789v17.271c-3.441-5.922-9.237-10.303-15.913-12.024-6.594-1.701-13.378-.739-19.099 2.708-11.671 7.033-15.621 22.358-8.806 34.161l15.986 27.689c2.072 3.587 6.659 4.815 10.245 2.745 3.587-2.071 4.816-6.658 2.745-10.245l-15.986-27.689c-2.756-4.773-1.16-10.971 3.558-13.813 2.244-1.353 4.945-1.719 7.611-1.031 2.825.729 5.268 2.573 6.704 5.06l13.96 24.181c1.697 2.939 5.156 4.373 8.436 3.494 3.279-.878 5.559-3.85 5.559-7.244v-45.263c0-7.052 5.737-12.789 12.79-12.789 7.052 0 12.79 5.737 12.79 12.789v45.262c0 3.395 2.28 6.366 5.559 7.244 3.277.878 6.739-.555 8.436-3.494l13.96-24.181c1.436-2.486 3.879-4.331 6.704-5.06 2.664-.687 5.367-.32 7.611 1.031 4.718 2.843 6.314 9.04 3.559 13.813l-48.296 83.651h-20.644l-16.054-27.806c-2.071-3.588-6.659-4.815-10.245-2.745-3.587 2.071-4.816 6.658-2.745 10.245l16.79 29.08c-1.449 11.23-3.986 28.22-8.024 47.502-7.423 19.73-25.475 56.212-64.096 83.665-19.706 14.008-46.852 37.165-64.263 67.935-18.84 33.295-21.428 66.809-7.692 99.608 8.154 19.474 26.2 35.259 49.509 43.307 10.91 3.768 22.274 5.646 33.383 5.646 10.472 0 20.714-1.679 30.133-5.014 1.782 1.043 3.589 2.055 5.447 3.002 1.091.557 2.255.82 3.401.82 2.73 0 5.362-1.496 6.688-4.095 1.881-3.69.416-8.207-3.274-10.089-35.006-17.85-54.566-55.788-48.672-94.403 3.702-24.256 14.113-48.745 30.944-72.789 14.544-20.777 26.853-49.884 36.583-86.511 7.315-27.538 11.724-53.859 14.24-72.358h16.543c2.517 18.501 6.926 44.822 14.241 72.357 9.73 36.628 22.038 65.734 36.583 86.512 16.83 24.044 27.241 48.533 30.943 72.789 3.973 26.028-3.622 52.452-20.838 72.495-17.354 20.203-42.576 31.79-69.2 31.79-4.24 0-8.498-.291-12.655-.866-4.104-.567-7.89 2.3-8.456 6.402-.567 4.103 2.299 7.89 6.402 8.457 4.835.668 9.784 1.007 14.708 1.007 19.076 0 37.529-5.115 53.615-14.525 9.422 3.338 19.667 5.018 30.146 5.018 11.107 0 22.474-1.88 33.382-5.646 23.309-8.048 41.354-23.833 49.509-43.307 15.383-36.74 9.894-75.661-15.875-112.552zm-222.162-29.662c-18.165 25.949-29.431 52.571-33.484 79.127-5.564 36.45 8.316 72.369 35.441 95.761-13.656 2.521-28.645 1.352-42.822-3.544-19.276-6.655-34.063-19.384-40.569-34.921-9.9-23.642-23.208-85.537 66.809-149.523 16.329-11.607 29.252-24.698 39.433-37.617-6.601 18.6-14.766 36.37-24.808 50.717z"/></g></svg>