<svg id="Capa_1" enable-background="new 0 0 512 512" height="512" viewBox="0 0 512 512" width="512" xmlns="http://www.w3.org/2000/svg"><g><g><path d="m277.033 55.528c0-11.617-9.417-21.034-21.033-21.034-11.617 0-21.034 9.417-21.034 21.034v93.196h42.067z" fill="#b67f5f"/><path d="m378.326 8.505c5.931-.18 9.613 3.944 8.901 9.834-1.962 16.237-7.544 46.334-29.588 66.478-30.957 28.289-80.687 25.266-80.687 25.266s.462-49.89 31.42-78.179c16.451-15.033 38.202-20.941 54.975-23.177 0 0 10.831-.097 14.979-.222z" fill="#bbf49b"/><path d="m378.326 7.505c-4.147.126-9.277.463-14.979 1.223 3.289 1.842 5.372 5.542 4.88 9.611-1.962 16.237-8.544 47.334-30.588 67.478-18.388 16.803-43.399 22.206-60.677 23.823-.008.285-.009.442-.009.442s49.729 4.024 80.687-24.266c22.044-20.144 28.626-51.241 30.588-67.478.711-5.889-3.971-11.013-9.902-10.833z" fill="#9be69d"/><path d="m452.663 306.837c0 109.166-87.497 197.434-196.663 197.434-3.206 0-6.394.153-9.563.002-104.725-4.988-188.1-91.475-188.1-197.436 0-106.176 83.715-192.799 188.74-197.465 2.958-.131 5.932.802 8.922.802 109.167.001 196.664 87.497 196.664 196.663z" fill="#ffaa5f"/><path d="m256 109.175c-3.237 0-6.454.084-9.653.237 104.682 5.035 188.011 91.496 188.011 197.425 0 105.93-83.328 192.391-188.011 197.425 3.199.154 6.416.238 9.653.238 109.166 0 197.663-88.497 197.663-197.663s-88.497-197.662-197.663-197.662z" fill="#ff8c5a"/></g><g><path d="m433.459 394.317c-3.643-1.976-8.194-.622-10.168 3.019-33.328 61.475-97.431 99.664-167.291 99.664-104.856 0-190.163-85.307-190.163-190.163 0-25.597 4.997-50.429 14.852-73.807 1.609-3.817-.181-8.215-3.998-9.824-3.815-1.608-8.215.182-9.824 3.998-10.636 25.232-16.029 52.024-16.029 79.633-.001 113.128 92.035 205.163 205.162 205.163 75.369 0 144.524-41.198 180.479-107.516 1.973-3.641.621-8.193-3.02-10.167z"/><path d="m322.35 112.69c13.687-3.783 28.243-10.275 40.348-21.337 23.729-21.683 30.845-54.489 32.975-72.115.602-4.979-.991-9.956-4.369-13.652-3.377-3.696-8.178-5.732-13.204-5.579 0 0 0 0-.001 0-17.745.538-51.059 4.677-74.786 26.359-8.164 7.461-14.357 16.219-19.059 25.209-1.932-13.868-13.862-24.581-28.254-24.581-15.733 0-28.534 12.8-28.534 28.534 0 4.142 3.358 7.5 7.5 7.5s7.5-3.358 7.5-7.5c0-7.462 6.071-13.534 13.534-13.534 7.462 0 13.533 6.071 13.533 13.534v46.604c-4.475-.293-8.985-.458-13.533-.458-4.522 0-9.036.154-13.534.451v-13.905c0-4.142-3.358-7.5-7.5-7.5s-7.5 3.358-7.5 7.5v15.469c-25.46 3.568-50.112 11.86-72.48 24.537-29.713 16.839-54.991 41.06-73.1 70.044-2.195 3.513-1.126 8.14 2.386 10.335 3.513 2.195 8.141 1.127 10.334-2.386 16.791-26.874 40.228-49.331 67.775-64.943 28.399-16.094 60.771-24.601 93.619-24.601 104.856 0 190.163 85.307 190.163 190.163 0 20.682-3.299 41.016-9.804 60.439-1.316 3.928.802 8.178 4.73 9.494.79.265 1.593.39 2.383.39 3.136 0 6.06-1.982 7.11-5.12 7.021-20.961 10.581-42.898 10.581-65.203 0-89.918-58.148-166.504-138.813-194.148zm-8.919-75.25c20.155-18.418 49.452-21.964 65.121-22.439.84-.03 1.372.369 1.678.704.307.335.65.908.55 1.734-1.88 15.563-8.044 44.422-28.201 62.841-21.355 19.515-53.304 22.285-67.621 22.474 1.452-14.231 7.045-45.731 28.473-65.314z"/><path d="m363.426 401.702c3.278 2.532 7.988 1.928 10.52-1.351 2.532-3.278 1.927-7.988-1.351-10.52s-7.988-1.928-10.52 1.351c-2.532 3.277-1.927 7.988 1.351 10.52z"/><path d="m313.528 400.351c2.532-3.278 1.928-7.988-1.35-10.52s-7.988-1.928-10.52 1.351c-2.532 3.278-1.927 7.988 1.35 10.52s7.987 1.927 10.52-1.351z"/><path d="m363.426 352.11c3.278 2.532 7.988 1.927 10.52-1.35 2.532-3.278 1.927-7.988-1.351-10.52s-7.988-1.928-10.52 1.35c-2.532 3.277-1.927 7.988 1.351 10.52z"/></g></g></svg>