<svg id="Capa_1" enable-background="new 0 0 512.029 512.029" height="512" viewBox="0 0 512.029 512.029" width="512" xmlns="http://www.w3.org/2000/svg"><g><g><path d="m447.821 92.004 50.936-50.936c7.676-7.676 7.676-20.121 0-27.797-7.676-7.676-20.121-7.676-27.797 0l-50.936 50.936c4.098 13.591 14.206 23.7 27.797 27.797z" fill="#b67f5f"/><path d="m433.44 239.27 20.541-20.541c45.475-45.475 47.475-117.206 2-162.681-4.742-4.742-9.792-8.99-15.085-12.744-45.461-32.237-108.863-27.989-149.596 12.744l-20.542 20.542c-28.291 28.291-63.676 48.205-102.258 58.798-39.952 10.97-79.479 33.482-112.953 66.956-56.023 56.024-51.971 158.394-42.136 223.667 1.767 11.73 5.855 22.667 11.786 32.333 13.047 21.266 33.015 34.384 58.82 38.273 65.273 9.836 167.643 13.887 223.667-42.137 33.474-33.474 55.986-73 66.956-112.953 10.595-38.581 30.508-73.965 58.8-102.257z" fill="#bbf49b"/><path d="m376.641 343.528c10.594-38.582 30.508-73.967 58.799-102.258l20.541-20.541c45.475-45.475 45.475-119.206 0-164.681-4.743-4.743-9.796-8.983-15.09-12.737 32.237 45.461 27.996 108.859-12.737 149.591l-20.541 20.541c-28.291 28.291-48.205 63.676-58.799 102.258-10.97 39.952-33.482 79.479-66.956 112.953-56.024 56.024-158.394 51.972-223.667 42.136-11.895-1.792-22.969-5.977-32.735-12.044 13.077 21.052 34.921 36.007 60.562 39.871 65.273 9.836 167.644 13.887 223.668-42.137 33.472-33.473 55.984-73 66.955-112.952z" fill="#9be69d"/><path d="m332.118 321.346c8.424-27.627 30.458-60.276 51.199-81.017l29.202-29.202c29.862-29.862 34.367-74.953 12.559-106.455-2.36-3.409-5.041-6.65-8.018-9.704-3.054-2.977-6.295-5.658-9.703-8.018-31.502-21.807-76.593-17.303-106.455 12.56l-29.202 29.202c-20.741 20.741-53.39 42.775-81.017 51.199-28.609 8.724-64.258 32.699-88.798 57.239-41.073 41.073-40.604 113.621-35.159 159.709.978 8.282 3.622 15.947 7.603 22.667 2.278 3.846 4.91 7.28 7.866 10.308 3.028 2.956 6.462 5.587 10.308 7.866 6.72 3.981 14.385 6.625 22.667 7.603 46.088 5.445 118.636 5.914 159.709-35.159 24.54-24.54 48.515-60.19 57.239-88.798z" fill="#ffaa5f"/><g fill="#b67f5f"><path d="m163.974 270.958c-2.805-2.805-2.805-7.354 0-10.159 2.805-2.805 7.353-2.805 10.159 0 2.805 2.805 2.805 7.353 0 10.159-2.806 2.805-7.354 2.806-10.159 0z"/><path d="m201.522 308.507c-2.805-2.805-2.805-7.353 0-10.159 2.805-2.805 7.353-2.805 10.159 0 2.805 2.805 2.805 7.353 0 10.159-2.805 2.805-7.354 2.805-10.159 0z"/><path d="m142.225 367.804c-2.805-2.805-2.805-7.354 0-10.159 2.805-2.805 7.353-2.805 10.159 0 2.805 2.805 2.805 7.353 0 10.159-2.805 2.805-7.354 2.805-10.159 0z"/><path d="m151.652 322.828c-2.805-2.805-2.805-7.353 0-10.159 2.805-2.805 7.353-2.805 10.159 0 2.805 2.805 2.805 7.353 0 10.159-2.806 2.806-7.354 2.806-10.159 0z"/><path d="m189.2 360.377c-2.805-2.805-2.805-7.353 0-10.159 2.805-2.805 7.353-2.805 10.159 0 2.805 2.805 2.805 7.353 0 10.159-2.805 2.805-7.353 2.805-10.159 0z"/><path d="m239.07 346.055c-2.805-2.805-2.805-7.353 0-10.159 2.805-2.805 7.353-2.805 10.159 0 2.805 2.805 2.805 7.353 0 10.159-2.805 2.805-7.353 2.805-10.159 0z"/></g></g><g><path d="m504.084 7.946c-10.596-10.593-27.831-10.591-38.425 0l-25.684 25.684c-22.558-14.297-49.377-20.969-76.235-18.819-29.311 2.338-56.92 15.092-77.741 35.912l-4.05 4.05c-2.934 2.935-2.934 7.692 0 10.627 2.936 2.934 7.691 2.934 10.627 0l4.05-4.05c18.296-18.297 42.556-29.505 68.309-31.56 25.484-2.037 50.91 4.941 71.628 19.631 4.997 3.544 9.747 7.557 14.118 11.929 42.473 42.472 42.473 111.581.001 154.054l-20.543 20.541c-28.623 28.624-49.624 65.134-60.73 105.582-9.908 36.083-29.283 70.729-56.033 100.194-2.789 3.073-2.56 7.824.513 10.614 1.44 1.307 3.247 1.95 5.049 1.95 2.045 0 4.082-.83 5.566-2.463 28.328-31.205 48.867-67.969 59.396-106.317 10.419-37.94 30.083-72.15 56.866-98.934l20.543-20.542c41.734-41.734 47.424-106.065 17.084-153.969l25.692-25.691c10.592-10.593 10.592-27.83-.001-38.423zm-10.626 27.797-23.987 23.987c-2.549-3.101-5.268-6.109-8.164-9.006-2.866-2.867-5.892-5.58-9.019-8.153l23.998-23.998c4.735-4.733 12.438-4.735 17.172 0 4.733 4.733 4.733 12.436 0 17.17z"/><path d="m70.854 195.664c1.733 0 3.476-.597 4.894-1.815 28.198-24.234 60.964-41.948 94.755-51.227 37.098-10.186 71.189-28.868 98.588-54.029 3.057-2.807 3.259-7.56.452-10.616-2.806-3.056-7.561-3.258-10.616-.452-25.647 23.552-57.6 41.051-92.402 50.607-35.921 9.863-70.698 28.646-100.571 54.321-3.147 2.704-3.506 7.448-.801 10.596 1.486 1.729 3.587 2.615 5.701 2.615z"/><path d="m290.814 462.838c-24.653 18.286-58.295 29.356-99.99 32.904-31.118 2.646-65.999 1.11-103.674-4.567-23.09-3.478-43.331-16.882-55.535-36.772-5.552-9.049-9.172-18.981-10.76-29.522-5.907-39.202-7.332-75.31-4.235-107.318 4.168-43.081 16.529-77.285 36.74-101.662 2.648-3.194 2.206-7.932-.988-10.58-3.193-2.648-7.931-2.207-10.58.988-22.165 26.733-35.667 63.678-40.13 109.807-3.216 33.236-1.758 70.583 4.334 111.004 1.889 12.544 6.199 24.368 12.811 35.144 14.527 23.678 38.622 39.632 66.104 43.772 26.477 3.99 51.661 5.992 75.24 5.992 11.01 0 21.67-.437 31.946-1.312 44.517-3.787 80.741-15.834 107.67-35.807 3.333-2.473 4.03-7.179 1.559-10.512-2.473-3.333-7.179-4.031-10.512-1.559z"/><path d="m67.878 423.344c2.554 4.309 5.566 8.254 8.952 11.726.043.043.087.087.13.13 3.472 3.387 7.417 6.398 11.726 8.952 7.8 4.62 16.418 7.514 25.615 8.601 15.074 1.781 29.556 2.671 43.353 2.671 14.219 0 27.712-.945 40.374-2.837 35.13-5.246 62.778-17.743 82.177-37.141 26.749-26.75 50.505-63.69 59.113-91.921h-.001c7.381-24.202 27.664-56.233 49.326-77.895l29.201-29.201c32.103-32.104 37.748-80.907 13.425-116.045-2.58-3.727-5.546-7.317-8.815-10.672-.045-.046-.091-.092-.137-.137-3.355-3.27-6.945-6.235-10.672-8.814-35.138-24.326-83.942-18.679-116.045 13.424l-29.201 29.201c-21.662 21.663-53.694 41.946-77.895 49.325-28.231 8.609-65.172 32.365-91.921 59.113-19.397 19.398-31.895 47.047-37.141 82.177-3.727 24.949-3.782 53.119-.166 83.728 1.088 9.199 3.982 17.817 8.602 25.615zm39.333-180.892c25.161-25.162 59.592-47.411 85.677-55.365 30.873-9.414 64.504-33.439 84.139-53.073l29.201-29.201c26.965-26.967 67.704-31.883 96.865-11.694 3.016 2.086 5.931 4.492 8.667 7.152 2.66 2.736 5.066 5.651 7.153 8.667 20.188 29.163 15.269 69.901-11.695 96.865l-29.201 29.201c-19.633 19.634-43.657 53.264-53.072 84.139h-.001c-7.953 26.084-30.203 60.516-55.365 85.677-39.8 39.801-113.267 37.768-153.514 33.01-7.102-.839-13.736-3.061-19.719-6.606-3.255-1.928-6.224-4.187-8.824-6.714-2.527-2.601-4.786-5.569-6.715-8.824-3.544-5.982-5.767-12.616-6.605-19.719-4.757-40.251-6.792-113.716 33.009-153.515z"/><path d="m174.146 270.946c2.805-2.805 2.805-7.353 0-10.159-2.805-2.805-7.354-2.805-10.159 0-2.805 2.805-2.805 7.353 0 10.159s7.353 2.806 10.159 0z"/><path d="m211.694 308.494c2.805-2.805 2.805-7.353 0-10.159-2.805-2.805-7.354-2.805-10.159 0-2.805 2.805-2.805 7.353 0 10.159s7.354 2.806 10.159 0z"/><path d="m152.397 367.792c2.805-2.805 2.805-7.353 0-10.159-2.805-2.805-7.353-2.805-10.158 0-2.805 2.805-2.805 7.353 0 10.159 2.805 2.805 7.353 2.805 10.158 0z"/><path d="m161.824 322.816c2.805-2.805 2.805-7.353 0-10.159-2.805-2.805-7.354-2.805-10.159 0-2.805 2.805-2.805 7.354 0 10.159 2.805 2.806 7.353 2.806 10.159 0z"/><path d="m199.372 360.365c2.805-2.805 2.805-7.353 0-10.159-2.805-2.805-7.353-2.805-10.159 0-2.805 2.805-2.805 7.353 0 10.159 2.806 2.805 7.354 2.805 10.159 0z"/><path d="m249.242 346.043c2.805-2.805 2.805-7.354 0-10.159s-7.353-2.805-10.159 0c-2.805 2.805-2.805 7.353 0 10.159 2.806 2.805 7.354 2.805 10.159 0z"/></g></g></svg>