<svg id="Capa_1" enable-background="new 0 0 512 512" height="512" viewBox="0 0 512 512" width="512" xmlns="http://www.w3.org/2000/svg"><g><g><path d="m264.81 51.319c1.879 6.347 4.065 13 5.83 20.066 1.21 6.002 1.877 9.84 1.877 9.84l-33.723 1.728s.689-3.229-.557-12.364c-2.384-14.246-5.569-30.482-16.758-31.246-8.783-.605-15.411-8.216-14.805-16.998v-.001c.606-8.782 8.216-15.411 16.999-14.805 10.791-.222 19.452 5.118 26.549 14.326-.001 0 9.427 12.022 14.588 29.454z" fill="#b67f5f"/><path d="m381.691 300.076c-48.253-77.616-11.203-226.862-95.268-230.39-2.146-.09-8.593-.22-15.087 1.507-1.374.365-2.749.769-4.087 1.21-7.32 2.414-15.178 2.414-22.498 0-7.661-2.526-16.574-3.827-19.174-3.718-84.065 3.528-48.016 153.775-96.269 231.391-12.221 19.658-18.595 42.793-18.595 67.213 0 70.996 57.088 129.39 130.271 136.487 4.936.479 9.946-.277 15.016-.277 80.239-.001 144.286-60.425 144.286-136.21 0-24.42-6.375-47.556-18.595-67.213z" fill="#bbf49b"/><path d="m382.692 300.076c-48.253-77.616-12.204-227.863-96.269-231.391-2.146-.09-8.593.783-15.086 2.51 64.77 20.298 36.214 156.321 81.324 228.881 12.221 19.658 18.595 42.793 18.595 67.213 0 70.996-57.088 129.388-130.271 136.485 4.936.479 9.945.726 15.016.726 80.239-.001 145.287-61.426 145.287-137.211-.001-24.42-6.376-47.556-18.596-67.213z" fill="#9be69d"/></g><g><path d="m389.061 296.116c-18.556-29.848-24.143-71.436-29.545-111.655-4.126-30.718-8.023-59.732-17.545-82.082-11.346-26.632-29.413-40.104-55.234-41.188-2.193-.087-6.205.374-10.693 1.242-1.331-4.837-2.697-9.315-4.136-13.535-1.337-3.92-5.599-6.013-9.52-4.678-3.92 1.337-6.015 5.599-4.678 9.519 1.296 3.799 2.566 7.958 3.797 12.412-4.787.955-9.705.678-14.408-.872-.745-.246-1.512-.48-2.287-.708-2.522-14.044-7.1-31.639-22.819-32.712-2.249-.155-4.303-1.176-5.783-2.876s-2.21-3.875-2.055-6.125c.155-2.249 1.176-4.303 2.876-5.783 1.7-1.481 3.873-2.212 6.124-2.055.223.016.446.02.67.016 7.727-.172 14.417 3.572 20.455 11.407 2.529 3.28 7.237 3.891 10.519 1.362 3.281-2.529 3.89-7.238 1.362-10.519-8.944-11.604-19.813-17.392-32.322-17.252-6.124-.328-12.025 1.695-16.659 5.73-4.722 4.112-7.559 9.817-7.99 16.063s1.597 12.286 5.709 17.008c4.112 4.721 9.817 7.559 16.068 7.989 3.696.252 6.207 7.458 7.858 14.531-1.432-.141-2.659-.202-3.563-.165-25.821 1.084-43.888 14.557-55.234 41.189-9.521 22.35-13.419 51.364-17.545 82.082-.951 7.077-1.934 14.395-2.988 21.61-.599 4.099 2.239 7.907 6.337 8.505 4.104.597 7.907-2.239 8.505-6.337 1.066-7.301 2.055-14.662 3.011-21.781 3.987-29.683 7.753-57.719 16.479-78.2 9.094-21.348 22.067-31.242 42.049-32.08 1.755-.066 9.652 1.081 16.525 3.347 8.896 2.934 18.301 2.934 27.195 0 6.875-2.267 14.797-3.367 16.511-3.348 19.996.839 32.968 10.733 42.063 32.081 8.725 20.481 12.491 48.517 16.479 78.2 5.613 41.787 11.417 84.997 31.672 117.578 11.426 18.378 17.465 40.25 17.465 63.253 0 36.22-15.462 69.822-43.539 94.618-3.104 2.742-3.398 7.482-.657 10.587 1.482 1.678 3.548 2.535 5.625 2.535 1.764 0 3.536-.619 4.962-1.878 30.892-27.282 48.609-65.867 48.609-105.861.001-25.805-6.82-50.416-19.725-71.174z"/><path d="m324.726 479.736c-20.801 11.294-44.566 17.263-68.726 17.264-75.976-.001-137.787-58.19-137.787-129.711 0-23.003 6.039-44.875 17.465-63.253 10.099-16.245 17.412-36.295 23.016-63.101.848-4.055-1.752-8.028-5.807-8.876-4.052-.848-8.028 1.753-8.876 5.807-5.233 25.034-11.929 43.543-21.072 58.25-12.904 20.758-19.726 45.369-19.726 71.173 0 79.792 68.54 144.709 152.787 144.711 26.652-.001 52.892-6.599 75.884-19.081 3.64-1.977 4.989-6.529 3.013-10.17-1.977-3.639-6.528-4.989-10.171-3.013z"/></g></g></svg>