<svg id="Capa_1" enable-background="new 0 0 511.97 511.97" height="512" viewBox="0 0 511.97 511.97" width="512" xmlns="http://www.w3.org/2000/svg"><g><g><path d="m401.863 61.438c4.26-.012 6.763 2.338 6.941 6.594.694 16.623.599 55.485-23.97 81.175-14.855 15.533-35.634 24.741-53.42 28.022-20.079 3.705-37.949-13.386-35.144-33.61 2.485-17.915 8.759-38.994 23.614-54.528 18.427-19.268 45.968-25.725 65.606-27.77 6.546-.68 12.213.129 16.373.117z" fill="#bbf49b"/><path d="m409.804 68.032c-.178-4.256-3.681-7.607-7.941-7.594-4.153.012-9.81.203-16.343.882 2.45 1.266 4.161 3.772 4.284 6.713.694 16.623-.401 57.485-24.97 83.175-13.464 14.079-31.788 21.305-48.346 24.981 4.608 1.549 9.689 2.008 14.925 1.042 17.786-3.282 38.565-10.489 53.42-26.022 24.57-25.692 25.665-66.553 24.971-83.177z" fill="#9be69d"/><path d="m8.856 265.012c-2.393 3.524-1.575 8.303 1.854 10.83 9.813 7.235 30.951 20.953 55.334 25.409 8.893 1.625 18.217-.982 27.581-2.584 21.185-3.626 36.782-14.819 49.451-27.727 14.302-14.572 10.13-35.945-8.204-44.932-13.107-6.425-27.304-13.957-44.203-13.946-4.039.003-8.118.322-12.205 1.021-35.04 5.997-60.263 38.164-69.608 51.929z" fill="#bbf49b"/><path d="m318.801 144.034c16.03 51.92-17.853 109.1-78.145 127.715-60.293 18.615-122.164-8.385-138.194-60.305s19.853-109.1 80.145-127.715c9.517-2.938 19.086-4.597 28.483-5.487 44.895-4.253 94.211 22.067 107.711 65.792z" fill="#9678cd"/><path d="m320.801 144.034c-13.499-43.725-59.511-69.772-109.711-65.789 42.012 3.365 78.031 27.958 89.711 65.789 16.03 51.92-19.853 109.1-80.145 127.715-9.517 2.938-19.074 4.737-28.483 5.484 15.646 1.253 32.122-.433 48.483-5.484 60.292-18.615 96.175-75.795 80.145-127.715z" fill="#7d64b6"/><path d="m487.261 290.762c-23.093 39.998-65.07 60.726-109.469 57.092-17.76-1.453-35.588-6.805-52.174-16.38-58.047-33.513-78.894-106.076-46.563-162.074 19.608-33.962 54.273-54.031 91.467-57.09 24.134-1.985 49.332 5.191 72.174 18.379 58.048 33.512 76.895 104.075 44.565 160.073z" fill="#aa91dc"/><path d="m311.943 271.072c30.333 62.333 6.391 134.454-55.943 164.787-20.888 10.165-43.213 17.01-64.806 15.284-42.845-3.424-82.813-28.781-102.981-70.227-30.333-62.333-4.391-137.454 57.943-167.787 14.867-7.235 30.469-11.169 46.003-12.37 39.076-3.02 96.686 22.847 119.784 70.313z" fill="#aa91dc"/><g fill="#9678cd"><path d="m442.697 128.688c-22.842-13.188-48.04-18.358-72.174-16.373 17.761 1.453 35.589 6.797 52.174 16.373 58.047 33.514 78.894 106.077 46.564 162.074-19.608 33.962-54.273 54.025-91.468 57.085 44.398 3.633 88.375-17.087 111.468-57.085 32.33-55.998 11.483-128.561-46.564-162.074z"/><path d="m313.943 271.072c-23.284-47.848-72.958-74.249-122.981-70.217 42.844 3.424 82.813 28.772 102.981 70.217 30.333 62.333 4.391 137.454-57.943 167.787-14.485 7.049-29.661 11.055-44.805 12.275 21.594 1.726 43.917-2.11 64.805-12.275 62.333-30.333 88.275-105.454 57.943-167.787z"/><path d="m186.699 260.853 10.935-5.749c9.305-4.892 20.18 3.009 18.403 13.37l-2.089 12.177c-.706 4.114.658 8.313 3.648 11.226l8.847 8.624c7.528 7.338 3.374 20.122-7.029 21.634l-12.226 1.777c-4.131.6-7.702 3.195-9.55 6.938l-5.468 11.079c-4.652 9.427-18.095 9.427-22.747 0l-5.468-11.079c-1.848-3.743-5.419-6.338-9.55-6.938l-12.226-1.777c-10.403-1.512-14.557-14.296-7.029-21.634l8.847-8.624c2.989-2.914 4.353-7.112 3.648-11.226l-2.089-12.177c-1.777-10.361 9.098-18.262 18.403-13.37l10.935 5.749c3.696 1.942 8.11 1.942 11.805 0z"/><path d="m402.437 161.844 10.935-5.749c9.305-4.892 20.18 3.009 18.403 13.37l-2.088 12.177c-.706 4.114.658 8.313 3.648 11.226l8.847 8.624c7.528 7.338 3.374 20.122-7.029 21.634l-12.226 1.777c-4.131.6-7.702 3.195-9.55 6.938l-5.468 11.079c-4.652 9.427-18.095 9.427-22.747 0l-5.468-11.079c-1.847-3.743-5.419-6.338-9.55-6.938l-12.226-1.777c-10.403-1.512-14.557-14.296-7.029-21.634l8.847-8.624c2.989-2.914 4.353-7.112 3.648-11.226l-2.089-12.177c-1.777-10.361 9.098-18.262 18.403-13.37l10.935 5.749c3.695 1.943 8.109 1.943 11.804 0z"/></g></g><g><path d="m446.477 122.208c-10.469-6.044-21.416-10.492-32.543-13.425 3.677-16.907 3.746-32.587 3.392-41.048-.347-8.297-7.11-14.781-15.408-14.781-.016 0-.031 0-.047 0-17.415.051-60.791 3.17-87.378 30.971-4.668 4.88-8.774 10.522-12.299 16.823-11.314-10.655-25.365-18.932-41.386-24.176-3.938-1.289-8.173.859-9.461 4.795-1.288 3.937.858 8.172 4.795 9.461 21.599 7.07 38.961 20.405 49.577 37.866-13.156 9.651-24.516 22.053-33.129 36.971-7.249 12.555-12.098 26.019-14.49 40.146-4.392-2.072-8.917-3.926-13.572-5.534-33.586-11.598-69.675-9.423-101.623 6.124-9.901 4.818-18.928 10.716-27.026 17.475-2.563-4.655-4.652-9.548-6.221-14.629-7.099-22.992-3.32-47.904 10.639-70.148 14.183-22.601 37.108-39.715 64.554-48.188 14.406-4.448 29.102-6.239 43.688-5.321 4.146.257 7.696-2.881 7.956-7.015s-2.881-7.696-7.015-7.956c-16.404-1.03-32.906.974-49.055 5.96-30.876 9.532-56.742 28.904-72.834 54.547-14.523 23.143-19.561 48.912-14.566 73.5-5.417-.144-10.702.208-15.797 1.081-9.742 1.667-19.473 5.296-28.921 10.786-3.582 2.081-4.798 6.671-2.717 10.253 1.392 2.396 3.906 3.733 6.491 3.733 1.279-.001 2.575-.328 3.761-1.017 7.897-4.588 15.943-7.606 23.916-8.971 5.625-.963 11.58-1.146 17.752-.577 1.953 5.027 4.342 9.873 7.141 14.501-16.09 16.98-27.274 37.815-32.731 60.153-25.121-3.211-47.72-18.103-56.732-24.747-.184-.136-.227-.392-.099-.581 3.449-5.08 9.165-12.786 16.808-20.653 2.886-2.971 2.817-7.719-.153-10.605-2.974-2.887-7.721-2.817-10.606.153-8.397 8.644-14.672 17.104-18.458 22.68-4.673 6.883-3.088 16.143 3.608 21.08 12.249 9.03 35.802 23.789 62.896 27.456-3.171 24.798.582 50.753 12.314 74.863 23.001 47.267 70.481 74.806 119.82 74.804 19.506-.001 39.307-4.307 57.992-13.399 31.949-15.547 55.932-42.604 67.529-76.189 2.919-8.451 4.963-17.062 6.144-25.725 11.63 5.354 23.867 8.972 36.514 10.77.358.051.714.076 1.065.076 3.674 0 6.884-2.703 7.416-6.445.583-4.101-2.27-7.898-6.37-8.481-13.052-1.856-25.62-5.901-37.426-12.027.264-20.462-4.252-40.854-13.467-59.791-11.008-22.622-27.793-41.242-48.574-54.308 1.706-14.265 6.21-27.814 13.438-40.333 30.211-52.326 99.026-69.357 153.397-37.967 54.372 31.392 74.029 99.503 43.818 151.829-17.293 29.953-47.457 49.304-82.757 53.092-4.119.442-7.1 4.139-6.657 8.257.413 3.847 3.665 6.7 7.448 6.7.267 0 .537-.014.809-.044 40.117-4.304 74.433-26.358 94.147-60.506 34.348-59.49 12.228-136.792-49.307-172.319zm-139.249 152.161c13.794 28.346 15.724 60.367 5.434 90.164s-31.567 53.803-59.913 67.597c-16.583 8.069-34.144 11.89-51.453 11.889-43.771-.002-85.903-24.436-106.309-66.369-28.475-58.515-4.034-129.287 54.48-157.761 16.338-7.95 33.895-11.959 51.544-11.959 12.973 0 25.997 2.166 38.62 6.526 29.797 10.289 53.804 31.567 67.597 59.913zm11.13-153.805c-1.678-2.736-3.491-5.384-5.438-7.937 3.391-7.088 7.549-13.25 12.413-18.335 22.605-23.636 61.086-26.293 76.582-26.338h.001c.229 0 .414.179.424.407.323 7.738.266 22.1-3.105 37.44-28.202-4.062-56.725 1.244-80.877 14.763z"/><path d="m222.861 286.522c-1.222-1.191-1.778-2.906-1.489-4.588l2.087-12.176c1.309-7.627-1.768-15.192-8.028-19.741-6.261-4.549-14.404-5.138-21.256-1.537l-10.936 5.749v.001c-1.51.794-3.313.793-4.823-.001l-10.936-5.749c-6.85-3.601-14.995-3.012-21.256 1.537s-9.337 12.113-8.029 19.74l2.089 12.177c.288 1.682-.269 3.397-1.491 4.587l-8.847 8.624c-5.542 5.401-7.499 13.33-5.107 20.69s8.635 12.624 16.294 13.737l12.225 1.776c1.689.246 3.148 1.306 3.903 2.836l5.468 11.079c3.425 6.94 10.36 11.251 18.099 11.251s14.675-4.311 18.1-11.251l5.468-11.079c.755-1.53 2.214-2.59 3.902-2.836l12.225-1.776c7.659-1.113 13.902-6.376 16.294-13.737 2.392-7.36.435-15.288-5.107-20.69zm-.311 24.678c-.3.921-1.307 3.109-4.185 3.528l-12.227 1.776c-6.575.956-12.256 5.083-15.196 11.041l-5.468 11.079c-1.287 2.608-3.679 2.889-4.648 2.889s-3.36-.281-4.647-2.889l-5.468-11.079c-2.94-5.957-8.621-10.085-15.197-11.041l-12.226-1.776c-2.878-.418-3.885-2.606-4.184-3.528-.299-.921-.771-3.284 1.313-5.313l8.847-8.624c4.758-4.638 6.928-11.316 5.805-17.865l-2.089-12.177c-.491-2.866 1.278-4.5 2.063-5.069.518-.377 1.613-1.021 3.041-1.021.73 0 1.547.168 2.417.626l10.936 5.749c5.88 3.092 12.902 3.093 18.784 0l10.936-5.749c2.57-1.352 4.674-.175 5.458.395.784.569 2.554 2.203 2.061 5.07l-2.087 12.175c-1.124 6.549 1.046 13.228 5.804 17.866l8.847 8.624c2.081 2.029 1.609 4.391 1.31 5.313z"/><path d="m414.664 246.254 5.469-11.08c.754-1.529 2.212-2.589 3.9-2.835l12.227-1.776c7.659-1.113 13.901-6.376 16.293-13.736s.435-15.288-5.107-20.69l-8.847-8.623c-1.222-1.191-1.779-2.906-1.49-4.588l2.087-12.176c1.309-7.627-1.767-15.192-8.028-19.741-6.26-4.548-14.404-5.138-21.256-1.536l-10.935 5.749c-1.511.793-3.314.794-4.824 0l-10.936-5.749c-6.85-3.602-14.995-3.013-21.255 1.535-6.262 4.549-9.339 12.113-8.03 19.741l2.089 12.177c.288 1.681-.27 3.396-1.491 4.587l-8.847 8.623c-5.542 5.401-7.499 13.33-5.107 20.689 2.392 7.36 8.634 12.624 16.293 13.737l12.227 1.776c1.688.246 3.147 1.306 3.902 2.836l5.468 11.079c3.425 6.939 10.36 11.251 18.1 11.251 7.738.001 14.674-4.31 18.098-11.25zm-22.747-6.639-5.468-11.079c-2.94-5.959-8.622-10.086-15.197-11.041l-12.227-1.776c-2.877-.418-3.884-2.606-4.184-3.528-.299-.921-.771-3.283 1.313-5.313l8.847-8.624c4.758-4.639 6.928-11.317 5.804-17.865l-2.088-12.176c-.492-2.866 1.278-4.5 2.063-5.07.518-.377 1.613-1.02 3.041-1.02.729 0 1.547.168 2.417.626l10.935 5.749c5.881 3.093 12.902 3.091 18.783 0h.001l10.935-5.75c2.574-1.353 4.674-.175 5.458.395.784.569 2.554 2.203 2.062 5.07l-2.087 12.176c-1.124 6.548 1.046 13.227 5.804 17.866l8.847 8.624c2.083 2.03 1.611 4.392 1.312 5.313s-1.307 3.109-4.184 3.528l-12.227 1.776c-6.576.955-12.257 5.083-15.196 11.041l-5.468 11.079c-1.287 2.608-3.679 2.89-4.647 2.89-.97-.001-3.362-.283-4.649-2.891z"/></g></g></svg>