<svg id="Capa_1" enable-background="new 0 0 512.426 512.426" height="512" viewBox="0 0 512.426 512.426" width="512" xmlns="http://www.w3.org/2000/svg"><g><g><path d="m309.042 97.509c0 48.316-52.829 133.829-52.829 133.829s-57.671-88.041-57.671-136.357c0-40.365 18.022-74.346 42.526-84.436 4.826-1.987 8.894-.862 14.135-.862 31.851.001 53.839 39.511 53.839 87.826z" fill="#bbf49b"/><path d="m120.342 200.891c35.413 27.301 135.871 30.447 135.871 30.447s-28.603-93.323-64.016-120.624c-23.394-18.035-50.881-27.738-72.565-22.771-11.141 2.552-20.749 8.176-27.484 16.912-19.842 25.738-7.219 68.735 28.194 96.036z" fill="#bbf49b"/><path d="m256.213 7.498c-5.241 0-10.316 1.067-15.142 3.054 24.504 10.089 42.528 44.064 42.528 84.43 0 32.093-27.386 136.357-27.386 136.357s57.67-88.041 57.67-136.357-25.82-87.484-57.67-87.484z" fill="#9be69d"/><path d="m389.465 198.121c-35.413 27.301-133.252 33.217-133.252 33.217s28.602-96.351 64.016-123.652c13.28-10.238 27.879-16.815 41.987-19.68 23.513-4.775 43.45 1.829 55.851 17.915 19.842 25.739 6.811 64.899-28.602 92.2z" fill="#bbf49b"/><path d="m420.277 104.855c-12.35-16.02-34.367-21.572-57.77-16.902 11.139 2.552 20.752 8.167 27.486 16.902 19.842 25.738 7.219 68.735-28.194 96.036-22.756 17.543-72.366 25.112-104.924 28.281-.434 1.397-.662 2.166-.662 2.166s100.457-3.146 135.871-30.447c35.413-27.301 48.036-70.298 28.193-96.036z" fill="#9be69d"/><path d="m161.913 107.686c32.277 24.883 94.3 123.652 94.3 123.652s-28.603-96.351-64.016-123.652c-23.395-18.036-50.879-24.701-72.563-19.733 14.199 2.833 28.907 9.424 42.279 19.733z" fill="#9be69d"/><path d="m406.687 351.038c0 64.127-76.987 117.496-121.264 143.501-13.52 7.94-29.482 11.945-44.222 7.974-4.914-1.323-9.691-3.309-14.198-5.955-44.277-26.005-123.283-81.393-123.283-145.52 0-83.523 60.006-123.422 136.901-128.083 5.126-.311 10.328 1.554 15.592 1.554 84.219 0 150.474 37.437 150.474 126.529z" fill="#ed5469"/><path d="m256.213 222.49c-5.111 0-10.161.148-15.142.441 77.11 4.533 137.35 44.421 137.35 128.106 0 64.127-79.006 119.515-123.283 145.52-4.466 2.624-9.2 4.595-14.068 5.918 14.777 4.017 30.793 2.046 44.352-5.918 44.277-26.005 123.283-81.393 123.283-145.52.001-89.091-68.273-128.547-152.492-128.547z" fill="#e63850"/></g><g><path d="m281.436 490.511c-15.702 9.222-35.21 9.222-50.913 0-21.296-12.507-51.92-32.62-76.877-57.408-28.461-28.266-42.892-55.81-42.892-81.867 0-17.956 2.929-34.333 8.705-48.675 1.547-3.842-.313-8.211-4.155-9.759-3.843-1.546-8.211.312-9.759 4.155-6.497 16.132-9.79 34.394-9.79 54.278 0 67.446 79.678 124.314 127.172 152.21 10.194 5.987 21.624 8.98 33.053 8.98 11.43 0 22.859-2.994 33.053-8.981 3.572-2.098 4.767-6.693 2.668-10.265-2.098-3.571-6.694-4.767-10.265-2.668z"/><path d="m434.098 154.401c6.019-20.503 3.22-39.725-7.88-54.124-11.101-14.399-28.969-22.003-50.337-21.392-18.394.52-37.526 7.148-54.549 18.761.034-.904.053-1.793.053-2.664 0-21.484-4.736-41.718-13.695-58.516-1.95-3.655-6.494-5.036-10.147-3.088-3.655 1.95-5.037 6.493-3.088 10.147 7.694 14.423 11.931 32.698 11.931 51.456 0 5.175-.778 11.237-2.294 18.021-21.024 24.639-38.293 67.333-47.876 94.456-9.582-27.122-26.851-69.816-47.876-94.456-1.517-6.786-2.295-12.847-2.295-18.021 0-21.917 5.559-42.42 15.653-57.732 9.456-14.347 21.715-22.249 34.515-22.249 6.327 0 12.517 1.914 18.398 5.688 3.486 2.235 8.125 1.224 10.363-2.262 2.237-3.486 1.224-8.126-2.262-10.363-8.338-5.35-17.254-8.063-26.499-8.063-18.009 0-34.715 10.297-47.041 28.996-11.691 17.734-18.13 41.169-18.13 65.988 0 .871.019 1.759.053 2.663-17.023-11.614-36.155-18.241-54.549-18.761-21.369-.616-39.237 6.993-50.337 21.392-11.101 14.399-13.899 33.621-7.88 54.124 5.768 19.647 19.063 38.268 37.435 52.432 12.267 9.457 32.247 17.037 59.576 22.638-21.269 8.751-38.945 21.323-52.049 37.365-2.62 3.208-2.144 7.933 1.064 10.553 3.209 2.621 7.934 2.145 10.553-1.064 24.405-29.879 67.403-46.334 121.073-46.334 42.421 0 78.194 10.159 103.451 29.38 27.719 21.094 41.774 52.002 41.774 91.864 0 26.938-16.019 69.957-92.331 121.925-3.423 2.332-4.309 6.997-1.977 10.421 1.452 2.131 3.808 3.279 6.206 3.279 1.454 0 2.923-.421 4.215-1.301 45.112-30.721 98.888-78.963 98.888-134.324 0-44.164-16.491-80.058-47.69-103.8-9.352-7.117-19.949-13.103-31.621-17.924 27.427-5.605 47.471-13.198 59.769-22.679 18.37-14.164 31.665-32.785 37.433-52.432zm-309.177 40.552c-15.883-12.244-27.318-28.146-32.201-44.777-4.631-15.775-2.725-30.243 5.368-40.74 17.285-22.42 57.447-20.542 89.53 4.192 2.726 2.101 5.419 4.678 8.067 7.625.13.156.262.308.404.453 20.711 23.381 38.577 69.53 46.974 93.609-12.304.597-24.048 2.053-35.146 4.336-40.164-5.263-68.853-13.794-82.996-24.698zm179.445 24.716c-11.058-2.279-22.76-3.733-35.012-4.344 4.372-12.562 11.032-30.321 19.232-47.856 12.398-26.514 24.923-45.132 36.221-53.841 32.083-24.733 72.246-26.612 89.53-4.192 8.092 10.497 9.999 24.965 5.368 40.74-4.882 16.63-16.318 32.533-32.201 44.777-14.162 10.919-42.899 19.456-83.138 24.716z"/></g></g></svg>