<svg id="Capa_1" enable-background="new 0 0 512.024 512.024" height="512" viewBox="0 0 512.024 512.024" width="512" xmlns="http://www.w3.org/2000/svg"><g><g><path d="m288.288 83.97c-13.138-59.937-42.059-74.834-64.806-76.403-12.438-.858-23.216 8.53-24.074 20.967v.001c-.858 12.438 8.53 23.216 20.968 24.073h.001c8.237.569 15.914 12.106 21.368 31.248z" fill="#b67f5f"/><path d="m156.092 485.756 10.426-.358c4.598-.158 9.071-.81 13.365-1.905 26.291-6.705 45.909-30.02 47.018-58.17l9.591-243.459c1.542-39.151-26.379-72.215-63.391-78.715-5.184-.91-10.546-.298-16.03-.11l-15.301-.477-16.301.559c-44.776 1.535-79.434 39.758-76.592 84.47l13.553 213.238c2.994 47.113 41.5 83.721 88.082 84.95 1.848.048 3.708.041 5.58-.023z" fill="#ed5469"/><path d="m355.936 483.753-10.426 1.645c-32.754-1.123-59.092-27.327-60.382-60.075l-9.591-243.459c-1.561-39.638 27.078-73.037 64.776-78.946 4.752-.745 9.648-1.053 14.645-.882l31.602 2.085c44.776 1.535 78.432 38.756 75.591 83.468l-13.553 213.239c-3.115 48.983-43.61 84.607-92.662 82.925z" fill="#ed5469"/><path d="m157.071 102.038-15.301.525c-14.75 13.484-23.785 33.08-23.094 54.692l8.912 278.518c.634 19.817 9.357 37.509 22.923 49.987 1.849.049 3.707.061 5.58-.003l10.426-.357c32.754-1.123 59.092-27.327 60.383-60.075l9.591-243.459c1.759-44.636-34.777-81.359-79.42-79.828z" fill="#e63850"/><path d="m386.559 103.121-31.602-1.083c-5.109-.175-10.104.174-14.956.955l3.746.128c44.776 1.535 79.434 39.758 76.592 84.47l-13.553 213.238c-2.652 41.731-33.174 75.201-72.484 83.161 3.629.79 7.372 1.277 11.207 1.409l10.427.357c49.051 1.682 90.549-35.945 93.662-84.927l13.553-213.238c2.842-44.712-31.816-82.935-76.592-84.47z" fill="#e63850"/><path d="m281.355 503.511-50.681 1.001c-38.335 0-69.75-30.426-70.976-68.741l-8.912-278.518c-1.283-40.089 30.867-73.284 70.976-73.284h66.527l1.979 1.002c18.815 0 34.876 7.304 47.559 19.198 14.354 13.461 24.098 31.8 23.417 53.084l-8.912 278.518c-.595 18.606-8.31 35.351-20.478 47.656-12.891 13.035-30.78 20.084-50.499 20.084z" fill="#ed5469"/><path d="m290.267 83.97h-42.811c40.109 0 72.259 33.195 70.976 73.284l-8.912 278.518c-1.226 38.315-32.641 68.741-70.976 68.741h42.811c38.335 0 69.75-30.426 70.976-68.741l8.912-278.518c1.283-40.089-30.867-73.284-70.976-73.284z" fill="#e63850"/><path d="" fill="#fd4755"/></g><path d="m461.493 143.324c-1.874-3.702-6.396-5.182-10.095-3.308-3.7 1.874-5.182 6.394-3.308 10.094 5.765 11.384 8.38 24.179 7.564 37.003l-13.553 213.238c-1.381 21.729-11.024 41.749-27.153 56.374s-36.996 22.265-58.755 21.522l-10.037-.344c8.31-12.127 13.19-26.57 13.68-41.893l8.932-279.11c.55-17.179-4.422-33.614-14.148-47.358.026.001.052 0 .079.001l31.602 1.083c16.36.561 31.587 6.437 44.034 16.993 1.412 1.197 3.138 1.783 4.854 1.783 2.13 0 4.247-.901 5.732-2.653 2.683-3.164 2.293-7.903-.87-10.586-15.051-12.765-33.461-19.871-53.234-20.549l-31.602-1.083c-4.555-.155-9.141.073-13.68.654-13.246-11.384-29.7-17.895-47.268-18.642-14.857-60.034-46.206-74.809-70.269-76.469-8.019-.557-15.769 2.049-21.829 7.327s-9.701 12.601-10.254 20.617c-.554 8.017 2.049 15.77 7.327 21.83s12.601 9.701 20.617 10.254c1.712.118 6.562 3.501 11.529 16.357h-10.221c-18.843 0-36.576 6.607-50.675 18.726-4.54-.582-9.125-.811-13.68-.654l-31.601 1.083c-23.701.813-45.528 10.936-61.459 28.505s-23.875 40.28-22.371 63.948l8.479 133.408c.253 3.978 3.558 7.035 7.489 7.035.159 0 .321-.005.483-.015 4.14-.263 7.282-3.832 7.02-7.973l-8.479-133.408c-1.245-19.581 5.328-38.369 18.508-52.904 13.179-14.535 31.236-22.91 50.846-23.582l31.602-1.083c.026-.001.053 0 .079-.001-9.727 13.744-14.699 30.179-14.148 47.358l8.932 279.11c.486 15.187 5.274 29.625 13.71 41.892l-10.067.345c-21.748.737-42.626-6.897-58.755-21.522s-25.772-34.645-27.153-56.374l-2.989-47.037c-.263-4.139-3.803-7.282-7.973-7.02-4.14.263-7.282 3.833-7.02 7.973l2.989 47.037c1.631 25.65 13.015 49.285 32.055 66.55 18.191 16.495 41.485 25.466 65.929 25.466 1.142 0 2.286-.02 3.433-.059l10.426-.357c3.713-.127 7.437-.567 11.118-1.292 14.484 13.171 33.119 20.411 52.779 20.411h50.682c4.148 0 7.511-3.363 7.511-7.511s-3.362-7.511-7.511-7.511h-50.682c-16.579 0-32.269-6.352-44.179-17.886-11.909-11.535-18.76-27.013-19.29-43.584l-8.932-279.11c-.55-17.181 5.734-33.444 17.693-45.792s28.013-19.148 45.202-19.148h69.691c17.189 0 33.243 6.8 45.202 19.148s18.243 28.611 17.693 45.792l-8.932 279.11c-.761 23.76-14.551 44.924-35.989 55.232-3.738 1.798-5.311 6.286-3.515 10.024 1.798 3.738 6.286 5.311 10.024 3.514 6.979-3.355 13.294-7.649 18.84-12.68 3.665.719 7.372 1.156 11.067 1.283l10.427.357c1.148.039 2.29.059 3.433.059 24.441-.001 47.738-8.973 65.929-25.466 19.04-17.265 30.424-40.899 32.055-66.55l13.553-213.238c.986-15.498-2.179-30.97-9.153-44.744zm-240.6-98.209c-4.014-.277-7.68-2.1-10.322-5.134-2.643-3.034-3.946-6.915-3.669-10.93.277-4.014 2.101-7.68 5.134-10.323 3.034-2.641 6.902-3.943 10.93-3.668 26.239 1.81 45.399 22.988 55.755 61.398h-31.393c-6.529-19.786-15.611-30.595-26.435-31.343z"/></g></svg>