<svg id="Capa_1" enable-background="new 0 0 511.981 511.981" height="512" viewBox="0 0 511.981 511.981" width="512" xmlns="http://www.w3.org/2000/svg"><g><g><path d="m393.347 39.258.587.303c7.479 3.855 8.402 21.009 2.41 44.769-3.945 15.644-29.184 79.252-29.184 79.252l29.098 16.185s27.705-66.899 32.762-86.949c13.599-53.921-2.479-74.521-19.185-83.131l-.587-.302c-8.382-4.32-18.774-.997-23.093 7.385-4.224 8.196-1.004 18.265 7.192 22.488z" fill="#b67f5f"/><path d="m421.444 69.756c24.624 12.235 34.138 40.163 26.922 66.694-24.88 91.48-94.958 289.145-269.554 358.795-35.592 14.198-75.953 6.556-100.02-22.513-1.636-1.976-3.197-4.037-4.676-6.182-28.482-41.3-16.632-98.096 26.078-124.416 75.149-46.31 186.458-139.427 244.91-248.021 14.74-27.382 48.49-38.194 76.34-24.357z" fill="#aa91dc"/><path d="m421.444 69.756c-.073-.036-.147-.067-.219-.102 9.35 13.59 12.718 30.971 8.142 47.797-24.88 91.48-97.958 292.145-272.553 361.795-26.227 10.462-55.04 7.432-78.018-6.515 24.067 29.069 64.426 39.713 100.018 25.515 174.596-69.65 247.674-270.315 272.553-361.795 7.215-26.532-5.299-54.46-29.923-66.695z" fill="#9678cd"/><path d="m421.444 69.756c-27.85-13.838-61.6-3.026-76.34 24.358l18.13 1.643c3.058.277 5.219 3.119 4.668 6.14l-3.9 21.384c-.766 4.202 3.56 7.498 7.408 5.643l20.849-10.048c2.848-1.373 6.254.079 7.235 3.085l8.801 26.969c1.338 4.1 6.787 4.905 9.253 1.366l3.839-5.51 8.622-14.376c2.029-2.912 6.309-2.997 8.452-.167l9.288 12.59c.925-3.237 1.799-6.372 2.617-9.382 7.216-26.532-4.298-51.46-28.922-63.695z" fill="#bbf49b"/><path d="m429.367 117.451c-2.25 8.274-4.901 17.452-7.98 27.335l8.622-12.376c2.029-2.912 6.309-2.997 8.451-.167l10.289 13.59c.925-3.237 1.799-6.372 2.617-9.382 7.216-26.532-5.299-54.46-29.922-66.694-.073-.036-.147-.067-.219-.102 9.35 13.589 12.718 30.97 8.142 47.796z" fill="#9be69d"/></g><g><path d="m417.71 234.479c-3.806-1.645-8.217.107-9.86 3.91-38.372 88.805-88.372 157.707-148.611 204.793-3.264 2.551-3.841 7.265-1.29 10.528 1.479 1.892 3.686 2.881 5.915 2.881 1.615 0 3.242-.52 4.613-1.591 62.239-48.649 113.763-119.526 153.143-210.662 1.642-3.802-.108-8.217-3.91-9.859z"/><path d="m440.406 73.942c4.809-35.298-4.297-59.145-27.116-70.906l-.58-.299c-5.834-3.007-12.508-3.558-18.791-1.548s-11.399 6.329-14.405 12.164c-2.961 5.744-3.507 12.299-1.539 18.454 1.969 6.155 6.217 11.176 11.96 14.135l.566.291c.543.378 2.102 3.094 2.271 10.041-22.084 1.021-42.958 13.333-54.246 34.303-23.95 44.495-58.438 89.41-102.506 133.497-2.929 2.929-2.928 7.678.002 10.606 1.464 1.464 3.383 2.195 5.302 2.195 1.92 0 3.84-.732 5.304-2.198 43.67-43.687 78.209-88.286 102.727-132.632l10.747.974-3.452 18.934c-.864 4.734.977 9.487 4.805 12.404 3.829 2.916 8.901 3.431 13.237 1.341l18.504-8.918 7.994 24.494c1.507 4.62 5.43 7.931 10.237 8.641.634.094 1.266.14 1.892.14 4.124 0 7.995-1.99 10.408-5.453l10.67-15.316 6.121 8.086c-5.995 20.619-12.886 41.179-20.574 61.285-1.48 3.869.458 8.204 4.327 9.684 3.87 1.484 8.205-.457 9.684-4.326 9.465-24.752 17.767-50.18 24.674-75.577 6.424-23.618-1.111-48.351-18.223-64.496zm-47.558-53.717c1.171-2.273 3.174-3.959 5.641-4.748 2.465-.787 5.076-.577 7.356.598l.58.299c15.169 7.818 21.748 23.423 19.976 47.522-.529-.281-1.054-.568-1.593-.836-5.531-2.748-11.255-4.627-17.023-5.721-.015-12.654-3.488-20.868-10.387-24.423l-.589-.305c-2.183-1.125-3.798-3.033-4.546-5.372-.748-2.341-.541-4.831.585-7.014zm41.222 102.468c-4.059.08-7.868 2.117-10.189 5.448l-9.849 14.136-7.383-22.624c-1.139-3.489-3.729-6.316-7.105-7.756s-7.208-1.353-10.516.242l-16.819 8.105 3.097-16.983c.639-3.507-.231-7.146-2.388-9.982-2.157-2.838-5.431-4.65-8.981-4.973l-5.284-.479c14.719-16.438 38.839-21.59 59.479-11.335 19.605 9.741 30.423 31.127 27.198 52.385l-.865-1.143c-2.449-3.237-6.316-5.124-10.395-5.041z"/><path d="m234.342 460.989c-18.54 12.08-38.149 22.277-58.282 30.31-16.809 6.704-35.609 7.508-52.937 2.26-17.326-5.247-32.528-16.344-42.806-31.247-12.621-18.301-17.051-40.361-12.474-62.115 4.564-21.695 17.46-40.041 36.312-51.658 38.852-23.942 80.997-56.262 118.671-91.004 3.045-2.809 3.237-7.553.429-10.599-2.809-3.044-7.554-3.236-10.598-.429-36.986 34.109-78.314 65.81-116.371 89.262-22.387 13.796-37.701 35.58-43.121 61.339-5.433 25.819-.175 52 14.804 73.72 12.199 17.689 30.242 30.86 50.807 37.088 8.968 2.716 18.268 4.066 27.56 4.066 12.021 0 24.028-2.261 35.283-6.751 21.051-8.397 41.545-19.054 60.913-31.673 3.471-2.262 4.451-6.908 2.189-10.379-2.262-3.47-6.91-4.45-10.379-2.19z"/></g></g></svg>