<svg id="Capa_1" enable-background="new 0 0 512 512" height="512" viewBox="0 0 512 512" width="512" xmlns="http://www.w3.org/2000/svg"><g><g><path d="m476.757 264.377c0 116.165-98.836 240.123-220.757 240.123s-220.757-123.958-220.757-240.123 98.836-180.549 220.757-180.549 220.757 64.384 220.757 180.549z" fill="#ed5469"/><path d="m256 83.828c-5.043 0-10.042.121-15 .34 114.923 5.085 205.757 68.848 205.757 180.208s-90.834 229.864-205.757 239.477c4.958.415 9.957.647 15 .647 121.921 0 220.757-123.958 220.757-240.123s-98.836-180.549-220.757-180.549z" fill="#e63850"/><path d="m276.443 7.5h-40.887c-5.848 0-10.416 5.051-9.83 10.869l8.786 87.299h42.975l8.786-87.299c.586-5.818-3.982-10.869-9.83-10.869z" fill="#6fd7a3"/><path d="m256 66.452s-135.232-4.927-215.828 86.982c-2.305 2.629-1.184 6.744 2.11 7.916 48.378 17.213 131.418-6.923 131.418-6.923s9.154 46.347 77.166 87.909c3.145 1.922 7.124 1.922 10.269 0 68.013-41.562 77.166-87.909 77.166-87.909s83.04 24.136 131.418 6.923c3.294-1.172 4.415-5.287 2.11-7.916-80.597-91.909-215.829-86.982-215.829-86.982z" fill="#bbf49b"/><g><path d="m471.828 153.434c-80.596-91.909-215.828-86.982-215.828-86.982s-8.135-.293-21.584.613c30.731 2.835 138.838 18.169 207.412 96.369.874.996 1.253 2.206 1.211 3.388 9.496-.871 18.575-2.589 26.679-5.473 3.294-1.171 4.415-5.286 2.11-7.915z" fill="#9be69d"/></g></g><g><path d="m459.564 171.946c4.393-.931 8.636-2.095 12.668-3.53 3.909-1.391 6.866-4.616 7.909-8.628 1.037-3.983.037-8.208-2.674-11.299-42.945-48.974-100.962-70.707-142.069-80.316-17.305-4.045-33.016-6.343-45.83-7.64l4.168-41.413c.491-4.879-1.112-9.763-4.401-13.398-3.29-3.636-7.988-5.722-12.892-5.722h-40.887c-4.903 0-9.602 2.086-12.891 5.723-3.289 3.636-4.893 8.519-4.401 13.397l4.165 41.391c-20.797 2.097-49.199 6.838-79.564 17.419-3.911 1.362-5.977 5.639-4.614 9.55 1.362 3.911 5.638 5.979 9.55 4.614 56.564-19.708 107.422-18.166 107.925-18.146.184.006.363.006.547 0 .324-.01 33.295-1.081 75.71 8.833 38.136 8.914 91.545 28.747 131.603 72.688-46.021 13.829-122.406-8.016-123.193-8.243-2.009-.583-4.17-.283-5.96.795-1.791 1.076-3.056 2.87-3.481 4.915-.028.135-2.956 13.645-16.357 32.121-2.432 3.353-1.686 8.042 1.668 10.475 1.33.965 2.87 1.43 4.398 1.43 2.32 0 4.609-1.075 6.077-3.098 9.23-12.726 14.129-23.517 16.61-30.312 17.08 4.359 61.312 14.23 99.925 10.781 17.229 25.775 25.985 56.038 25.985 90.045 0 53.599-21.707 110.061-59.555 154.912-2.672 3.166-2.271 7.897.895 10.568 1.408 1.189 3.125 1.769 4.833 1.769 2.133 0 4.252-.905 5.735-2.663 40.096-47.514 63.092-107.503 63.092-164.586-.001-34.467-8.306-65.502-24.694-92.432zm-203.562-112.998c-1.546-.049-8.239-.193-18.616.386l-4.198-41.717c-.092-.914.338-1.541.602-1.834.265-.292.847-.783 1.766-.783h40.887c.919 0 1.501.491 1.766.783.265.293.694.92.602 1.835l-4.2 41.733c-10.412-.586-17.111-.447-18.609-.403z"/><path d="m387.743 442.203c-38.521 35.337-85.308 54.797-131.743 54.797-28.194 0-55.961-6.853-82.528-20.368-25.061-12.75-47.917-30.776-67.934-53.579-39.907-45.462-62.795-103.297-62.795-158.676 0-34.008 8.751-64.267 25.977-90.038 16.681 1.496 36.224.652 58.487-2.574 17.879-2.589 32.994-6.081 41.424-8.22 5.645 15.549 23.94 51.956 78.324 85.19 2.789 1.704 5.917 2.557 9.045 2.557 3.128-.001 6.256-.853 9.045-2.558 14.108-8.62 26.823-18.119 37.792-28.232 3.045-2.808 3.237-7.552.43-10.598-2.808-3.045-7.554-3.236-10.598-.43-10.248 9.448-22.174 18.351-35.444 26.46-.744.455-1.706.454-2.448.001-33.467-20.451-51.736-41.955-61.169-56.393-10.179-15.579-12.535-26.499-12.551-26.569-.407-2.063-1.663-3.86-3.459-4.953-1.797-1.094-3.972-1.381-5.99-.796-.786.227-77.175 22.069-123.193 8.243 18.965-20.812 42.52-38.063 70.068-51.305 3.733-1.795 5.305-6.275 3.511-10.009-1.795-3.734-6.274-5.307-10.009-3.511-30.656 14.736-56.715 34.198-77.451 57.846-2.711 3.091-3.711 7.315-2.674 11.299 1.043 4.012 4 7.237 7.908 8.628 3.94 1.402 8.164 2.58 12.663 3.539-16.385 26.925-24.687 57.954-24.687 92.422 0 58.969 24.246 120.411 66.521 168.571 21.278 24.24 45.64 43.436 72.406 57.053 28.693 14.599 58.748 22 89.329 22 50.199 0 100.588-20.862 141.884-58.742 3.052-2.801 3.257-7.545.457-10.598-2.801-3.052-7.544-3.256-10.598-.457z"/></g></g></svg>