<svg id="Capa_1" enable-background="new 0 0 512 512" height="512" viewBox="0 0 512 512" width="512" xmlns="http://www.w3.org/2000/svg"><g><g><path d="m309.938 33.47 12.248 16.716c1.71 2.334 4.624 3.459 7.459 2.879l12.427-2.542 7.875-.611c25.454-5.206 47.872 11.603 50.692 37.43l4.25 20.601c.314 2.877 2.275 5.307 5.02 6.223l19.659 6.555c24.647 8.219 36.888 35.85 26.417 59.628l-8.352 18.965c-1.166 2.648-.684 5.734 1.236 7.899l40.474 45.653c2.894 3.264 2.354 8.31-1.165 10.889l-49.214 36.061c-2.334 1.71-3.459 4.624-2.879 7.459l12.225 59.774c.874 4.274-2.116 8.374-6.453 8.848l-60.651 6.623c-2.877.314-5.307 2.275-6.223 5.02l-19.3 57.878c-1.38 4.138-6.02 6.194-10.012 4.436l-55.836-24.59c-2.648-1.166-5.734-.684-7.899 1.236l-45.653 40.474c-3.264 2.894-8.31 2.354-10.889-1.165l-36.061-49.214c-1.71-2.334-4.624-3.459-7.459-2.879l-59.774 12.225c-4.274.874-8.374-2.116-8.847-6.453l-6.623-60.651c-.314-2.877-2.275-5.307-5.02-6.223l-57.878-19.3c-4.138-1.38-6.194-6.02-4.436-10.012l24.59-55.836c1.166-2.648.684-5.734-1.236-7.899l-40.474-45.653c-2.894-3.264-2.354-8.31 1.165-10.889l49.214-36.061c2.334-1.711 3.459-4.624 2.879-7.459l-4.152-20.303c-5.206-25.454 14.223-46.05 40.051-48.87l4.007-4.436 14.973-1.635c2.877-.314 5.307-2.275 6.223-5.02l6.555-19.659c8.219-24.647 35.85-36.889 59.628-26.417l18.965 8.352c2.648 1.166 5.734.684 7.899-1.236l15.507-13.747c19.441-17.235 49.492-14.02 64.848 6.936z" fill="#bbf49b"/><path d="m489.344 252.867-40.474-45.653c-1.92-2.165-2.402-5.251-1.236-7.899l8.352-18.965c9.49-21.549.324-46.265-19.825-56.825-.623-.327-1.26-.635-1.905-.934-.192-.089-.386-.174-.58-.261-.482-.216-.97-.423-1.464-.623-.198-.08-.395-.162-.595-.239-.674-.262-1.354-.513-2.048-.744l-19.659-6.555c-.331-.11-.65-.245-.957-.398-.136-.068-.261-.152-.392-.228-.161-.093-.324-.181-.477-.285-.172-.118-.331-.251-.491-.382-.094-.076-.193-.148-.283-.229-.186-.168-.357-.349-.524-.534-.05-.054-.102-.106-.15-.161-.183-.216-.353-.444-.51-.679-.021-.031-.043-.06-.063-.091-.168-.259-.32-.528-.454-.808-.005-.01-.01-.02-.016-.031-.28-.588-.487-1.216-.607-1.873-.032-.175-.077-.346-.096-.525l-2.25-20.6c-2.82-25.827-27.238-43.636-52.692-38.431l-6.996 1.431c13.379 4.553 18.587 12.458 18.248 32.491-.111 6.547-3.646 12.561-9.287 15.887-27.481 16.2-117.623 79.924-230.011 270.278-12.521 21.208 9.285 38.291 19.545 52.985l40.429-8.268c2.835-.58 5.749.545 7.459 2.879l32.99 45.023 39.612-35.118c2.165-1.92 5.251-2.403 7.899-1.236l9.016 3.971 3.084-2.734c2.166-1.92 5.251-2.403 7.899-1.236l37.118 16.346 18.718 8.243c3.992 1.758 8.632-.297 10.012-4.436l19.3-57.878c.915-2.745 3.346-4.706 6.223-5.02l60.651-6.623c4.336-.474 7.327-4.574 6.453-8.848l-12.225-59.774c-.58-2.835.545-5.749 2.879-7.459l49.214-36.061c3.52-2.579 4.059-7.625 1.166-10.89z" fill="#9be69d"/><path d="m71.283 139.203 4.152 20.303c.58 2.835-.545 5.749-2.879 7.459l-49.214 36.061c-3.519 2.579-4.059 7.624-1.165 10.889l40.474 45.653c1.92 2.165 2.403 5.251 1.236 7.899l-24.59 55.836c-1.758 3.992.297 8.632 4.436 10.012l57.877 19.3c2.746.915 4.707 3.346 5.021 6.223l6.623 60.65c.473 4.336 4.573 7.327 8.847 6.453l59.774-12.225c2.835-.58 5.749.545 7.459 2.879l36.061 49.214c2.579 3.518 7.624 4.059 10.889 1.164l45.653-40.474c2.166-1.92 5.251-2.403 7.899-1.236l55.836 24.59c3.992 1.758 8.632-.297 10.012-4.436l17.859-53.557c-42.704-132.958-178.667-254.501-226.438-294.106-10.434-8.651-23.918-12.713-37.392-11.243-25.827 2.821-43.636 27.239-38.43 52.692z" fill="#6fd7a3"/><path d="m355.685 445.418 17.859-53.557c-23.781-74.04-76.479-144.531-126.765-199.314-35.953 40.979-78.519 97.935-124.877 176.453-12.521 21.208 9.285 38.291 19.545 52.985l40.429-8.268c2.835-.58 5.749.545 7.459 2.879l22.858 31.195 10.132 13.828 39.612-35.118c2.165-1.92 5.251-2.403 7.899-1.236l9.016 3.971 3.085-2.734c2.165-1.92 5.251-2.403 7.899-1.236l37.118 16.346 2.418 1.065 16.3 7.178c1.693.746 3.501.799 5.129.305.118-.036.234-.076.35-.117.327-.117.645-.258.952-.419.296-.156.586-.324.859-.518.205-.146.402-.302.592-.469.95-.836 1.7-1.926 2.131-3.219z" fill="#3ec3a4"/><path d="m225.395 465.809c2.579 3.518 7.624 4.059 10.889 1.164l45.653-40.474c2.165-1.92 5.251-2.403 7.899-1.236l55.836 24.59c3.993 1.758 8.632-.297 10.013-4.436l19.3-57.878c.915-2.745 3.346-4.706 6.223-5.02l60.65-6.622c4.337-.474 7.327-4.574 6.453-8.848l-12.225-59.773c-.58-2.835.544-5.749 2.879-7.459l49.214-36.061c3.519-2.578 4.059-7.624 1.164-10.888l-40.474-45.653c-1.92-2.165-2.403-5.251-1.236-7.899l8.352-18.965c10.471-23.777 10.277-59.091-14.369-67.31-12.83-4.278-26.469-6.121-39.542-3.521-5.562 1.106-11.021 2.836-16.272 5.189-42.688 19.13-121.296 77.313-225.712 253.273-36.759 61.946 65.305 97.827 65.305 97.827z" fill="#bbf49b"/><path d="m489.344 252.868-40.474-45.653c-1.92-2.165-2.403-5.251-1.236-7.899l8.352-18.965c10.471-23.777 10.277-60.091-14.369-68.31-12.83-4.278-26.469-5.121-39.542-2.521-5.562 1.106-11.021 2.836-16.272 5.189-4.17 1.869-8.688 4.117-13.534 6.804 11.841-1.712 24.027-.651 35.559 3.195 24.647 8.219 24.84 44.533 14.369 68.31l-8.352 18.965c-1.167 2.648-.684 5.734 1.236 7.899l40.474 45.653c2.894 3.264 2.354 8.31-1.165 10.888l-49.214 36.061c-2.335 1.71-3.459 4.624-2.879 7.459l12.058 58.957 27.502-3.003c4.336-.474 7.327-4.574 6.453-8.848l-12.225-59.773c-.58-2.835.544-5.749 2.879-7.459l49.214-36.061c3.52-2.578 4.059-7.624 1.166-10.888z" fill="#9be69d"/><path d="m283.082 494.738c-9.851 1.202-19.878-.167-30.053-.167-7.897 0-15.706 1.627-23.412.898-124.621-11.788-222.117-116.721-222.117-244.426 0-39.53 9.343-76.877 25.94-109.956 6.327-12.61 22.49-16.493 34.026-8.371 136.939 96.426 198.775 297.509 215.616 362.022z" fill="#3ec3a4"/><path d="m229.616 495.469c5.861.715 11.086-.503 17.066-.204 4.071.203 8.168.307 12.29.307 135.602 0 244.528-108.927 244.528-244.528 0-42.286-10.691-82.074-29.516-116.811-4.674-8.625-14.722-11.47-22.88-6.022-2.322 1.551-4.624 3.132-6.904 4.742-136.705 96.516-197.757 298.055-214.584 362.516z" fill="#3ec3a4"/><path d="m474.984 134.233c-4.674-8.625-15.722-11.47-23.88-6.022-2.322 1.551-4.624 3.132-6.904 4.742-5.61 3.961-11.08 8.115-16.437 12.412.066.146-1.074.639-1.011.788 15.702 37.365 23.809 78.705 19.531 121.871-11.711 118.15-103.286 209.085-215.934 224.659-.252.952-.498 1.887-.733 2.786 5.861.715 11.086.497 17.066.796 4.071.203 8.168.307 12.289.307 135.602 0 245.528-109.927 245.528-245.528.001-42.286-10.69-82.074-29.515-116.811z" fill="#0bb494"/></g><path d="m481.578 130.662c-3.253-6.001-8.91-10.382-15.521-12.019-1.519-.376-3.061-.593-4.604-.668-4.386-6.201-10.345-10.674-17.464-13.048-10.555-3.519-21.525-4.897-32.343-4.201l-1.55-14.193c-1.573-14.403-9.189-27.561-20.896-36.099-11.706-8.538-26.561-11.769-40.755-8.865l-20.244 4.141-12.213-16.668c-10.86-14.822-28.291-22.621-46.599-20.875-4.123.394-7.146 4.056-6.752 8.18.394 4.123 4.032 7.146 8.18 6.752 12.995-1.24 25.367 4.293 33.071 14.809l12.249 16.718c3.433 4.682 9.323 6.955 15.011 5.792l20.303-4.152c10.215-2.089 20.483.143 28.91 6.289s13.69 15.24 14.822 25.608l1.623 14.86c-4.793 1.192-9.503 2.797-14.071 4.845-27.123 12.155-66.477 38.602-116.094 95.603-45.272-51.7-90.977-91.777-114.749-111.486-3.126-2.591-6.514-4.817-10.08-6.676.77-1.124 1.396-2.36 1.839-3.689l6.556-19.659c3.299-9.895 10.367-17.669 19.902-21.894 9.535-4.226 20.044-4.236 29.587-.032l18.966 8.353c5.314 2.339 11.554 1.362 15.898-2.488l10.327-9.155c3.1-2.748 3.385-7.488.637-10.588s-7.488-3.384-10.588-.637l-10.282 9.116-18.911-8.329c-13.259-5.839-28.462-5.821-41.709.046-13.246 5.869-23.473 17.118-28.057 30.863l-6.536 19.602-20.532 2.242c-.001 0-.002 0-.003.001-.002 0-.004 0-.006 0-23.678 2.583-41.91 20.902-45.4 43.382-5.439-1.766-11.318-2.009-16.987-.585-8.588 2.157-15.782 7.913-19.738 15.791-17.766 35.381-26.775 73.533-26.775 113.398 0 42.83 10.899 85.153 31.52 122.393 2.006 3.624 6.569 4.936 10.194 2.929 3.624-2.007 4.934-6.571 2.929-10.194-19.393-35.023-29.643-74.834-29.643-115.128 0-37.507 8.472-73.395 25.18-106.666 2.025-4.034 5.573-6.866 9.987-7.976 4.451-1.115 9.158-.244 12.912 2.399.921.648 1.851 1.313 2.786 1.986.241.199.494.382.758.55 37.657 27.3 86.009 75.149 131.558 157.918.256.689.612 1.342 1.067 1.937 16.881 30.908 33.358 66.646 48.747 107.932-11.618 31.718-19.716 59.04-24.839 78.087-63.91-8.028-122.342-42.058-161.107-94.071-2.477-3.321-7.178-4.009-10.495-1.532-3.321 2.476-4.008 7.175-1.532 10.495 42.581 57.133 107.497 93.857 178.102 100.758 10.269 1.003 20.542 1.21 30.848 1.21 60.308 0 118.718-21.57 164.468-60.737 45.25-38.737 75.493-92.259 85.158-150.707.676-4.087-2.089-7.947-6.176-8.623-4.086-.67-7.946 2.091-8.623 6.176-9.091 54.97-37.542 105.314-80.114 141.76-48.202 41.266-111.363 61.73-175.254 56.247 5.196-19.033 13.197-45.61 24.48-76.171.083-.199.159-.401.226-.607 9.763-26.388 21.964-55.714 36.925-85.717 43.452-87.139 95.67-151.481 155.203-191.24.001-.001.002-.001.003-.002 1.045-.697 2.203-1.161 3.442-1.377.036-.006.07-.018.106-.025 1.188-.193 2.417-.148 3.636.153 2.564.635 4.673 2.271 5.939 4.605 18.715 34.539 28.609 73.696 28.609 113.238 0 2.519-.04 5.073-.118 7.593-.129 4.14 3.122 7.601 7.263 7.73 4.105.139 7.602-3.122 7.729-7.263.084-2.674.126-5.386.126-8.06 0-42.03-10.52-83.658-30.422-120.385zm-403.673.353c-.37-18.694 13.665-34.974 32.622-37.044 11.379-1.245 22.964 2.242 31.791 9.56 23.678 19.631 69.435 59.758 114.491 111.478-16.004 19.179-33.009 41.485-50.952 67.408-32.203-56.453-74.22-111.742-127.952-151.402zm208.734 187.986c-11.874 23.811-22.031 47.194-30.643 69.072-11.288-28.689-25.182-59.829-42.009-91.002 20.664-30.269 40.01-55.609 57.965-76.814.304-.302.576-.624.818-.963 50.188-59.063 89.441-85.791 116.1-97.739 15.837-7.097 33.729-7.949 50.373-2.396 2.465.821 4.623 2.028 6.505 3.632-61.235 41.282-114.764 107.279-159.109 196.21z"/></g></svg>