<svg id="Capa_1" enable-background="new 0 0 511.974 511.974" height="512" viewBox="0 0 511.974 511.974" width="512" xmlns="http://www.w3.org/2000/svg"><g><g><path d="m12.3 452.954c-6.257 6.257-6.257 16.402 0 22.659l24.18 24.18c6.257 6.257 16.402 6.257 22.659 0l40.911-40.911-46.839-46.84z" fill="#00c27a"/><path d="m336.612 335.027c87.402-126.794 137.142-222.901 163.84-282.393 7.349-16.376.983-31.984-11.974-39.698-1.613-.961-3.313-2.783-5.082-3.45-7.296-2.752-15.767-2.858-24.176.916-59.492 26.698-155.599 76.438-282.393 163.84-223.797 154.266-148.815 230.359-107.8 271.374 32.974 32.974 111.257 116.196 267.585-110.589z" fill="#ffd54f"/><path d="m482.513 33.695c-20.781 46.305-55.541 114.811-111.138 202.69-10.966 17.334-29.398 28.423-49.808 30.46-73.366 7.32-147.236 50.182-202.046 90.462-12.694 18.993-34.713 54.07-49.474 89.329 33.573 33.612 112.823 112.875 267.565-111.61 87.402-126.794 137.142-222.901 163.84-282.393 7.349-16.376-.017-32.984-12.974-40.698-1.613-.96-3.315-1.778-5.084-2.445 2.765 7.305 2.899 15.781-.881 24.205z" fill="#ffca28"/><path d="m397.765 299.238c-2.026-.389-4.057-1.74-6.092-2.056-100.932-15.649-211.936 57.412-277.14 110.332 60.485-75.259 151.142-212.382 125.849-333.236-3.033-14.491-22.161-17.884-29.929-5.281-17.456 28.324-44.205 69.185-66.388 92.127l-83.302 86.151c-51.905 53.679-58.812 154.572-1.483 211.901 6.732 6.732 14.508 11.56 23.033 16.442 49.171 28.153 122.294 25.81 165.232-17.129l74.406-74.406c19.812-19.812 55.284-43.894 79.893-59.638 10.954-7.008 8.692-22.758-4.079-25.207z" fill="#bbf49b"/><path d="m397.765 298.238c-2.026-.388-4.059-.727-6.094-1.043-.611 3.711-2.692 7.245-6.436 9.64-24.609 15.744-60.081 39.826-79.893 59.638l-74.406 74.406c-47.334 47.334-132.56 46.548-180.484 8.498 2.756 3.384 5.69 6.66 8.828 9.798 45.563 45.564 138.882 49.696 189.265-.687l74.406-74.406c19.812-19.812 55.284-43.894 79.893-59.638 10.954-7.007 7.692-23.757-5.079-26.206z" fill="#9be69d"/></g><g><path d="m294.561 401.829-51.354 51.353c-18.945 18.946-45.987 30.863-76.142 33.558-28.594 2.552-58.137-3.509-81.06-16.634-8.103-4.639-15.321-10.102-21.456-16.236-24.834-24.834-38.358-59.873-38.081-98.664.029-4.143-3.304-7.524-7.446-7.554-.019 0-.037 0-.055 0-4.117 0-7.469 3.323-7.499 7.446-.186 26.06 5.334 50.637 15.913 72.13l-20.419 20.42c-9.171 9.171-9.171 24.094 0 33.267l24.18 24.179c4.586 4.587 10.609 6.88 16.634 6.88 6.023-.001 12.047-2.293 16.632-6.878l19.224-19.224c20.859 10.774 45.16 16.463 70.1 16.463 4.872 0 9.769-.217 14.667-.654 33.653-3.007 63.987-16.463 85.415-37.891l51.354-51.354c2.929-2.93 2.929-7.678 0-10.607-2.93-2.928-7.678-2.928-10.607 0zm-240.76 92.659c-3.323 3.321-8.729 3.323-12.053-.001l-24.18-24.179c-3.323-3.323-3.323-8.73 0-12.053l17.439-17.439c5.435 8.551 11.758 16.483 18.935 23.661 4.903 4.903 10.398 9.411 16.382 13.487z"/><path d="m492.281 5.49c-1.998-1.19-4.11-2.208-6.274-3.024-9.622-3.629-20.239-3.241-29.894 1.09-25.988 11.663-53.758 25.377-82.538 40.763-3.653 1.953-5.031 6.497-3.079 10.15 1.953 3.653 6.498 5.029 10.15 3.078 28.477-15.224 55.934-28.784 81.608-40.306 7.71-3.46 14.293-2.313 18.46-.74 1.34.505 2.648 1.137 3.892 1.877 9.397 5.595 15.838 18.101 9.968 31.183-22.272 49.629-63.566 131.037-134.056 237.997-37.995.473-79.569 11.276-124.053 32.294-27.267 12.884-55.221 29.352-83.515 49.179 21.825-30.828 45.1-68.033 63.451-107.901 20.958-45.531 32.732-88.233 35.262-127.63 34.181-21.847 67.957-42.143 100.437-60.327 3.614-2.023 4.904-6.594 2.88-10.208-2.023-3.613-6.593-4.904-10.208-2.88-30.006 16.799-61.099 35.376-92.59 55.304-.132-14.723-1.628-28.948-4.496-42.647-2.018-9.642-9.582-16.965-19.271-18.658-9.662-1.687-19.233 2.621-24.383 10.978-18.003 29.211-43.963 68.684-65.395 90.848l-83.303 86.151c-19.751 20.428-34.059 48.453-40.286 78.914-.83 4.058 1.788 8.021 5.846 8.85 4.057.834 8.021-1.787 8.85-5.846 5.663-27.7 18.58-53.09 36.373-71.49l83.303-86.151c22.367-23.132 48.988-63.561 67.381-93.405 2.918-4.732 7.652-4.315 9.031-4.072 1.392.243 6.023 1.463 7.172 6.954 24.89 118.925-67.228 255.924-124.353 327.002-2.403 2.989-2.163 7.309.555 10.015 1.456 1.448 3.37 2.184 5.292 2.184 1.668 0 3.341-.554 4.724-1.677 42.067-34.142 83.67-61.031 123.65-79.922 54.678-25.834 104.342-35.531 147.615-28.822 1.947.302 3.908.642 5.829 1.011 4.275.819 5.282 4.395 5.489 5.471.205 1.066.592 4.728-3.039 7.052-25.962 16.61-61.117 40.616-81.154 60.652-2.929 2.93-2.929 7.678 0 10.607 2.929 2.928 7.678 2.928 10.606 0 19.086-19.086 53.294-42.415 78.631-58.625 7.581-4.85 11.383-13.689 9.686-22.518-1.702-8.853-8.53-15.672-17.395-17.372-2.094-.401-4.233-.771-6.355-1.101-4.823-.748-9.719-1.297-14.677-1.669 67.97-104.011 108.191-183.466 130.15-232.399 9.464-21.088-.875-41.223-15.977-50.214z"/><path d="m359.389 188.423c-2.929 2.929-2.929 7.678 0 10.607s7.678 2.929 10.607 0c2.929-2.929 2.929-7.678 0-10.606-2.929-2.93-7.678-2.93-10.607-.001z"/><path d="m279.198 165.923c-2.929 2.929-2.929 7.678 0 10.607s7.678 2.929 10.607 0c2.929-2.929 2.929-7.678 0-10.606-2.929-2.93-7.678-2.93-10.607-.001z"/><path d="m239.256 263.418c-2.929 2.929-2.929 7.678 0 10.607s7.678 2.929 10.607 0c2.929-2.929 2.929-7.678 0-10.607-2.93-2.929-7.678-2.929-10.607 0z"/><path d="m304.618 247.987c-2.929 2.929-2.929 7.678 0 10.607s7.678 2.929 10.607 0c2.929-2.929 2.929-7.677 0-10.606s-7.678-2.929-10.607-.001z"/><path d="m351.889 117.042c-2.929 2.929-2.929 7.678 0 10.607s7.678 2.929 10.607 0c2.929-2.929 2.929-7.678 0-10.607-2.929-2.928-7.678-2.929-10.607 0z"/><path d="m432.375 106.734c2.929-2.929 2.929-7.677 0-10.607-2.929-2.929-7.678-2.929-10.606 0-2.929 2.929-2.929 7.678 0 10.607s7.677 2.929 10.606 0z"/></g></g></svg>