<svg id="Capa_1" enable-background="new 0 0 511.999 511.999" height="512" viewBox="0 0 511.999 511.999" width="512" xmlns="http://www.w3.org/2000/svg"><g><g><path d="m446.049 135.489c-29.106 29.106-116.883 47.401-116.883 47.401s18.295-87.778 47.401-116.883c24.384-24.384 55.816-33.983 76.655-25.174 4.036 1.706 7.674 4.102 10.787 7.215 19.187 19.186 11.146 58.335-17.96 87.441z" fill="#bbf49b"/><path d="m464.009 48.047c-3.113-3.113-6.757-5.497-10.792-7.203 8.809 20.839-.778 52.265-25.162 76.649-19.411 19.411-64.911 34.011-93.073 41.586-3.783 14.065-5.815 23.81-5.815 23.81s87.777-18.295 116.883-47.401c29.105-29.105 37.146-68.254 17.959-87.441z" fill="#9be69d"/><path d="m265.658 82.699c3.154 24.381 28.687 59.022 46.401 80.525 9.734 11.816 17.107 19.666 17.107 19.666s40.812-75.273 35.925-113.052c-3.219-24.89-15.699-45.426-31.691-55.526-8.282-5.23-17.506-7.662-26.874-6.45-27.457 3.552-45.755 37.057-40.868 74.837z" fill="#6ed5a1"/><path d="m429.357 246.398c-37.78-4.887-100.191-63.508-100.191-63.508s75.273-40.812 113.052-35.926c14.167 1.833 26.924 6.665 37.148 13.438 17.041 11.288 27.047 27.966 24.827 45.127-3.551 27.458-37.056 45.756-74.836 40.869z" fill="#6ed5a1"/><path d="m504.194 205.529c2.203-17.032-7.643-33.582-24.449-44.866 5.23 8.282 7.666 17.503 6.454 26.871-3.552 27.458-37.057 45.755-74.837 40.869-24.383-3.154-59.022-28.688-80.525-46.402-1.081.569-1.671.889-1.671.889s62.411 58.621 100.191 63.508 71.285-13.411 74.837-40.869z" fill="#46cc8d"/><path d="m347.096 51.842c4.458 34.467-29.114 100.129-35.037 111.381 9.732 11.814 17.106 19.666 17.106 19.666s40.812-75.273 35.925-113.052c-3.219-24.891-15.701-45.422-31.694-55.521 6.908 10.289 11.845 23.181 13.7 37.526z" fill="#46cc8d"/><path d="m283.698 416.863c-2.433 2.433-19.074 17.067-21.337 18.833-71.323 55.633-166.757 67.282-218.308 68.726-20.008.56-33.197-9.671-35.994-27.425-.442-2.804-.625-5.793-.537-8.953.615-21.962 2.921-52.076 9.667-84.926l.548-2.354 3.576-6.222.428-10.989.543-2.335c12.106-46.369 33.707-95.658 71.909-133.86 9.431-9.431 18.746-17.99 27.926-25.714.335-.282.891-.736 1.594-1.305 1.417-1.145 5.011-1.48 7.054-3.106 2.383-1.896 3.224-5.089 4.754-6.301.989-.783 1.608-1.272 1.608-1.272 81.924-61.861 151.969-56.572 196.903-11.638 7.901 7.901 14.577 16.579 19.877 25.961 29.989 53.085 14.946 127.722-70.211 212.88z" fill="#eaf9fa"/><path d="m353.91 203.983c-5.3-9.382-11.976-18.06-19.877-25.961-3.39-3.39-6.926-6.551-10.597-9.478 3.921 4.908 7.431 10.053 10.473 15.439 29.988 53.085 15.946 128.722-69.212 213.879-2.432 2.432-19.073 17.067-21.337 18.833-71.323 55.633-167.757 66.282-219.308 67.726-5.426.152-10.345-.496-14.696-1.866 4.481 14.303 16.883 22.365 34.696 21.866 51.551-1.443 147.985-12.093 219.308-67.726 2.264-1.766 18.905-16.401 21.337-18.833 85.159-85.157 99.201-160.794 69.213-213.879z" fill="#d4f2f6"/></g><g><path d="m99.496 232.662c9.127-9.127 18.363-17.632 27.451-25.278.389-.327 1.143-.94 2.101-1.71l42.963 42.962c1.464 1.464 3.384 2.196 5.303 2.196s3.839-.732 5.303-2.196c2.929-2.93 2.929-7.678 0-10.607l-41.756-41.756c.309-.244.599-.474.853-.675 11.148-8.414 22.354-15.752 33.308-21.809 3.625-2.005 4.938-6.568 2.934-10.192-2.005-3.624-6.567-4.938-10.193-2.935-11.593 6.41-23.42 14.153-35.153 23.014-.044.033-.088.067-.131.102-.523.413-12.82 10.136-15.189 12.128-9.416 7.923-18.972 16.721-28.401 26.149-34.146 34.146-58.997 80.33-73.863 137.268-.017.065-.033.13-.048.195l-5.095 21.899c-.015.063-.028.127-.042.19-7.084 34.497-9.25 65.931-9.818 86.225-.1 3.585.11 7.061.625 10.331 3.302 20.958 19.288 33.779 41.907 33.779.563 0 1.134-.009 1.706-.025 26.555-.743 67.21-4.012 110.09-15.363 4.004-1.06 6.391-5.165 5.331-9.169-1.061-4.005-5.165-6.395-9.17-5.331-41.49 10.983-80.909 14.148-106.671 14.869-16.073.453-26.161-7.04-28.375-21.095-.373-2.363-.524-4.912-.449-7.577.538-19.214 2.552-48.711 9.025-81.183l11.178 11.177c1.464 1.464 3.384 2.196 5.303 2.196s3.839-.732 5.303-2.196c2.929-2.93 2.929-7.678 0-10.608l-17.84-17.84 1.579-6.785c14.186-54.276 37.714-98.135 69.931-130.35z"/><path d="m483.508 154.149c-9.428-6.245-20.457-10.76-32.264-13.252.035-.035.074-.07.109-.105 15.103-15.103 25.449-33.299 29.133-51.235 3.917-19.066-.052-35.692-11.173-46.813-3.739-3.739-8.17-6.707-13.171-8.821-7.839-3.312-16.789-4.474-26.599-3.448-4.12.43-7.111 4.118-6.681 8.238.43 4.119 4.121 7.117 8.238 6.68 7.263-.757 13.723.031 19.202 2.347 3.211 1.357 6.038 3.245 8.404 5.611 7.438 7.438 9.955 19.225 7.087 33.188-3.101 15.095-11.995 30.595-25.046 43.646-3.018 3.018-7 6.104-11.833 9.187-26.484 2.179-60.605 16.243-83.023 26.794 10.55-22.414 24.613-56.533 26.793-83.021 3.084-4.836 6.17-8.818 9.187-11.835 6.372-6.372 13.349-11.77 20.737-16.047 3.585-2.075 4.809-6.663 2.734-10.248s-6.663-4.809-10.248-2.734c-8.518 4.93-16.536 11.128-23.83 18.422-.036.035-.071.075-.106.11-4.822-22.929-17.094-42.323-33.753-52.842-10.03-6.335-21.04-8.946-31.84-7.548-15.723 2.034-29.284 12.13-38.184 28.427-8.473 15.515-11.726 34.98-9.161 54.811 1.388 10.733 7.524 28.783 27.237 57.056-26.52-7.374-56.067-5.57-86.934 5.765-3.888 1.428-5.883 5.737-4.455 9.625 1.428 3.889 5.738 5.884 9.626 4.455 24.959-9.165 48.664-11.576 70.453-7.168 20.505 4.148 38.87 14.22 54.583 29.932.472.472.924.955 1.387 1.432.03.031.059.062.089.092 6.814 7.055 12.595 14.719 17.174 22.822 14.745 26.102 17.401 56.097 7.896 89.151-10.674 37.12-36.205 76.061-75.881 115.736-1.018 1.019-4.965 4.553-9.153 8.252l-80.256-80.256c-2.929-2.928-7.678-2.928-10.606 0-2.929 2.93-2.929 7.678 0 10.607l79.508 79.508c-.049.039-.102.082-.139.112-21.651 16.889-47.514 30.85-76.869 41.494-3.894 1.412-5.906 5.714-4.494 9.607 1.106 3.05 3.984 4.945 7.051 4.945.849 0 1.712-.146 2.556-.451 30.839-11.183 58.085-25.908 80.981-43.768 2.455-1.915 19.385-16.801 22.028-19.443 41.494-41.494 68.306-82.607 79.69-122.198 7.516-26.138 8.016-51.389 1.634-74.378 28.28 19.72 46.334 25.857 57.069 27.246 4.422.571 8.825.854 13.171.854 15.143 0 29.585-3.433 41.639-10.016 16.297-8.9 26.392-22.461 28.426-38.185 2.516-19.442-7.998-39.008-28.123-52.34zm-210.412-72.412c-4.348-33.618 11.08-63.422 34.393-66.437 7.29-.949 14.867.906 21.906 5.353 14.624 9.235 25.452 28.45 28.258 50.146.914 7.068 1.419 34.069-27.507 93.552-5.54-4.608-11.331-8.664-17.353-12.145-23.552-29.578-37.641-54.573-39.697-70.469zm223.66 122.83c-3.015 23.313-32.824 38.745-66.437 34.393-15.903-2.057-40.906-16.148-70.496-39.713-3.485-6.025-7.536-11.825-12.116-17.338 59.486-28.926 86.485-28.418 93.549-27.505 12.577 1.626 24.323 5.862 33.968 12.252 15.247 10.098 23.296 24.271 21.532 37.911z"/></g></g></svg>