<svg id="Capa_1" enable-background="new 0 0 512.014 512.014" height="512" viewBox="0 0 512.014 512.014" width="512" xmlns="http://www.w3.org/2000/svg"><g><g><path d="m156.679 433.328c-31.701 31.701-83.112 31.701-114.813 0-4.393-4.399-5.05-10.53-8.228-15.579-3.165-5.028-8.855-8.972-10.806-14.443-10.233-28.636-3.888-61.869 19.034-84.792 22.922-22.922 56.156-29.267 84.792-19.034 5.765 2.056 10.746 6.116 16.013 9.518 4.751 3.068 9.846 5.353 14.009 9.516 31.7 31.701 31.7 83.113-.001 114.814z" fill="#bbf49b"/><path d="m156.679 318.514c31.701 31.701 31.701 83.113 0 114.814s-83.112 31.701-114.813 0c-8.768-8.779-15.124-19.057-19.034-30.022l103.825-103.826c10.965 3.91 21.243 10.255 30.022 19.034z" fill="#9be69d"/><path d="m297.007 293c-31.701 31.701-83.112 31.701-114.814 0-4.391-4.397-3.946-10.791-7.123-15.838-3.166-5.03-9.959-8.71-11.911-14.184-10.233-28.636-3.888-61.869 19.034-84.792 22.922-22.922 56.156-29.267 84.792-19.034 6.913 2.465 8.701 7.676 14.864 12.076 3.613 2.58 11.914 3.714 15.159 6.958 31.7 31.701 31.7 83.113-.001 114.814z" fill="#bbf49b"/><path d="m297.007 178.186c31.701 31.701 31.701 83.113 0 114.814s-83.112 31.701-114.814 0c-8.768-8.779-15.124-19.057-19.034-30.022l103.826-103.826c10.965 3.911 21.243 10.255 30.022 19.034z" fill="#9be69d"/><path d="m437.335 152.672c-31.701 31.701-83.112 31.701-114.814 0-4.353-4.359-4.268-12.226-7.428-17.225-3.205-5.069-9.638-7.276-11.607-12.798-10.233-28.636-3.888-61.869 19.034-84.792 22.922-22.922 56.156-29.267 84.792-19.034 5.401 1.926 7.898 7.583 12.869 10.69 5.121 3.201 12.698 3.889 17.153 8.344 31.702 31.703 31.702 83.114.001 114.815z" fill="#bbf49b"/><path d="m437.335 152.672c-31.701 31.701-83.112 31.701-114.814 0-8.768-8.779-15.124-19.057-19.034-30.022l103.826-103.826c10.965 3.91 21.243 10.255 30.022 19.034 31.701 31.702 31.701 83.113 0 114.814z" fill="#9be69d"/><path d="m447.259 11.553c5.9-5.9 15.625-5.273 20.739 1.319 8.107 10.449 12.345 27.219 20.093 48.025 16.015 43.006 19.014 107.38-33.186 159.581l-235.015 237.257c-33.646 33.646-79.69 49.946-123.66 46.216-28.567-2.423-56.59-12.735-80.533-30.935-8.996-6.838-9.813-20.087-1.823-28.077z" fill="#6ed5a1"/><path d="m495.092 60.897c-7.748-20.806-18.987-37.576-27.094-48.025-5.115-6.592-14.84-7.219-20.739-1.319l-6.082 6.082c7.615 10.47 16.857 25.367 23.521 43.262 16.015 43.006 13.015 108.38-39.186 160.581l-236.016 237.257c-26.464 26.464-60.597 41.57-95.358 45.002.698.069 1.394.155 2.092.214 43.971 3.73 90.014-11.569 123.66-45.216l236.016-237.257c52.2-52.2 55.201-117.574 39.186-160.581z" fill="#46cc8d"/></g><g><path d="m379.559 287.592-164.972 165.839c-31.067 31.067-73.974 46.749-117.723 43.047-4.129-.355-7.757 2.711-8.107 6.839-.35 4.127 2.712 7.757 6.839 8.106 4.656.395 9.296.591 13.924.591 43.241 0 84.782-17.084 115.688-47.99l164.986-165.854c2.921-2.937 2.909-7.685-.028-10.606s-7.686-2.91-10.607.028z"/><path d="m452.563 16.856c1.305-1.305 3.034-1.955 4.875-1.844 1.85.116 3.495.989 4.634 2.457 7.758 10 18.565 26.106 25.991 46.045 8.266 22.197 10.27 48.069 5.644 72.85-5.513 29.526-20.418 57.125-43.118 79.825l-47.977 48.229c-2.921 2.936-2.909 7.684.028 10.606 2.936 2.919 7.685 2.908 10.607-.028l47.962-48.214c24.836-24.836 41.172-55.15 47.243-87.665 5.119-27.417 2.87-56.126-6.332-80.837-8.086-21.714-19.796-39.179-28.196-50.006-3.761-4.848-9.427-7.848-15.545-8.232-6.099-.381-12.094 1.88-16.423 6.208l-14.289 14.289c-5.625-3.611-11.6-6.554-17.83-8.776-32.148-11.489-68.502-3.325-92.619 20.793-24.118 24.118-32.28 60.474-20.795 92.614 2.221 6.228 5.166 12.202 8.781 17.833l-17.864 17.864c-5.626-3.611-11.6-6.554-17.831-8.777-11.723-4.189-23.985-5.852-36.441-4.934-4.131.303-7.234 3.897-6.931 8.028s3.893 7.222 8.029 6.931c10.364-.759 20.554.619 30.3 4.102 4.135 1.475 8.137 3.334 11.966 5.558l-100.649 100.647c-2.226-3.832-4.086-7.835-5.561-11.968-9.545-26.714-2.765-56.925 17.275-76.965 4.464-4.464 9.459-8.329 14.845-11.489 3.573-2.096 4.77-6.691 2.674-10.264-2.096-3.572-6.691-4.768-10.264-2.674-6.486 3.805-12.495 8.454-17.861 13.82-24.118 24.118-32.28 60.474-20.795 92.614 2.221 6.228 5.166 12.202 8.781 17.832l-17.864 17.864c-5.626-3.611-11.6-6.555-17.831-8.776-32.146-11.488-68.5-3.326-92.619 20.793-24.118 24.118-32.28 60.474-20.795 92.615 2.221 6.227 5.166 12.202 8.781 17.832l-15.979 15.979c-5.365 5.365-8.146 12.784-7.633 20.357.51 7.522 4.235 14.446 10.221 18.995 15.624 11.876 33.084 20.725 51.895 26.302.711.211 1.429.311 2.135.311 3.235 0 6.221-2.11 7.188-5.37 1.178-3.972-1.087-8.146-5.059-9.322-17.066-5.06-32.906-13.089-47.081-23.862-2.573-1.956-4.112-4.822-4.333-8.069-.22-3.249.973-6.433 3.274-8.733zm-142.014 103.27c-9.545-26.714-2.765-56.925 17.275-76.964 14.011-14.012 32.991-21.541 52.276-21.541 8.298 0 16.656 1.395 24.694 4.268 4.135 1.475 8.137 3.334 11.966 5.557l-100.65 100.649c-2.226-3.833-4.087-7.835-5.561-11.969zm-280.655 280.657c-9.546-26.715-2.765-56.925 17.275-76.965 14.011-14.012 32.992-21.54 52.277-21.54 8.298 0 16.654 1.395 24.693 4.267 4.135 1.475 8.136 3.333 11.966 5.557l-100.65 100.648c-2.226-3.832-4.087-7.835-5.561-11.967z"/></g></g></svg>