<svg id="Capa_1" enable-background="new 0 0 512.016 512.016" height="512" viewBox="0 0 512.016 512.016" width="512" xmlns="http://www.w3.org/2000/svg"><g><g><path d="m464.085 8.028c23.284-4.049 43.584 16.148 39.653 39.452-2.504 14.848-6.314 32.434-12.105 51.196-1.966 6.368-11.657 13.157-14.106 19.735-1.651 4.435 4.079 8.618 2.188 13.103-12.378 29.352-30.066 59.354-55.341 84.758-82.007 82.424-212.824 85.23-212.824 85.23s2.142-130.83 84.148-213.254c51.736-52 122.9-72.311 168.387-80.22z" fill="#6fd7a3"/><path d="m491.622 98.673-69.197 30.442c-54.409 23.897-189.636 137.712-107.464 152.445.001-.001.003-.001.004-.002 36.677-12.434 76.881-32.593 109.409-65.286 34.866-35.043 55.282-78.83 67.248-117.599z" fill="#3ec3a4"/><path d="m441.571 148.261 38.136-16.75.707.227c9.293-4.082 19.569 3.37 18.514 13.465-3.095 29.618-13.974 81.232-47.919 117.33-1.385 1.473-1.853 3.875-3.319 5.291-19.591 18.911-46.53 32.448-83.606 34.221-138.902 6.642 17.848-127.59 77.487-153.784z" fill="#6fd7a3"/><path d="m499.884 144.245c1.055-10.095-9.221-17.547-18.514-13.465l-13.208 5.801c-9.372 51.807-39.024 132.259-132.798 136.744-10.467.501-19.244.196-26.522-.796-3.758 18.997 10.181 31.67 55.24 29.515 107.858-5.159 130.893-110.825 135.802-157.799z" fill="#3ec3a4"/><path d="m364.035 70.726 16.523-38.843c4.082-9.293-3.37-19.569-13.465-18.514-1.991.208-3.131-.509-5.321-.23-49.474 6.288-146.58 31.79-151.52 135.074-6.644 138.901 127.589-17.849 153.783-77.487z" fill="#6fd7a3"/><path d="m364.035 70.726 17.481-39.8c4.082-9.293-3.37-19.569-13.465-18.514-1.989.208-4.091.451-6.278.729l-16.884 38.439c-18.872 42.967-93.821 136.336-131.765 133.237 19.75 67.738 127.71-61.266 150.911-114.091z" fill="#3ec3a4"/><path d="m62.121 493.051c13.391 13.391 35.102 13.391 48.492 0l131.257-131.257c11.196-11.196 26.95-16.544 42.656-14.541 94.152 12.007 159.851-45.263 186.695-74.196 7.403-7.979 5.497-20.781-3.912-26.252-3.36-1.953-5.758-4.064-9.979-6.239-31.544-16.253-85.884-36.104-144.369-20.972-.113.029-.226.059-.339.088-5.961 1.56-11.902-.481-15.866-4.143-3.662-3.964-5.703-9.905-4.143-15.866.03-.113.059-.226.088-.339 17.157-66.311-10.658-127.293-27.21-155.762-5.471-9.41-18.273-11.315-26.252-3.912-28.933 26.844-87.617 93.957-75.61 188.109 2.003 15.706-3.345 31.46-14.541 42.656l-131.257 131.257c-13.391 13.391-13.391 35.102 0 48.492l24.491 24.491z" fill="#bbf49b"/><g><path d="m472.635 273.057c7.403-7.979 5.497-20.781-3.912-26.252-3.356-1.951-7.18-4.062-11.395-6.234.301 4.466-1.136 9.072-4.491 12.688-26.844 28.933-93.957 87.617-188.109 75.61-15.706-2.003-31.46 3.345-42.656 14.541l-131.257 131.256c-13.391 13.391-35.102 13.391-48.492 0l19.799 19.799c13.391 13.391 35.101 13.391 48.492 0l131.256-131.256c11.196-11.196 26.95-16.544 42.656-14.541 94.152 12.006 161.265-46.678 188.109-75.611z" fill="#9be69d"/></g></g><g><path d="m499.67 12.555c-.065-.065-.135-.121-.202-.183-.063-.067-.119-.137-.184-.202-9.738-9.679-23.083-13.883-36.604-11.529-25.758 4.478-50.34 11.179-73.239 19.95-.642-2.555-1.78-5.011-3.408-7.241-4.403-6.032-11.47-9.174-18.882-8.396-2.034.212-4.148.458-6.286.729-.013.001-.028.002-.041.004-.039.004-.078.009-.117.014-25.096 3.19-60.697 10.99-91.868 29.972-3.762-4.164-8.853-6.928-14.54-7.776-7.404-1.104-14.802 1.181-20.289 6.273-13.077 12.132-32.051 32.256-48.181 59.227-2.13 3.562-.97 8.175 2.592 10.305 3.561 2.13 8.175.971 10.305-2.592 15.22-25.447 33.146-44.457 45.505-55.924 2.123-1.969 4.982-2.851 7.852-2.425 2.865.428 5.342 2.107 6.795 4.606 16.869 29.014 42.733 87.095 26.432 150.104l-.082.316c-2.075 7.926.183 16.688 5.893 22.868.134.146.274.286.42.42 6.18 5.71 14.941 7.969 22.861 5.895l.324-.084c54.742-14.168 105.83 3.263 139.045 20.377 3.76 1.936 7.48 3.974 11.059 6.055 2.499 1.453 4.178 3.929 4.605 6.794.428 2.868-.456 5.73-2.425 7.853-13.618 14.678-36.263 35.547-66.805 51.618-36.842 19.385-75.482 26.665-114.846 21.648-17.897-2.288-36.19 3.952-48.92 16.681l-49.122 49.122c-2.934 2.935-2.934 7.692 0 10.627 1.468 1.467 3.391 2.2 5.313 2.2 1.923 0 3.846-.733 5.313-2.2l49.122-49.122c9.464-9.465 23.064-14.103 36.393-12.401 42.482 5.417 84.119-2.407 123.743-23.256 32.421-17.06 56.409-39.16 70.823-54.696 5.092-5.487 7.377-12.883 6.272-20.291-.875-5.859-3.782-11.084-8.159-14.876 5.427-8.916 10.268-18.703 14.41-29.22 1.521-3.861-.377-8.225-4.237-9.745-3.862-1.518-8.225.376-9.745 4.237-3.841 9.752-8.313 18.795-13.313 26.996-.868-.46-1.728-.932-2.601-1.382-23.734-12.229-56.074-24.573-92.607-26.863 25.59-22.453 55.675-43.278 76.075-52.237l39.801-17.481c2.733-1.197 4.904.036 5.71.624.796.581 2.615 2.249 2.31 5.181-.207 1.974-.445 4.029-.711 6.111-.003.02-.002.039-.004.059-.002.018-.006.035-.008.053-.001.01-.002.02-.003.03-1.191 9.34-2.852 18.581-4.935 27.472-.947 4.04 1.561 8.083 5.602 9.029.576.136 1.152.2 1.721.2 3.41 0 6.497-2.338 7.309-5.802 2.212-9.439 3.971-19.245 5.23-29.146.005-.039.01-.078.014-.117.001-.013.002-.028.004-.041.27-2.138.516-4.252.729-6.286.775-7.42-2.363-14.479-8.396-18.882-2.23-1.628-4.687-2.766-7.241-3.408 8.77-22.898 15.471-47.48 19.949-73.238 2.352-13.528-1.851-26.87-11.53-36.608zm-222.976 35.926c28.844-17.561 62.172-24.846 85.768-27.857.011-.001.021-.002.03-.003.018-.002.036-.006.054-.009.019-.002.038-.002.057-.004 2.082-.266 4.138-.504 6.111-.711 2.918-.311 4.6 1.513 5.181 2.309.588.806 1.825 2.974.623 5.71l-17.48 39.801c-8.921 20.312-29.604 50.227-51.947 75.745-2.585-38.837-16.428-72.507-28.397-94.981zm219.701-1.897c-4.859 27.948-12.425 54.419-22.482 78.718l-35.834 15.738c-25.039 10.998-63.482 38.515-92.195 65.904-11.383.628-23.059 2.321-34.92 5.389l-.359.093c-3.468.913-6.693-.503-8.645-2.193-1.69-1.95-3.103-5.173-2.192-8.649l.092-.354c3.139-12.131 4.84-24.07 5.424-35.68 27.26-28.668 54.57-66.87 65.516-91.79l15.737-35.834c24.3-10.057 50.771-17.623 78.72-22.482 8.654-1.502 17.199 1.184 23.435 7.383.054.054.114.1.169.152.052.056.098.115.152.17 6.196 6.235 8.887 14.777 7.382 23.435z"/><path d="m180.468 119.358c-3.827-1.603-8.229.204-9.831 4.032-14.244 34.059-19.149 69.502-14.578 105.344 1.699 13.324-2.938 26.929-12.402 36.393l-131.256 131.256c-16.299 16.3-16.299 42.819 0 59.119l44.29 44.29c8.15 8.149 18.855 12.224 29.56 12.224s21.409-4.074 29.56-12.224l59.022-59.022c2.934-2.935 2.934-7.692 0-10.627-2.936-2.934-7.691-2.934-10.627 0l-59.022 59.023c-5.057 5.058-11.78 7.843-18.933 7.843-7.152 0-13.876-2.785-18.933-7.843l-44.29-44.29c-10.44-10.439-10.44-27.426 0-37.865l131.255-131.257c12.73-12.729 18.966-31.017 16.683-48.92-4.233-33.195.32-66.048 13.535-97.645 1.601-3.829-.205-8.231-4.033-9.831z"/></g></g></svg>