<svg id="Capa_1" enable-background="new 0 0 512.03 512.03" height="512" viewBox="0 0 512.03 512.03" width="512" xmlns="http://www.w3.org/2000/svg"><g><g><path d="m291.036 137h-72.042v-114.5c0-8.284 6.716-15 15-15h27.042l15 1c8.284 0 14 5.716 14 14z" fill="#b67f5f"/><path d="m276.036 7.5h-15c5.523 0 10 4.477 10 10v119.5h20v-114.5c0-8.284-6.715-15-15-15z" fill="#a06e50"/><path d="m294.928 493.707.024-.013c92.417-49.661 143.087-150.66 128.454-254.549l-4.637-40.021h-325.508l-5.5 39.05-.137.971c-.394 2.798 1.961 8.39 1.961 8.39s-3.679 7.067-3.905 10.592c-6.233 97.158 44.619 189.936 131.397 236.567l.025.013c7.052 3.79 14.519 6.479 22.161 8.069 18.689 3.888 38.418.199 55.665-9.069z" fill="#ffd54f"/><path d="m425.56 248.657c-.018-.173-6.791-49.533-6.791-49.533h-325.508s-7.172 52.691-7.577 59.004c.848.071 287.949.115 287.949.115 12.989 0 23.509 10.704 23.106 23.687-2.746 88.269-52.129 169.959-131.787 212.765l-.025.013c-7.59 4.079-15.661 6.883-23.913 8.413 18.165 3.37 37.204.565 53.913-8.413l.025-.013c89.595-48.145 140.891-145.48 130.608-246.038z" fill="#ffca28"/><path d="m51.779 175.027c0 15.221 2.85 29.933 8.159 43.842 4.468 11.705 28.309 19.373 28.309 19.373h335.537c12.528 0 21.841-7.668 26.309-19.373 5.309-13.909 8.159-28.62 8.159-43.842 0-22.541-6.24-43.967-17.47-63.323-12.004-20.689-32.252-32.289-56.172-32.289l-22.928-1h-234.261c-23.92 0-46.168 12.6-58.172 33.289-11.23 19.356-17.47 40.782-17.47 63.323z" fill="#b67f5f"/><path d="m442.782 111.705c-12.004-20.689-34.252-33.289-58.172-33.289h-30c23.92 0 46.168 12.6 58.172 33.289 11.23 19.355 17.47 40.781 17.47 63.322 0 15.222-2.85 29.933-8.159 43.842-4.468 11.705-15.78 19.373-28.309 19.373h30c12.528 0 23.841-7.669 28.309-19.373 5.309-13.909 8.159-28.62 8.159-43.842 0-22.541-6.24-43.967-17.47-63.322z" fill="#a06e50"/></g><path d="m449.269 107.941c-13.251-22.838-38.026-37.025-64.659-37.025h-86.073v-48.416c0-12.406-10.094-22.5-22.5-22.5h-42.042c-12.407 0-22.5 10.094-22.5 22.5v48.416h-84.074c-26.632 0-51.408 14.188-64.659 37.025-12.264 21.139-18.483 43.709-18.483 67.086 0 15.824 2.911 31.474 8.653 46.517 4.451 11.661 14.529 20.235 26.435 23.128-5.796 50.32 3.192 100.65 26.15 145.972 23.959 47.296 61.309 85.56 108.036 110.669 13.295 7.145 27.879 10.717 42.463 10.717 14.556 0 29.113-3.56 42.387-10.676.034-.018.067-.036.101-.054 46.814-25.156 84.219-63.53 108.171-110.973 1.866-3.697.383-8.208-3.315-10.075-3.696-1.865-8.209-.384-10.075 3.315-22.546 44.659-57.751 80.786-101.809 104.481-.033.017-.065.033-.098.051-22.142 11.899-48.58 11.9-70.748-.014-43.987-23.637-79.165-59.676-101.73-104.221-21.722-42.881-30.17-90.517-24.56-138.124h69.417c4.142 0 7.5-3.357 7.5-7.5s-3.358-7.5-7.5-7.5h-75.51c-9.42 0-17.98-5.847-21.302-14.548-5.087-13.327-7.667-27.179-7.667-41.167 0-20.698 5.537-40.736 16.458-59.558 10.577-18.229 30.381-29.553 51.685-29.553h257.189c21.304 0 41.108 11.324 51.685 29.553 10.92 18.822 16.457 38.86 16.457 59.558 0 13.988-2.579 27.839-7.666 41.167-3.321 8.701-11.882 14.548-21.302 14.548h-227.342c-4.142 0-7.5 3.357-7.5 7.5s3.358 7.5 7.5 7.5h221.228c4.182 35.716.358 72.37-11.184 106.371-1.332 3.923.769 8.182 4.69 9.513.8.271 1.612.4 2.412.4 3.124 0 6.041-1.968 7.101-5.091 12.182-35.887 16.282-74.556 11.971-112.262 11.908-2.893 21.988-11.467 26.439-23.13 5.741-15.043 8.652-30.693 8.652-46.517.001-23.373-6.218-45.944-18.482-67.083zm-222.775-85.441c0-4.136 3.364-7.5 7.5-7.5h42.042c4.136 0 7.5 3.364 7.5 7.5v48.416h-57.042z"/></g></svg>