<svg id="Capa_1" enable-background="new 0 0 504.611 504.611" height="512" viewBox="0 0 504.611 504.611" width="512" xmlns="http://www.w3.org/2000/svg"><g><g><path d="m327.401 290.488c0 37.024-30.014 67.039-67.039 67.039s-67.039-30.014-67.039-67.039c0-31.958 22.362-58.694 52.293-65.412 4.745-1.065 9.68-.627 14.746-.627 2.493 0 4.954.136 7.376.401 6.508.712 12.735 2.356 18.547 4.795 9.336 3.918 17.598 9.889 24.221 17.347 10.511 11.837 16.895 26.421 16.895 43.496z" fill="#ffaa5f"/><path d="m310.506 245.992c-6.623-7.459-14.885-13.429-24.221-17.347-5.811-2.439-12.039-4.082-18.547-4.795-2.422-.265-4.883-.401-7.376-.401-5.067 0-9.996.581-14.741 1.646 3.838.865 7.553 2.057 11.11 3.55 9.336 3.918 17.598 9.888 24.221 17.347 10.511 11.836 16.895 27.421 16.895 44.496 0 31.945-22.35 58.652-52.262 65.384 4.757 1.071 9.697 1.654 14.777 1.654 37.025 0 67.039-30.014 67.039-67.039 0-17.074-6.384-32.659-16.895-44.495z" fill="#ff8c5a"/><path d="m389.584 225.173c-.569.09-7.761 1.123-10.999 2.615-9.485 4.372-19.869 6.024-30.243 4.813-4.091-.478-8.29-.386-12.529.288-26.649 4.241-44.723 29.858-38.586 68.421s40.663 65.121 67.312 60.88c4.31-.686 8.15-2.136 11.533-4.248 4.479-2.796 9.937-3.665 15.063-2.397 3.871.958 7.971 1.144 12.281.458 21.334-3.395 41.339-27.121 45.322-56.235.992-7.254.99-14.842-.234-22.533-2.301-14.461-8.274-25.135-14.996-33.854-11.204-14.532-27.268-20.858-43.924-18.208z" fill="#ed5469"/><path d="m448.504 277.235c-2.301-14.461-7.274-26.134-13.996-34.854-11.204-14.532-27.267-20.859-43.923-18.208-.569.091-1.134.191-1.695.301-.31.061-.611.141-.918.208 10.214 2.302 19.553 8.255 26.834 17.699 6.722 8.72 11.695 20.393 13.996 34.854 1.224 7.692 1.226 15.28.234 22.533-3.718 27.179-21.4 49.656-41.091 55.287 1.07.082 2.138.229 3.191.49 3.871.958 7.971 1.144 12.281.458 21.334-3.395 41.339-27.121 45.322-56.235.991-7.253.989-14.841-.235-22.533z" fill="#e63850"/><g fill="#bbf49b"><path d="m161.156 166.96c2.82-.916 5.785.895 6.257 3.822 1.275 7.911 2.357 23.264-5.19 35.619-10.659 17.45-34.495 22.313-34.495 22.313s-6.553-23.428 4.106-40.877c7.548-12.354 21.702-18.4 29.322-20.877z"/><path d="m313.572 174.691c2.965-.004 5.229 2.632 4.777 5.562-1.221 7.919-4.915 22.86-15.898 32.294-15.511 13.323-39.687 10.617-39.687 10.617s.973-24.308 16.484-37.631c10.984-9.433 26.311-10.83 34.324-10.842z"/><path d="m409.259 174.098c2.912-.556 5.628 1.613 5.729 4.576.274 8.008-.575 23.376-9.611 34.688-12.761 15.977-37.018 17.817-37.018 17.817s-3.567-24.064 9.194-40.041c9.036-11.313 23.836-15.538 31.706-17.04z"/></g><path d="m143.561 222.652c-6.431.94-12.34 3.227-17.474 6.724-4.332 2.951-9.742 3.741-14.738 2.153-5.92-1.882-12.236-2.383-18.667-1.443-24.755 3.617-41.813 27.151-36.579 62.974 6.153 42.11 38.874 58.748 61.045 65.237 13.597 3.98 28.272 2.023 40.303-5.458 19.424-12.077 45.538-36.777 39.177-80.313-.095-.65-.779-4.598-1.056-5.881-3.017-14.009-8.023-24.112-15.797-31.591-9.381-9.025-22.345-14.012-34.829-12.584-.461.054-.922.114-1.385.182z" fill="#9be69d"/><path d="m196.629 272.526c-.095-.65-1.779-4.598-2.056-5.881-3.017-14.01-8.023-24.112-15.797-31.591-9.381-9.025-22.345-13.012-34.829-11.584-.461.053.077.113-.385.18-1.417.207-2.803-.509-4.166-.173 7.627 1.918 14.845 5.965 20.678 11.577 7.774 7.479 12.78 17.581 15.797 31.591.276 1.283.961 5.23 1.056 5.881 6.361 43.535-19.753 68.236-39.177 80.313-5.082 3.16-10.638 5.322-16.383 6.48 12.366 2.482 25.289.234 36.086-6.48 19.423-12.077 45.537-36.777 39.176-80.313z" fill="#6fd7a3"/><path d="m389.217 497.111h-274.808c-19.422 0-36.183-13.62-40.156-32.631l-11.879-56.832-5.849-27.981-.804-8.558-3.308-11.112h398.798l-21.839 104.483c-3.972 19.012-20.733 32.631-40.155 32.631z" fill="#b67f5f"/><path d="m446.79 359.997h-388.968c-16.632 0-30.115-13.483-30.115-30.115 0-16.632 13.483-30.115 30.115-30.115h388.968c16.632 0 30.115 13.483 30.115 30.115h-.985c-.001 16.633-12.498 30.115-29.13 30.115z" fill="#b67f5f"/><path d="m452.197 359.997h-29.554-370.229l4.111 19.67c.43.018.861.033 1.296.033h340.583c10.375 0 18.126 9.539 16.004 19.694l-13.604 65.086c-3.974 19.011-20.734 32.631-40.156 32.631h29.554c19.422 0 36.183-13.62 40.156-32.631l17.728-84.813z" fill="#a06e50"/><path d="m446.79 299.768h-29.554c16.632 0 30.115 13.483 30.115 30.115 0 16.632-13.483 30.115-30.115 30.115h29.554c16.632 0 30.115-13.482 30.115-30.115-.001-16.632-13.483-30.115-30.115-30.115z" fill="#a06e50"/></g><g><path d="m337.465 489.611h-219.825c-17.657 0-33.095-12.544-36.706-29.827l-7.571-36.225c-.849-4.054-4.829-6.649-8.876-5.808-4.055.848-6.654 4.821-5.808 8.876l7.571 36.225c5.058 24.196 26.67 41.759 51.39 41.759h219.825c4.143 0 7.5-3.357 7.5-7.5 0-4.142-3.357-7.5-7.5-7.5z"/><path d="m446.79 307.269c12.47 0 22.614 10.145 22.614 22.614 0 12.47-10.145 22.614-22.614 22.614h-143.953c-4.143 0-7.5 3.357-7.5 7.5s3.357 7.5 7.5 7.5h140.13l-19.289 92.286c-3.613 17.284-19.051 29.828-36.707 29.828h-17.305c-4.142 0-7.5 3.357-7.5 7.5s3.358 7.5 7.5 7.5h17.305c24.719 0 46.331-17.562 51.39-41.759l20.337-97.299c14.92-4.994 25.706-19.092 25.706-35.671 0-16.208-10.305-30.054-24.707-35.332v-87.159c0-114.356-93.035-207.391-207.391-207.391s-207.392 93.035-207.392 207.392v87.159c-14.402 5.278-24.707 19.124-24.707 35.332 0 16.579 10.786 30.677 25.706 35.671l6.115 29.26c.739 3.537 3.858 5.968 7.334 5.968.509 0 1.025-.053 1.542-.16 4.055-.848 6.654-4.821 5.808-8.876l-5.068-24.248h208.506c4.143 0 7.5-3.357 7.5-7.5s-3.357-7.5-7.5-7.5h-212.329c-12.47 0-22.614-10.145-22.614-22.614 0-12.47 10.145-22.614 22.614-22.614h388.969zm-143.031-15c-1.895-27.884 10.97-48.429 33.232-51.972 3.532-.562 7.058-.644 10.481-.246 11.703 1.368 23.55-.52 34.251-5.451 3.128-1.441 6.506-2.457 10.039-3.02 24.434-3.895 44.258 14.933 49.334 46.834.726 4.557.974 9.196.768 13.854h-138.105zm-240.206 0c-.01-.098-.014-.195-.028-.293-2.232-15.277-.158-28.601 5.996-38.527 5.53-8.919 13.914-14.432 24.245-15.941 5.288-.771 10.439-.38 15.311 1.17 7.224 2.299 14.963 1.166 21.233-3.103.406-.276.82-.533 1.233-.79.033-.02.065-.042.098-.063 3.982-2.455 8.318-4.019 12.918-4.636.012-.002.025-.002.037-.004.043-.004.087-.01.131-.014 9.218-1.193 18.487 1.392 26.115 7.291 9.398 7.268 15.728 19.124 17.987 33.565.02.505.091 1.002.21 1.486.046.342.103.677.145 1.021.849 6.992 1.027 13.206.553 18.839h-126.184zm74.681-100.521c5.414-8.863 15.279-13.954 22.208-16.587.819 7.366.794 18.468-4.62 27.331-3.048 4.99-7.869 9.319-14.298 12.896-2.768.433-5.466 1.099-8.085 1.996-.619-7.234-.247-17.382 4.795-25.636zm65.84 79.875c-.016-.133-.04-.263-.056-.396 8.232-24.16 30.657-40.278 56.344-40.278 14.863 0 29.141 5.587 40.052 15.507-.789 1.09-1.556 2.203-2.274 3.365-7.187 11.64-10.381 26.187-9.415 42.447h-83.954c.437-6.315.215-13.133-.697-20.645zm195.443-62.941c-2.439 3.054-5.674 5.745-9.611 8.019-.168.025-.333.039-.501.066-4.878.777-9.565 2.189-13.931 4.197.277-7.31 1.882-17.561 7.939-25.146 6.48-8.113 16.907-11.929 24.11-13.673-.109 7.412-1.524 18.421-8.006 26.537zm-147.211-193.682c106.085 0 192.392 86.307 192.392 192.392v36.823c-8.157-13.492-19.761-22.735-33.301-26.387 10.359-13.138 11.399-30.312 11.087-39.411-.123-3.605-1.809-6.962-4.625-9.211-2.815-2.249-6.466-3.146-10.005-2.476-8.992 1.717-25.647 6.563-36.161 19.727-3.674 4.601-6.19 9.71-7.897 14.801-1.427-2.782-4.509-4.484-7.764-4.003-4.099.605-6.931 4.416-6.326 8.514l2.899 19.66c-1.132-.053-2.263-.145-3.393-.276-4.787-.559-9.69-.447-14.577.33-8.892 1.416-16.974 4.924-23.798 10.191-4.441-4.088-9.341-7.583-14.568-10.459 3.851-1.755 7.626-4.019 11.07-6.978 12.781-10.979 17.029-27.794 18.425-36.842.548-3.565-.483-7.177-2.832-9.91-2.345-2.73-5.752-4.294-9.352-4.294-.006 0-.012 0-.017 0h-.001c-9.153.014-26.418 1.675-39.2 12.653-6.91 5.935-11.318 13.581-14.137 20.781l-.531-4.789c-.457-4.116-4.153-7.087-8.281-6.627-4.116.456-7.084 4.164-6.627 8.281l2.181 19.663c-20.158 3.622-37.73 15.297-48.839 32.201-4.23-9.702-10.363-17.871-18.109-23.862-5.02-3.882-10.563-6.735-16.378-8.522 1.89-2.1 3.554-4.32 4.982-6.657 8.784-14.379 7.651-31.687 6.194-40.723-.573-3.561-2.667-6.68-5.742-8.559s-6.804-2.317-10.237-1.203c-8.705 2.829-24.62 9.722-33.404 24.102-2.402 3.932-4.058 8.074-5.176 12.204l-.265-1.151c-.929-4.037-4.953-6.561-8.99-5.627-4.037.929-6.557 4.954-5.627 8.99l5.832 25.345c-6.326-1.655-12.911-2.005-19.609-1.024-12.807 1.871-23.878 8.327-31.685 18.363v-33.637c0-106.086 86.307-192.393 192.392-192.393zm19.035 200.798c1.477-7.188 4.912-17.805 12.794-24.575 7.879-6.767 18.832-8.575 26.234-8.948-1.486 7.262-4.927 17.816-12.805 24.583-7.883 6.771-18.898 8.565-26.223 8.94z"/></g></g></svg>