<svg id="Capa_1" enable-background="new 0 0 512.002 512.002" height="512" viewBox="0 0 512.002 512.002" width="512" xmlns="http://www.w3.org/2000/svg"><g><g><path d="m401.064 225.769c-31.064-84.885-159.693-78.837-159.693-78.837-59.315 3.655-115.57 29.6-131.433 77.837-23.467 71.358 53.412 190.566 104.407 258.852 7.105 9.514 16.535 15.661 26.702 18.521 19.592 5.51 41.919-1.187 55.61-19.521 50.995-68.287 128.594-190.759 104.407-256.852z" fill="#ed5469"/><path d="m402.064 224.769c-18.497-56.246-91.913-82.183-161.063-77.813 59.179 3.74 115.233 29.677 131.063 77.813 23.467 71.358-53.412 190.566-104.407 258.852-7.031 9.416-16.458 15.636-26.656 18.685 19.963 5.967 42.892-.253 56.656-18.685 50.995-68.286 127.874-187.494 104.407-258.852z" fill="#e63850"/><path d="m382.645 82.62c-8.415-1.73-34.838-2.035-34.838-2.035-9.639 1.591-19.728 5.021-29.064 11.514-.071-2.419.107-4.618.42-6.568.711-4.421-3.756-7.871-7.866-6.096-4.534 1.957-9.965 4.758-15.404 8.599.095-1.546.153-3.102.149-4.67-.084-33.036-22.886-61.302-34.125-73.232-3.312-3.515-8.91-3.501-12.204.031-11.178 11.987-33.836 40.368-33.752 73.404.004 1.498.066 2.984.16 4.462-5.436-3.839-10.864-6.638-15.396-8.594-4.111-1.775-8.577 1.676-7.867 6.096.313 1.949.491 4.148.42 6.568-23.089-16.057-50.773-13.385-64.902-10.48-5.098 1.048-8.044 6.421-6.137 11.264 5.91 15.009 20.363 45.273 45.342 60.148 27.509 16.381 65.621 16.873 82.645 2.626 3.658 1.858 7.997 1.89 11.676.094 17.077 14.154 55.089 12.627 82.539-3.72 24.979-14.875 38.432-44.139 44.342-59.148 1.906-4.842-1.04-9.215-6.138-10.263z" fill="#bbf49b"/><path d="m383.645 81.62c-8.415-1.73-21.64-3.376-35.837-1.033 2.13.317 4.088.673 5.837 1.033 5.098 1.048 8.044 6.421 6.137 11.264-5.91 15.009-20.363 45.273-45.342 60.148-9.82 5.848-20.991 9.66-32.072 11.511 18.723 3.576 42.955-.127 62.072-11.511 24.979-14.875 39.432-45.139 45.342-60.148 1.907-4.843-1.039-10.216-6.137-11.264z" fill="#9be69d"/></g><g><path d="m117.07 227.107c10.751-32.692 40.042-50.446 63.719-59.735 11.198 3.939 23.086 5.935 34.331 5.935 13.996 0 26.99-3.074 36.388-9.275 2.983.686 6.098.704 9.09.051 16.943 11.121 45.546 12.104 70.63 3.298 41.715 16.343 57.692 41.4 63.718 59.725 1.039 3.157 3.973 5.159 7.124 5.159.776 0 1.566-.121 2.344-.377 3.936-1.294 6.076-5.533 4.782-9.468-8.738-26.569-29.794-48.712-60.003-63.513 25.969-15.962 40.936-46.416 47.575-63.28 1.718-4.361 1.422-9.228-.812-13.351-2.243-4.14-6.177-7.059-10.793-8.008-13.288-2.733-37.037-5.127-59.461 5.237-.86-2.033-2.233-3.854-4.039-5.259-3.802-2.959-8.91-3.611-13.332-1.702-1.785.771-3.538 1.591-5.257 2.459-1.777-16.381-9.355-42.064-35.691-70.019-2.986-3.168-7.192-4.984-11.547-4.984-.013 0-.026 0-.04 0-4.368.011-8.582 1.85-11.56 5.043-4.487 4.811-11.16 12.606-17.47 22.422-2.239 3.484-1.23 8.125 2.255 10.364 3.482 2.239 8.123 1.23 10.364-2.254 5.706-8.878 11.752-15.94 15.82-20.302.169-.181.38-.273.629-.274h.002c.248 0 .459.091.628.271 28.879 30.654 32.058 57.842 32.084 68.107.003 1.292-.041 2.664-.135 4.193-.176 2.879 1.315 5.605 3.835 7.01s5.623 1.239 7.978-.425c3.451-2.438 7.189-4.624 11.143-6.517-.123 1.544-.162 3.107-.117 4.673.08 2.753 1.662 5.239 4.12 6.479 2.458 1.239 5.398 1.032 7.659-.539 20.708-14.401 45.925-12.001 59.109-9.291.28.058.49.212.625.459.188.347.079.621.044.712-14.539 36.927-34.354 51.78-42.199 56.452-21.429 12.759-57.593 16.919-73.917 3.389-2.268-1.881-5.429-2.258-8.075-.966-1.569.766-3.434.75-4.99-.041-2.678-1.36-5.907-.992-8.21.936-16.281 13.625-52.492 9.486-73.994-3.318-7.844-4.671-27.658-19.522-42.2-56.452-.035-.09-.144-.364.044-.71.135-.248.345-.402.626-.46 13.188-2.712 38.401-5.109 59.108 9.291 2.261 1.572 5.199 1.78 7.658.54 2.458-1.239 4.04-3.725 4.121-6.476.046-1.566.007-3.129-.116-4.676 3.951 1.893 7.686 4.076 11.136 6.512 2.358 1.666 5.465 1.831 7.985.421 2.521-1.409 4.009-4.14 3.826-7.022-.095-1.489-.143-2.8-.145-4.005-.017-6.515.97-13.288 2.931-20.129 1.141-3.981-1.161-8.135-5.143-9.276-3.979-1.144-8.135 1.161-9.276 5.143-1.508 5.26-2.534 10.512-3.071 15.694-1.701-.858-3.438-1.67-5.203-2.432-4.421-1.908-9.53-1.257-13.33 1.701-1.807 1.405-3.18 3.226-4.041 5.26-22.423-10.363-46.172-7.969-59.46-5.237-4.617.949-8.551 3.868-10.793 8.008-2.234 4.123-2.53 8.99-.813 13.351 6.64 16.863 21.606 47.314 47.568 63.275-30.215 14.801-51.276 36.947-60.015 63.518-12.766 38.819.469 94.195 39.336 164.59 1.367 2.477 3.93 3.876 6.572 3.876 1.226 0 2.469-.301 3.618-.935 3.626-2.002 4.942-6.565 2.94-10.191-36.77-66.598-49.628-117.959-38.217-152.655z"/><path d="m406.544 249.109c-.054-.001-.105-.001-.158-.001-4.07 0-7.411 3.257-7.495 7.345-1.464 70.764-67.814 169.888-107.235 222.676-8.481 11.359-21.475 17.874-35.646 17.874-14.172 0-27.164-6.515-35.648-17.874-18.411-24.654-34.952-48.91-49.164-72.092-2.167-3.532-6.785-4.639-10.314-2.474-3.531 2.165-4.639 6.783-2.475 10.314 14.45 23.571 31.251 48.208 49.935 73.228 11.342 15.188 28.716 23.898 47.666 23.898s36.324-8.711 47.666-23.899c28.924-38.732 52.784-75.685 70.92-109.831 25.394-47.814 38.613-88.695 39.292-121.509.084-4.143-3.204-7.569-7.344-7.655z"/><path d="m203.805 375.101c0 3.967 3.216 7.184 7.183 7.184s7.183-3.216 7.183-7.183c0-3.967-3.216-7.183-7.183-7.183-3.967-.001-7.183 3.215-7.183 7.182z"/><path d="m292.637 375.101c0 3.967 3.216 7.184 7.183 7.184s7.183-3.216 7.183-7.183c0-3.967-3.216-7.183-7.183-7.183-3.967-.001-7.183 3.215-7.183 7.182z"/><path d="m174.37 222.979c0-3.967-3.216-7.183-7.183-7.183s-7.183 3.216-7.183 7.183c0 3.967 3.216 7.183 7.183 7.183s7.183-3.216 7.183-7.183z"/><path d="m256.018 230.162c3.967 0 7.183-3.216 7.183-7.183 0-3.967-3.216-7.183-7.183-7.183s-7.183 3.216-7.183 7.183c0 3.967 3.216 7.183 7.183 7.183z"/><path d="m352.034 222.979c0-3.967-3.216-7.183-7.183-7.183s-7.183 3.216-7.183 7.183c0 3.967 3.216 7.183 7.183 7.183 3.966 0 7.183-3.216 7.183-7.183z"/><path d="m152.362 299.04c0 3.967 3.216 7.183 7.183 7.183s7.183-3.216 7.183-7.183c0-3.967-3.216-7.183-7.183-7.183s-7.183 3.216-7.183 7.183z"/><path d="m256.417 306.223c3.967 0 7.184-3.216 7.184-7.183 0-3.967-3.216-7.183-7.184-7.183-3.967 0-7.183 3.216-7.183 7.183 0 3.967 3.216 7.183 7.183 7.183z"/><path d="m353.29 306.223c3.967 0 7.183-3.216 7.183-7.183 0-3.967-3.216-7.183-7.183-7.183s-7.183 3.216-7.183 7.183c-.001 3.967 3.215 7.183 7.183 7.183z"/></g></g></svg>